<mxfile host="app.diagrams.net" modified="2022-09-28T13:44:11.527Z" agent="5.0 (Windows NT 10.0; Win64; x64) AppleWebKit/537.36 (KHTML, like Gecko) Chrome/104.0.5112.102 Safari/537.36 OPR/90.0.4480.84" etag="8mATB6mz-RDo2aS6CSsV" version="20.3.6" type="github">
  <diagram name="Page-1" id="b520641d-4fe3-3701-9064-5fc419738815">
    <mxGraphModel dx="4682" dy="774" grid="1" gridSize="10" guides="1" tooltips="1" connect="1" arrows="1" fold="1" page="1" pageScale="1" pageWidth="1100" pageHeight="850" background="none" math="0" shadow="0">
      <root>
        <mxCell id="0" />
        <mxCell id="1" parent="0" />
        <mxCell id="21ea969265ad0168-30" value="MODIFICADO" style="html=1;rounded=0;shadow=0;comic=0;labelBackgroundColor=none;strokeWidth=2;fontFamily=Verdana;fontSize=12;align=center;shape=mxgraph.ios7ui.horLines;fontColor=#000000;fillColor=#006666;gradientColor=#004C99;gradientDirection=east;" parent="1" vertex="1">
          <mxGeometry x="-477.5" y="933.5" width="135" height="50" as="geometry" />
        </mxCell>
        <mxCell id="iB148q3Q0pq7KRZTCYRV-3" value="DIMENSIONAMENTOS&lt;br&gt;CARGAS ALTAS OU PROJETOS ESPECÍFICOS" style="ellipse;whiteSpace=wrap;html=1;fontColor=#000000;fillColor=#990099;" parent="1" vertex="1">
          <mxGeometry x="-2855" y="60" width="180" height="110" as="geometry" />
        </mxCell>
        <mxCell id="SfAEeaAkZnoSVuUluzx7-16" style="edgeStyle=orthogonalEdgeStyle;shape=connector;rounded=1;jumpStyle=sharp;orthogonalLoop=1;jettySize=auto;html=1;entryX=0.543;entryY=-0.025;entryDx=0;entryDy=0;entryPerimeter=0;labelBackgroundColor=default;strokeColor=#B3FF66;strokeWidth=2;fontFamily=Helvetica;fontSize=11;fontColor=default;endArrow=classic;" parent="1" source="acACqqO5Qa5gXnCJQmCN-15" target="acACqqO5Qa5gXnCJQmCN-20" edge="1">
          <mxGeometry relative="1" as="geometry" />
        </mxCell>
        <mxCell id="acACqqO5Qa5gXnCJQmCN-15" value="COMANDO PISCINA" style="swimlane;html=1;fontStyle=0;childLayout=stackLayout;horizontal=1;startSize=26;fillColor=#e0e0e0;horizontalStack=0;resizeParent=1;resizeLast=0;collapsible=1;marginBottom=0;swimlaneFillColor=#ffffff;align=center;rounded=1;shadow=0;comic=0;labelBackgroundColor=none;strokeWidth=1;fontFamily=Verdana;fontSize=12;fontColor=#000000;" parent="1" vertex="1">
          <mxGeometry x="-2477.5" y="464" width="220" height="52" as="geometry" />
        </mxCell>
        <mxCell id="acACqqO5Qa5gXnCJQmCN-16" value="QDC&amp;nbsp; &amp;nbsp; &amp;nbsp; #25.00&amp;nbsp; &amp;nbsp; &amp;nbsp;80A&amp;nbsp;&lt;span style=&quot;&quot;&gt; &lt;/span&gt;&amp;nbsp;&amp;nbsp;&amp;nbsp;3F" style="text;html=1;strokeColor=none;fillColor=none;spacingLeft=4;spacingRight=4;whiteSpace=wrap;overflow=hidden;rotatable=0;points=[[0,0.5],[1,0.5]];portConstraint=eastwest;fontColor=#000000;" parent="acACqqO5Qa5gXnCJQmCN-15" vertex="1">
          <mxGeometry y="26" width="220" height="26" as="geometry" />
        </mxCell>
        <mxCell id="acACqqO5Qa5gXnCJQmCN-20" value="CARGA DE 25KW, AGUARDANDO PROJETO E PISCINA" style="html=1;rounded=0;shadow=0;comic=0;labelBackgroundColor=none;strokeWidth=2;fontFamily=Verdana;fontSize=12;align=center;shape=mxgraph.ios7ui.horLines;fontColor=#000000;fillColor=#FFFAFD;" parent="1" vertex="1">
          <mxGeometry x="-2557.5" y="555" width="350" height="40" as="geometry" />
        </mxCell>
        <mxCell id="ODSwBIh967FiHDvE5To--1" value="PRIVILÉGE" style="shape=hexagon;perimeter=hexagonPerimeter2;whiteSpace=wrap;html=1;fixedSize=1;fontColor=#000000;fillColor=#66B2FF;" parent="1" vertex="1">
          <mxGeometry x="-470" y="674.5" width="120" height="80" as="geometry" />
        </mxCell>
        <mxCell id="ODSwBIh967FiHDvE5To--6" value="PTF. BOMBA DE INCÊNDIO DEVERÁ SER DIMENSIONADO E DISCUTIDO JUNTO A COORDENAÇÃO. PROVAVELMENTE O PTF. BOMBA INCÊNDIO SERÁ PARTE DE UM QDC DE EMERGÊNCIA, NÃO MAIS DE UM QDC DE CONDOMÍNIO." style="shape=process;whiteSpace=wrap;html=1;backgroundOutline=1;" parent="1" vertex="1">
          <mxGeometry x="-3060" y="200" width="540" height="60" as="geometry" />
        </mxCell>
        <mxCell id="-e-ILqeZROQvLMbUx6ZE-28" style="edgeStyle=orthogonalEdgeStyle;shape=connector;rounded=1;jumpStyle=sharp;orthogonalLoop=1;jettySize=auto;html=1;entryX=0.5;entryY=0;entryDx=0;entryDy=0;labelBackgroundColor=default;strokeColor=#B3FF66;strokeWidth=2;fontFamily=Helvetica;fontSize=11;fontColor=default;endArrow=classic;" parent="1" source="SfAEeaAkZnoSVuUluzx7-20" target="acACqqO5Qa5gXnCJQmCN-15" edge="1">
          <mxGeometry relative="1" as="geometry" />
        </mxCell>
        <mxCell id="SfAEeaAkZnoSVuUluzx7-20" value="&lt;span style=&quot;&quot;&gt;QDC&amp;nbsp; A PARTE PARA &lt;br&gt;PISCINA&lt;/span&gt;" style="html=1;rounded=0;shadow=0;comic=0;labelBackgroundColor=none;strokeWidth=2;fontFamily=Verdana;fontSize=12;align=center;shape=mxgraph.ios7ui.horLines;fontColor=#000000;fillColor=#006666;gradientColor=#004C99;gradientDirection=east;" parent="1" vertex="1">
          <mxGeometry x="-2435" y="340" width="135" height="50" as="geometry" />
        </mxCell>
        <mxCell id="SfAEeaAkZnoSVuUluzx7-24" value="&lt;span style=&quot;font-family: Helvetica;&quot;&gt;DUPLEX&lt;/span&gt;" style="html=1;rounded=0;shadow=0;comic=0;labelBackgroundColor=none;strokeWidth=2;fontFamily=Verdana;fontSize=12;align=center;shape=mxgraph.ios7ui.horLines;fontColor=#000000;fillColor=#006666;gradientColor=#004C99;gradientDirection=east;" parent="1" vertex="1">
          <mxGeometry x="-570" y="20" width="135" height="50" as="geometry" />
        </mxCell>
        <mxCell id="acACqqO5Qa5gXnCJQmCN-2" value="PATRIMAR" style="shape=hexagon;perimeter=hexagonPerimeter2;whiteSpace=wrap;html=1;fixedSize=1;fontColor=#000000;fillColor=#66B2FF;" parent="1" vertex="1">
          <mxGeometry x="-3170" y="349" width="120" height="80" as="geometry" />
        </mxCell>
        <mxCell id="SfAEeaAkZnoSVuUluzx7-33" value="MONTERRE" style="shape=hexagon;perimeter=hexagonPerimeter2;whiteSpace=wrap;html=1;fixedSize=1;fontColor=#000000;fillColor=#66B2FF;" parent="1" vertex="1">
          <mxGeometry x="-480" y="410" width="120" height="80" as="geometry" />
        </mxCell>
        <mxCell id="SfAEeaAkZnoSVuUluzx7-40" value="PRIVILÉGE" style="shape=hexagon;perimeter=hexagonPerimeter2;whiteSpace=wrap;html=1;fixedSize=1;fontColor=#000000;fillColor=#66B2FF;" parent="1" vertex="1">
          <mxGeometry x="-1590" y="970" width="120" height="80" as="geometry" />
        </mxCell>
        <mxCell id="SfAEeaAkZnoSVuUluzx7-58" value="CANOPUS" style="shape=hexagon;perimeter=hexagonPerimeter2;whiteSpace=wrap;html=1;fixedSize=1;fontColor=#000000;fillColor=#66B2FF;" parent="1" vertex="1">
          <mxGeometry x="-1590" y="1410" width="120" height="80" as="geometry" />
        </mxCell>
        <mxCell id="SfAEeaAkZnoSVuUluzx7-81" value="UNIQUE" style="swimlane;html=1;fontStyle=0;childLayout=stackLayout;horizontal=1;startSize=26;fillColor=#e0e0e0;horizontalStack=0;resizeParent=1;resizeLast=0;collapsible=1;marginBottom=0;swimlaneFillColor=#ffffff;align=center;rounded=1;shadow=0;comic=0;labelBackgroundColor=none;strokeWidth=1;fontFamily=Verdana;fontSize=12;fontColor=#000000;" parent="1" vertex="1">
          <mxGeometry x="-1040" y="90" width="550" height="259" as="geometry">
            <mxRectangle x="160" y="74" width="90" height="30" as="alternateBounds" />
          </mxGeometry>
        </mxCell>
        <mxCell id="SfAEeaAkZnoSVuUluzx7-90" value="" style="shape=table;html=1;whiteSpace=wrap;startSize=0;container=1;collapsible=0;childLayout=tableLayout;fontFamily=Helvetica;fontSize=11;fontColor=default;fillColor=#006666;gradientColor=#004C99;gradientDirection=east;" parent="SfAEeaAkZnoSVuUluzx7-81" vertex="1">
          <mxGeometry y="26" width="550" height="233" as="geometry" />
        </mxCell>
        <mxCell id="SfAEeaAkZnoSVuUluzx7-91" value="" style="shape=tableRow;horizontal=0;startSize=0;swimlaneHead=0;swimlaneBody=0;top=0;left=0;bottom=0;right=0;collapsible=0;dropTarget=0;fillColor=none;points=[[0,0.5],[1,0.5]];portConstraint=eastwest;fontFamily=Helvetica;fontSize=11;fontColor=default;" parent="SfAEeaAkZnoSVuUluzx7-90" vertex="1">
          <mxGeometry width="550" height="31" as="geometry" />
        </mxCell>
        <mxCell id="SfAEeaAkZnoSVuUluzx7-92" value="ITEM" style="shape=partialRectangle;html=1;whiteSpace=wrap;connectable=0;fillColor=none;top=0;left=0;bottom=0;right=0;overflow=hidden;fontFamily=Helvetica;fontSize=11;fontColor=default;" parent="SfAEeaAkZnoSVuUluzx7-91" vertex="1">
          <mxGeometry width="156" height="31" as="geometry">
            <mxRectangle width="156" height="31" as="alternateBounds" />
          </mxGeometry>
        </mxCell>
        <mxCell id="SfAEeaAkZnoSVuUluzx7-116" value="SEÇÃO" style="shape=partialRectangle;html=1;whiteSpace=wrap;connectable=0;fillColor=none;top=0;left=0;bottom=0;right=0;overflow=hidden;fontFamily=Helvetica;fontSize=11;fontColor=default;" parent="SfAEeaAkZnoSVuUluzx7-91" vertex="1">
          <mxGeometry x="156" width="97" height="31" as="geometry">
            <mxRectangle width="97" height="31" as="alternateBounds" />
          </mxGeometry>
        </mxCell>
        <mxCell id="SfAEeaAkZnoSVuUluzx7-93" value="PROTEÇÃO" style="shape=partialRectangle;html=1;whiteSpace=wrap;connectable=0;fillColor=none;top=0;left=0;bottom=0;right=0;overflow=hidden;fontFamily=Helvetica;fontSize=11;fontColor=default;" parent="SfAEeaAkZnoSVuUluzx7-91" vertex="1">
          <mxGeometry x="253" width="142" height="31" as="geometry">
            <mxRectangle width="142" height="31" as="alternateBounds" />
          </mxGeometry>
        </mxCell>
        <mxCell id="SfAEeaAkZnoSVuUluzx7-94" value="N° FASES" style="shape=partialRectangle;html=1;whiteSpace=wrap;connectable=0;fillColor=none;top=0;left=0;bottom=0;right=0;overflow=hidden;fontFamily=Helvetica;fontSize=11;fontColor=default;" parent="SfAEeaAkZnoSVuUluzx7-91" vertex="1">
          <mxGeometry x="395" width="78" height="31" as="geometry">
            <mxRectangle width="78" height="31" as="alternateBounds" />
          </mxGeometry>
        </mxCell>
        <mxCell id="SfAEeaAkZnoSVuUluzx7-103" value="CARGA(W)" style="shape=partialRectangle;html=1;whiteSpace=wrap;connectable=0;fillColor=none;top=0;left=0;bottom=0;right=0;overflow=hidden;fontFamily=Helvetica;fontSize=11;fontColor=default;" parent="SfAEeaAkZnoSVuUluzx7-91" vertex="1">
          <mxGeometry x="473" width="77" height="31" as="geometry">
            <mxRectangle width="77" height="31" as="alternateBounds" />
          </mxGeometry>
        </mxCell>
        <mxCell id="SfAEeaAkZnoSVuUluzx7-95" value="" style="shape=tableRow;horizontal=0;startSize=0;swimlaneHead=0;swimlaneBody=0;top=0;left=0;bottom=0;right=0;collapsible=0;dropTarget=0;fillColor=none;points=[[0,0.5],[1,0.5]];portConstraint=eastwest;fontFamily=Helvetica;fontSize=11;fontColor=default;" parent="SfAEeaAkZnoSVuUluzx7-90" vertex="1">
          <mxGeometry y="31" width="550" height="52" as="geometry" />
        </mxCell>
        <mxCell id="SfAEeaAkZnoSVuUluzx7-96" value="&lt;span style=&quot;color: rgb(0, 0, 0); font-size: 12px; text-align: left;&quot;&gt;SAUNA&lt;/span&gt;&lt;span style=&quot;color: rgb(0, 0, 0); font-size: 12px; text-align: left;&quot;&gt; &lt;/span&gt;&lt;span style=&quot;color: rgb(0, 0, 0); font-size: 12px; text-align: left;&quot;&gt;&amp;nbsp;&lt;/span&gt;" style="shape=partialRectangle;html=1;whiteSpace=wrap;connectable=0;fillColor=none;top=0;left=0;bottom=0;right=0;overflow=hidden;fontFamily=Helvetica;fontSize=11;fontColor=default;" parent="SfAEeaAkZnoSVuUluzx7-95" vertex="1">
          <mxGeometry width="156" height="52" as="geometry">
            <mxRectangle width="156" height="52" as="alternateBounds" />
          </mxGeometry>
        </mxCell>
        <mxCell id="SfAEeaAkZnoSVuUluzx7-117" value="&lt;span style=&quot;color: rgb(0, 0, 0); font-size: 12px; text-align: left;&quot;&gt;#10.00&amp;nbsp;&lt;/span&gt;&lt;span style=&quot;color: rgb(0, 0, 0); font-size: 12px; text-align: left;&quot;&gt;&amp;nbsp;&lt;/span&gt;" style="shape=partialRectangle;html=1;whiteSpace=wrap;connectable=0;fillColor=none;top=0;left=0;bottom=0;right=0;overflow=hidden;fontFamily=Helvetica;fontSize=11;fontColor=default;" parent="SfAEeaAkZnoSVuUluzx7-95" vertex="1">
          <mxGeometry x="156" width="97" height="52" as="geometry">
            <mxRectangle width="97" height="52" as="alternateBounds" />
          </mxGeometry>
        </mxCell>
        <mxCell id="SfAEeaAkZnoSVuUluzx7-97" value="&lt;span style=&quot;color: rgb(0, 0, 0); font-size: 12px; text-align: left;&quot;&gt;&amp;nbsp; 40A&amp;nbsp; &amp;nbsp; &amp;nbsp;&lt;/span&gt;&lt;span style=&quot;color: rgb(0, 0, 0); font-size: 12px; text-align: left;&quot;&gt;&amp;nbsp;&lt;/span&gt;" style="shape=partialRectangle;html=1;whiteSpace=wrap;connectable=0;fillColor=none;top=0;left=0;bottom=0;right=0;overflow=hidden;fontFamily=Helvetica;fontSize=11;fontColor=default;" parent="SfAEeaAkZnoSVuUluzx7-95" vertex="1">
          <mxGeometry x="253" width="142" height="52" as="geometry">
            <mxRectangle width="142" height="52" as="alternateBounds" />
          </mxGeometry>
        </mxCell>
        <mxCell id="SfAEeaAkZnoSVuUluzx7-98" value="&lt;span style=&quot;color: rgb(0, 0, 0); font-size: 12px; text-align: left;&quot;&gt;&amp;nbsp; &amp;nbsp; &amp;nbsp;3F&amp;nbsp; &amp;nbsp; &amp;nbsp;&lt;/span&gt;&lt;span style=&quot;color: rgb(0, 0, 0); font-size: 12px; text-align: left;&quot;&gt;&amp;nbsp;&lt;/span&gt;" style="shape=partialRectangle;html=1;whiteSpace=wrap;connectable=0;fillColor=none;top=0;left=0;bottom=0;right=0;overflow=hidden;fontFamily=Helvetica;fontSize=11;fontColor=default;" parent="SfAEeaAkZnoSVuUluzx7-95" vertex="1">
          <mxGeometry x="395" width="78" height="52" as="geometry">
            <mxRectangle width="78" height="52" as="alternateBounds" />
          </mxGeometry>
        </mxCell>
        <mxCell id="SfAEeaAkZnoSVuUluzx7-104" value="12KW" style="shape=partialRectangle;html=1;whiteSpace=wrap;connectable=0;fillColor=none;top=0;left=0;bottom=0;right=0;overflow=hidden;fontFamily=Helvetica;fontSize=11;fontColor=default;" parent="SfAEeaAkZnoSVuUluzx7-95" vertex="1">
          <mxGeometry x="473" width="77" height="52" as="geometry">
            <mxRectangle width="77" height="52" as="alternateBounds" />
          </mxGeometry>
        </mxCell>
        <mxCell id="SfAEeaAkZnoSVuUluzx7-99" value="" style="shape=tableRow;horizontal=0;startSize=0;swimlaneHead=0;swimlaneBody=0;top=0;left=0;bottom=0;right=0;collapsible=0;dropTarget=0;fillColor=none;points=[[0,0.5],[1,0.5]];portConstraint=eastwest;fontFamily=Helvetica;fontSize=11;fontColor=default;" parent="SfAEeaAkZnoSVuUluzx7-90" vertex="1">
          <mxGeometry y="83" width="550" height="50" as="geometry" />
        </mxCell>
        <mxCell id="SfAEeaAkZnoSVuUluzx7-100" value="&lt;span style=&quot;color: rgb(0, 0, 0); font-size: 12px; text-align: left;&quot;&gt;B. CALOR&lt;/span&gt;&lt;span style=&quot;color: rgb(0, 0, 0); font-size: 12px; text-align: left;&quot;&gt;   &lt;/span&gt;" style="shape=partialRectangle;html=1;whiteSpace=wrap;connectable=0;fillColor=none;top=0;left=0;bottom=0;right=0;overflow=hidden;fontFamily=Helvetica;fontSize=11;fontColor=default;" parent="SfAEeaAkZnoSVuUluzx7-99" vertex="1">
          <mxGeometry width="156" height="50" as="geometry">
            <mxRectangle width="156" height="50" as="alternateBounds" />
          </mxGeometry>
        </mxCell>
        <mxCell id="SfAEeaAkZnoSVuUluzx7-118" value="&lt;span style=&quot;color: rgb(0, 0, 0); font-size: 12px; text-align: left;&quot;&gt;#4.00&amp;nbsp;&lt;/span&gt;" style="shape=partialRectangle;html=1;whiteSpace=wrap;connectable=0;fillColor=none;top=0;left=0;bottom=0;right=0;overflow=hidden;fontFamily=Helvetica;fontSize=11;fontColor=default;" parent="SfAEeaAkZnoSVuUluzx7-99" vertex="1">
          <mxGeometry x="156" width="97" height="50" as="geometry">
            <mxRectangle width="97" height="50" as="alternateBounds" />
          </mxGeometry>
        </mxCell>
        <mxCell id="SfAEeaAkZnoSVuUluzx7-101" value="&lt;span style=&quot;color: rgb(0, 0, 0); font-size: 12px; text-align: left;&quot;&gt;25A&amp;nbsp;&lt;/span&gt;" style="shape=partialRectangle;html=1;whiteSpace=wrap;connectable=0;fillColor=none;top=0;left=0;bottom=0;right=0;overflow=hidden;fontFamily=Helvetica;fontSize=11;fontColor=default;" parent="SfAEeaAkZnoSVuUluzx7-99" vertex="1">
          <mxGeometry x="253" width="142" height="50" as="geometry">
            <mxRectangle width="142" height="50" as="alternateBounds" />
          </mxGeometry>
        </mxCell>
        <mxCell id="SfAEeaAkZnoSVuUluzx7-102" value="&lt;span style=&quot;color: rgb(0, 0, 0); font-size: 12px; text-align: left;&quot;&gt;3F&lt;/span&gt;" style="shape=partialRectangle;html=1;whiteSpace=wrap;connectable=0;fillColor=none;top=0;left=0;bottom=0;right=0;overflow=hidden;pointerEvents=1;fontFamily=Helvetica;fontSize=11;fontColor=default;" parent="SfAEeaAkZnoSVuUluzx7-99" vertex="1">
          <mxGeometry x="395" width="78" height="50" as="geometry">
            <mxRectangle width="78" height="50" as="alternateBounds" />
          </mxGeometry>
        </mxCell>
        <mxCell id="SfAEeaAkZnoSVuUluzx7-105" value="6KW" style="shape=partialRectangle;html=1;whiteSpace=wrap;connectable=0;fillColor=none;top=0;left=0;bottom=0;right=0;overflow=hidden;pointerEvents=1;fontFamily=Helvetica;fontSize=11;fontColor=default;" parent="SfAEeaAkZnoSVuUluzx7-99" vertex="1">
          <mxGeometry x="473" width="77" height="50" as="geometry">
            <mxRectangle width="77" height="50" as="alternateBounds" />
          </mxGeometry>
        </mxCell>
        <mxCell id="SfAEeaAkZnoSVuUluzx7-106" style="shape=tableRow;horizontal=0;startSize=0;swimlaneHead=0;swimlaneBody=0;top=0;left=0;bottom=0;right=0;collapsible=0;dropTarget=0;fillColor=none;points=[[0,0.5],[1,0.5]];portConstraint=eastwest;fontFamily=Helvetica;fontSize=11;fontColor=default;" parent="SfAEeaAkZnoSVuUluzx7-90" vertex="1">
          <mxGeometry y="133" width="550" height="50" as="geometry" />
        </mxCell>
        <mxCell id="SfAEeaAkZnoSVuUluzx7-107" value="&lt;span style=&quot;color: rgb(0, 0, 0); font-size: 12px; text-align: left;&quot;&gt;ADEGA&amp;nbsp;&lt;/span&gt;&lt;span style=&quot;color: rgb(0, 0, 0); font-size: 12px; text-align: left;&quot;&gt;   &lt;/span&gt;&lt;span style=&quot;color: rgb(0, 0, 0); font-size: 12px; text-align: left;&quot;&gt; &lt;/span&gt;" style="shape=partialRectangle;html=1;whiteSpace=wrap;connectable=0;fillColor=none;top=0;left=0;bottom=0;right=0;overflow=hidden;fontFamily=Helvetica;fontSize=11;fontColor=default;" parent="SfAEeaAkZnoSVuUluzx7-106" vertex="1">
          <mxGeometry width="156" height="50" as="geometry">
            <mxRectangle width="156" height="50" as="alternateBounds" />
          </mxGeometry>
        </mxCell>
        <mxCell id="SfAEeaAkZnoSVuUluzx7-119" value="#4.00" style="shape=partialRectangle;html=1;whiteSpace=wrap;connectable=0;fillColor=none;top=0;left=0;bottom=0;right=0;overflow=hidden;fontFamily=Helvetica;fontSize=11;fontColor=default;" parent="SfAEeaAkZnoSVuUluzx7-106" vertex="1">
          <mxGeometry x="156" width="97" height="50" as="geometry">
            <mxRectangle width="97" height="50" as="alternateBounds" />
          </mxGeometry>
        </mxCell>
        <mxCell id="SfAEeaAkZnoSVuUluzx7-108" value="25A" style="shape=partialRectangle;html=1;whiteSpace=wrap;connectable=0;fillColor=none;top=0;left=0;bottom=0;right=0;overflow=hidden;fontFamily=Helvetica;fontSize=11;fontColor=default;" parent="SfAEeaAkZnoSVuUluzx7-106" vertex="1">
          <mxGeometry x="253" width="142" height="50" as="geometry">
            <mxRectangle width="142" height="50" as="alternateBounds" />
          </mxGeometry>
        </mxCell>
        <mxCell id="SfAEeaAkZnoSVuUluzx7-109" value="2F" style="shape=partialRectangle;html=1;whiteSpace=wrap;connectable=0;fillColor=none;top=0;left=0;bottom=0;right=0;overflow=hidden;pointerEvents=1;fontFamily=Helvetica;fontSize=11;fontColor=default;" parent="SfAEeaAkZnoSVuUluzx7-106" vertex="1">
          <mxGeometry x="395" width="78" height="50" as="geometry">
            <mxRectangle width="78" height="50" as="alternateBounds" />
          </mxGeometry>
        </mxCell>
        <mxCell id="SfAEeaAkZnoSVuUluzx7-110" value="4KW" style="shape=partialRectangle;html=1;whiteSpace=wrap;connectable=0;fillColor=none;top=0;left=0;bottom=0;right=0;overflow=hidden;pointerEvents=1;fontFamily=Helvetica;fontSize=11;fontColor=default;" parent="SfAEeaAkZnoSVuUluzx7-106" vertex="1">
          <mxGeometry x="473" width="77" height="50" as="geometry">
            <mxRectangle width="77" height="50" as="alternateBounds" />
          </mxGeometry>
        </mxCell>
        <mxCell id="SfAEeaAkZnoSVuUluzx7-111" style="shape=tableRow;horizontal=0;startSize=0;swimlaneHead=0;swimlaneBody=0;top=0;left=0;bottom=0;right=0;collapsible=0;dropTarget=0;fillColor=none;points=[[0,0.5],[1,0.5]];portConstraint=eastwest;fontFamily=Helvetica;fontSize=11;fontColor=default;" parent="SfAEeaAkZnoSVuUluzx7-90" vertex="1">
          <mxGeometry y="183" width="550" height="50" as="geometry" />
        </mxCell>
        <mxCell id="SfAEeaAkZnoSVuUluzx7-112" value="&lt;span style=&quot;color: rgb(0, 0, 0); font-size: 12px; text-align: left;&quot;&gt;M. CARGA&amp;nbsp;&lt;/span&gt;&lt;span style=&quot;color: rgb(0, 0, 0); font-size: 12px; text-align: left;&quot;&gt; &lt;/span&gt;" style="shape=partialRectangle;html=1;whiteSpace=wrap;connectable=0;fillColor=none;top=0;left=0;bottom=0;right=0;overflow=hidden;fontFamily=Helvetica;fontSize=11;fontColor=default;" parent="SfAEeaAkZnoSVuUluzx7-111" vertex="1">
          <mxGeometry width="156" height="50" as="geometry">
            <mxRectangle width="156" height="50" as="alternateBounds" />
          </mxGeometry>
        </mxCell>
        <mxCell id="SfAEeaAkZnoSVuUluzx7-120" value="#6.00" style="shape=partialRectangle;html=1;whiteSpace=wrap;connectable=0;fillColor=none;top=0;left=0;bottom=0;right=0;overflow=hidden;fontFamily=Helvetica;fontSize=11;fontColor=default;" parent="SfAEeaAkZnoSVuUluzx7-111" vertex="1">
          <mxGeometry x="156" width="97" height="50" as="geometry">
            <mxRectangle width="97" height="50" as="alternateBounds" />
          </mxGeometry>
        </mxCell>
        <mxCell id="SfAEeaAkZnoSVuUluzx7-113" value="32A" style="shape=partialRectangle;html=1;whiteSpace=wrap;connectable=0;fillColor=none;top=0;left=0;bottom=0;right=0;overflow=hidden;fontFamily=Helvetica;fontSize=11;fontColor=default;" parent="SfAEeaAkZnoSVuUluzx7-111" vertex="1">
          <mxGeometry x="253" width="142" height="50" as="geometry">
            <mxRectangle width="142" height="50" as="alternateBounds" />
          </mxGeometry>
        </mxCell>
        <mxCell id="SfAEeaAkZnoSVuUluzx7-114" value="3F" style="shape=partialRectangle;html=1;whiteSpace=wrap;connectable=0;fillColor=none;top=0;left=0;bottom=0;right=0;overflow=hidden;pointerEvents=1;fontFamily=Helvetica;fontSize=11;fontColor=default;" parent="SfAEeaAkZnoSVuUluzx7-111" vertex="1">
          <mxGeometry x="395" width="78" height="50" as="geometry">
            <mxRectangle width="78" height="50" as="alternateBounds" />
          </mxGeometry>
        </mxCell>
        <mxCell id="SfAEeaAkZnoSVuUluzx7-115" value="3.1KW" style="shape=partialRectangle;html=1;whiteSpace=wrap;connectable=0;fillColor=none;top=0;left=0;bottom=0;right=0;overflow=hidden;pointerEvents=1;fontFamily=Helvetica;fontSize=11;fontColor=default;" parent="SfAEeaAkZnoSVuUluzx7-111" vertex="1">
          <mxGeometry x="473" width="77" height="50" as="geometry">
            <mxRectangle width="77" height="50" as="alternateBounds" />
          </mxGeometry>
        </mxCell>
        <mxCell id="SfAEeaAkZnoSVuUluzx7-121" value="LOURDES" style="swimlane;html=1;fontStyle=0;childLayout=stackLayout;horizontal=1;startSize=26;fillColor=#e0e0e0;horizontalStack=0;resizeParent=1;resizeLast=0;collapsible=1;marginBottom=0;swimlaneFillColor=#ffffff;align=center;rounded=1;shadow=0;comic=0;labelBackgroundColor=none;strokeWidth=1;fontFamily=Verdana;fontSize=12;fontColor=#000000;" parent="1" vertex="1">
          <mxGeometry x="-2170" y="595" width="550" height="209" as="geometry">
            <mxRectangle x="160" y="74" width="90" height="30" as="alternateBounds" />
          </mxGeometry>
        </mxCell>
        <mxCell id="SfAEeaAkZnoSVuUluzx7-122" value="" style="shape=table;html=1;whiteSpace=wrap;startSize=0;container=1;collapsible=0;childLayout=tableLayout;fontFamily=Helvetica;fontSize=11;fontColor=default;fillColor=#006666;gradientColor=#004C99;gradientDirection=east;" parent="SfAEeaAkZnoSVuUluzx7-121" vertex="1">
          <mxGeometry y="26" width="550" height="183" as="geometry" />
        </mxCell>
        <mxCell id="SfAEeaAkZnoSVuUluzx7-123" value="" style="shape=tableRow;horizontal=0;startSize=0;swimlaneHead=0;swimlaneBody=0;top=0;left=0;bottom=0;right=0;collapsible=0;dropTarget=0;fillColor=none;points=[[0,0.5],[1,0.5]];portConstraint=eastwest;fontFamily=Helvetica;fontSize=11;fontColor=default;" parent="SfAEeaAkZnoSVuUluzx7-122" vertex="1">
          <mxGeometry width="550" height="31" as="geometry" />
        </mxCell>
        <mxCell id="SfAEeaAkZnoSVuUluzx7-124" value="ITEM" style="shape=partialRectangle;html=1;whiteSpace=wrap;connectable=0;fillColor=none;top=0;left=0;bottom=0;right=0;overflow=hidden;fontFamily=Helvetica;fontSize=11;fontColor=default;" parent="SfAEeaAkZnoSVuUluzx7-123" vertex="1">
          <mxGeometry width="156" height="31" as="geometry">
            <mxRectangle width="156" height="31" as="alternateBounds" />
          </mxGeometry>
        </mxCell>
        <mxCell id="SfAEeaAkZnoSVuUluzx7-125" value="SEÇÃO" style="shape=partialRectangle;html=1;whiteSpace=wrap;connectable=0;fillColor=none;top=0;left=0;bottom=0;right=0;overflow=hidden;fontFamily=Helvetica;fontSize=11;fontColor=default;" parent="SfAEeaAkZnoSVuUluzx7-123" vertex="1">
          <mxGeometry x="156" width="97" height="31" as="geometry">
            <mxRectangle width="97" height="31" as="alternateBounds" />
          </mxGeometry>
        </mxCell>
        <mxCell id="SfAEeaAkZnoSVuUluzx7-126" value="PROTEÇÃO" style="shape=partialRectangle;html=1;whiteSpace=wrap;connectable=0;fillColor=none;top=0;left=0;bottom=0;right=0;overflow=hidden;fontFamily=Helvetica;fontSize=11;fontColor=default;" parent="SfAEeaAkZnoSVuUluzx7-123" vertex="1">
          <mxGeometry x="253" width="142" height="31" as="geometry">
            <mxRectangle width="142" height="31" as="alternateBounds" />
          </mxGeometry>
        </mxCell>
        <mxCell id="SfAEeaAkZnoSVuUluzx7-127" value="N° FASES" style="shape=partialRectangle;html=1;whiteSpace=wrap;connectable=0;fillColor=none;top=0;left=0;bottom=0;right=0;overflow=hidden;fontFamily=Helvetica;fontSize=11;fontColor=default;" parent="SfAEeaAkZnoSVuUluzx7-123" vertex="1">
          <mxGeometry x="395" width="78" height="31" as="geometry">
            <mxRectangle width="78" height="31" as="alternateBounds" />
          </mxGeometry>
        </mxCell>
        <mxCell id="SfAEeaAkZnoSVuUluzx7-128" value="CARGA(W)" style="shape=partialRectangle;html=1;whiteSpace=wrap;connectable=0;fillColor=none;top=0;left=0;bottom=0;right=0;overflow=hidden;fontFamily=Helvetica;fontSize=11;fontColor=default;" parent="SfAEeaAkZnoSVuUluzx7-123" vertex="1">
          <mxGeometry x="473" width="77" height="31" as="geometry">
            <mxRectangle width="77" height="31" as="alternateBounds" />
          </mxGeometry>
        </mxCell>
        <mxCell id="SfAEeaAkZnoSVuUluzx7-129" value="" style="shape=tableRow;horizontal=0;startSize=0;swimlaneHead=0;swimlaneBody=0;top=0;left=0;bottom=0;right=0;collapsible=0;dropTarget=0;fillColor=none;points=[[0,0.5],[1,0.5]];portConstraint=eastwest;fontFamily=Helvetica;fontSize=11;fontColor=default;" parent="SfAEeaAkZnoSVuUluzx7-122" vertex="1">
          <mxGeometry y="31" width="550" height="52" as="geometry" />
        </mxCell>
        <mxCell id="SfAEeaAkZnoSVuUluzx7-130" value="&lt;span style=&quot;color: rgb(0, 0, 0); font-size: 12px; text-align: left;&quot;&gt;SAUNA&lt;/span&gt;&lt;span style=&quot;color: rgb(0, 0, 0); font-size: 12px; text-align: left;&quot;&gt; &lt;/span&gt;&lt;span style=&quot;color: rgb(0, 0, 0); font-size: 12px; text-align: left;&quot;&gt;&amp;nbsp;&lt;/span&gt;" style="shape=partialRectangle;html=1;whiteSpace=wrap;connectable=0;fillColor=none;top=0;left=0;bottom=0;right=0;overflow=hidden;fontFamily=Helvetica;fontSize=11;fontColor=default;" parent="SfAEeaAkZnoSVuUluzx7-129" vertex="1">
          <mxGeometry width="156" height="52" as="geometry">
            <mxRectangle width="156" height="52" as="alternateBounds" />
          </mxGeometry>
        </mxCell>
        <mxCell id="SfAEeaAkZnoSVuUluzx7-131" value="&lt;span style=&quot;color: rgb(0, 0, 0); font-size: 12px; text-align: left;&quot;&gt;#16.00&amp;nbsp;&lt;/span&gt;&lt;span style=&quot;color: rgb(0, 0, 0); font-size: 12px; text-align: left;&quot;&gt;&amp;nbsp;&lt;/span&gt;" style="shape=partialRectangle;html=1;whiteSpace=wrap;connectable=0;fillColor=none;top=0;left=0;bottom=0;right=0;overflow=hidden;fontFamily=Helvetica;fontSize=11;fontColor=default;" parent="SfAEeaAkZnoSVuUluzx7-129" vertex="1">
          <mxGeometry x="156" width="97" height="52" as="geometry">
            <mxRectangle width="97" height="52" as="alternateBounds" />
          </mxGeometry>
        </mxCell>
        <mxCell id="SfAEeaAkZnoSVuUluzx7-132" value="&lt;span style=&quot;color: rgb(0, 0, 0); font-size: 12px; text-align: left;&quot;&gt;&amp;nbsp; 50A&amp;nbsp; &amp;nbsp; &amp;nbsp;&lt;/span&gt;&lt;span style=&quot;color: rgb(0, 0, 0); font-size: 12px; text-align: left;&quot;&gt;&amp;nbsp;&lt;/span&gt;" style="shape=partialRectangle;html=1;whiteSpace=wrap;connectable=0;fillColor=none;top=0;left=0;bottom=0;right=0;overflow=hidden;fontFamily=Helvetica;fontSize=11;fontColor=default;" parent="SfAEeaAkZnoSVuUluzx7-129" vertex="1">
          <mxGeometry x="253" width="142" height="52" as="geometry">
            <mxRectangle width="142" height="52" as="alternateBounds" />
          </mxGeometry>
        </mxCell>
        <mxCell id="SfAEeaAkZnoSVuUluzx7-133" value="&lt;span style=&quot;color: rgb(0, 0, 0); font-size: 12px; text-align: left;&quot;&gt;&amp;nbsp; &amp;nbsp; &amp;nbsp;3F&amp;nbsp; &amp;nbsp; &amp;nbsp;&lt;/span&gt;&lt;span style=&quot;color: rgb(0, 0, 0); font-size: 12px; text-align: left;&quot;&gt;&amp;nbsp;&lt;/span&gt;" style="shape=partialRectangle;html=1;whiteSpace=wrap;connectable=0;fillColor=none;top=0;left=0;bottom=0;right=0;overflow=hidden;fontFamily=Helvetica;fontSize=11;fontColor=default;" parent="SfAEeaAkZnoSVuUluzx7-129" vertex="1">
          <mxGeometry x="395" width="78" height="52" as="geometry">
            <mxRectangle width="78" height="52" as="alternateBounds" />
          </mxGeometry>
        </mxCell>
        <mxCell id="SfAEeaAkZnoSVuUluzx7-134" value="18KW" style="shape=partialRectangle;html=1;whiteSpace=wrap;connectable=0;fillColor=none;top=0;left=0;bottom=0;right=0;overflow=hidden;fontFamily=Helvetica;fontSize=11;fontColor=default;" parent="SfAEeaAkZnoSVuUluzx7-129" vertex="1">
          <mxGeometry x="473" width="77" height="52" as="geometry">
            <mxRectangle width="77" height="52" as="alternateBounds" />
          </mxGeometry>
        </mxCell>
        <mxCell id="SfAEeaAkZnoSVuUluzx7-135" value="" style="shape=tableRow;horizontal=0;startSize=0;swimlaneHead=0;swimlaneBody=0;top=0;left=0;bottom=0;right=0;collapsible=0;dropTarget=0;fillColor=none;points=[[0,0.5],[1,0.5]];portConstraint=eastwest;fontFamily=Helvetica;fontSize=11;fontColor=default;" parent="SfAEeaAkZnoSVuUluzx7-122" vertex="1">
          <mxGeometry y="83" width="550" height="50" as="geometry" />
        </mxCell>
        <mxCell id="SfAEeaAkZnoSVuUluzx7-136" value="&lt;div style=&quot;text-align: left;&quot;&gt;&lt;span style=&quot;background-color: initial; font-size: 12px;&quot;&gt;&lt;font color=&quot;#000000&quot;&gt;AQUECIMENTO&lt;/font&gt;&lt;/span&gt;&lt;/div&gt;" style="shape=partialRectangle;html=1;whiteSpace=wrap;connectable=0;fillColor=none;top=0;left=0;bottom=0;right=0;overflow=hidden;fontFamily=Helvetica;fontSize=11;fontColor=default;" parent="SfAEeaAkZnoSVuUluzx7-135" vertex="1">
          <mxGeometry width="156" height="50" as="geometry">
            <mxRectangle width="156" height="50" as="alternateBounds" />
          </mxGeometry>
        </mxCell>
        <mxCell id="SfAEeaAkZnoSVuUluzx7-137" value="&lt;span style=&quot;color: rgb(0, 0, 0); font-size: 12px; text-align: left;&quot;&gt;#4.00&amp;nbsp;&lt;/span&gt;" style="shape=partialRectangle;html=1;whiteSpace=wrap;connectable=0;fillColor=none;top=0;left=0;bottom=0;right=0;overflow=hidden;fontFamily=Helvetica;fontSize=11;fontColor=default;" parent="SfAEeaAkZnoSVuUluzx7-135" vertex="1">
          <mxGeometry x="156" width="97" height="50" as="geometry">
            <mxRectangle width="97" height="50" as="alternateBounds" />
          </mxGeometry>
        </mxCell>
        <mxCell id="SfAEeaAkZnoSVuUluzx7-138" value="&lt;span style=&quot;color: rgb(0, 0, 0); font-size: 12px; text-align: left;&quot;&gt;25A&amp;nbsp;&lt;/span&gt;" style="shape=partialRectangle;html=1;whiteSpace=wrap;connectable=0;fillColor=none;top=0;left=0;bottom=0;right=0;overflow=hidden;fontFamily=Helvetica;fontSize=11;fontColor=default;" parent="SfAEeaAkZnoSVuUluzx7-135" vertex="1">
          <mxGeometry x="253" width="142" height="50" as="geometry">
            <mxRectangle width="142" height="50" as="alternateBounds" />
          </mxGeometry>
        </mxCell>
        <mxCell id="SfAEeaAkZnoSVuUluzx7-139" value="&lt;span style=&quot;color: rgb(0, 0, 0); font-size: 12px; text-align: left;&quot;&gt;3F&lt;/span&gt;" style="shape=partialRectangle;html=1;whiteSpace=wrap;connectable=0;fillColor=none;top=0;left=0;bottom=0;right=0;overflow=hidden;pointerEvents=1;fontFamily=Helvetica;fontSize=11;fontColor=default;" parent="SfAEeaAkZnoSVuUluzx7-135" vertex="1">
          <mxGeometry x="395" width="78" height="50" as="geometry">
            <mxRectangle width="78" height="50" as="alternateBounds" />
          </mxGeometry>
        </mxCell>
        <mxCell id="SfAEeaAkZnoSVuUluzx7-140" value="5KW" style="shape=partialRectangle;html=1;whiteSpace=wrap;connectable=0;fillColor=none;top=0;left=0;bottom=0;right=0;overflow=hidden;pointerEvents=1;fontFamily=Helvetica;fontSize=11;fontColor=default;" parent="SfAEeaAkZnoSVuUluzx7-135" vertex="1">
          <mxGeometry x="473" width="77" height="50" as="geometry">
            <mxRectangle width="77" height="50" as="alternateBounds" />
          </mxGeometry>
        </mxCell>
        <mxCell id="SfAEeaAkZnoSVuUluzx7-141" style="shape=tableRow;horizontal=0;startSize=0;swimlaneHead=0;swimlaneBody=0;top=0;left=0;bottom=0;right=0;collapsible=0;dropTarget=0;fillColor=none;points=[[0,0.5],[1,0.5]];portConstraint=eastwest;fontFamily=Helvetica;fontSize=11;fontColor=default;" parent="SfAEeaAkZnoSVuUluzx7-122" vertex="1">
          <mxGeometry y="133" width="550" height="50" as="geometry" />
        </mxCell>
        <mxCell id="SfAEeaAkZnoSVuUluzx7-142" value="&lt;span style=&quot;color: rgb(0, 0, 0); font-size: 12px; text-align: left;&quot;&gt;CONDENSADORA&lt;/span&gt;&lt;span style=&quot;color: rgb(0, 0, 0); font-size: 12px; text-align: left;&quot;&gt;&lt;/span&gt;&lt;span style=&quot;color: rgb(0, 0, 0); font-size: 12px; text-align: left;&quot;&gt;&lt;/span&gt;" style="shape=partialRectangle;html=1;whiteSpace=wrap;connectable=0;fillColor=none;top=0;left=0;bottom=0;right=0;overflow=hidden;fontFamily=Helvetica;fontSize=11;fontColor=default;" parent="SfAEeaAkZnoSVuUluzx7-141" vertex="1">
          <mxGeometry width="156" height="50" as="geometry">
            <mxRectangle width="156" height="50" as="alternateBounds" />
          </mxGeometry>
        </mxCell>
        <mxCell id="SfAEeaAkZnoSVuUluzx7-143" value="#50.00" style="shape=partialRectangle;html=1;whiteSpace=wrap;connectable=0;fillColor=none;top=0;left=0;bottom=0;right=0;overflow=hidden;fontFamily=Helvetica;fontSize=11;fontColor=default;" parent="SfAEeaAkZnoSVuUluzx7-141" vertex="1">
          <mxGeometry x="156" width="97" height="50" as="geometry">
            <mxRectangle width="97" height="50" as="alternateBounds" />
          </mxGeometry>
        </mxCell>
        <mxCell id="SfAEeaAkZnoSVuUluzx7-144" value="125A" style="shape=partialRectangle;html=1;whiteSpace=wrap;connectable=0;fillColor=none;top=0;left=0;bottom=0;right=0;overflow=hidden;fontFamily=Helvetica;fontSize=11;fontColor=default;" parent="SfAEeaAkZnoSVuUluzx7-141" vertex="1">
          <mxGeometry x="253" width="142" height="50" as="geometry">
            <mxRectangle width="142" height="50" as="alternateBounds" />
          </mxGeometry>
        </mxCell>
        <mxCell id="SfAEeaAkZnoSVuUluzx7-145" value="3F" style="shape=partialRectangle;html=1;whiteSpace=wrap;connectable=0;fillColor=none;top=0;left=0;bottom=0;right=0;overflow=hidden;pointerEvents=1;fontFamily=Helvetica;fontSize=11;fontColor=default;" parent="SfAEeaAkZnoSVuUluzx7-141" vertex="1">
          <mxGeometry x="395" width="78" height="50" as="geometry">
            <mxRectangle width="78" height="50" as="alternateBounds" />
          </mxGeometry>
        </mxCell>
        <mxCell id="SfAEeaAkZnoSVuUluzx7-146" value="41KW" style="shape=partialRectangle;html=1;whiteSpace=wrap;connectable=0;fillColor=none;top=0;left=0;bottom=0;right=0;overflow=hidden;pointerEvents=1;fontFamily=Helvetica;fontSize=11;fontColor=default;" parent="SfAEeaAkZnoSVuUluzx7-141" vertex="1">
          <mxGeometry x="473" width="77" height="50" as="geometry">
            <mxRectangle width="77" height="50" as="alternateBounds" />
          </mxGeometry>
        </mxCell>
        <mxCell id="SfAEeaAkZnoSVuUluzx7-154" value="SANTÉ&amp;nbsp;" style="swimlane;html=1;fontStyle=0;childLayout=stackLayout;horizontal=1;startSize=26;fillColor=#e0e0e0;horizontalStack=0;resizeParent=1;resizeLast=0;collapsible=1;marginBottom=0;swimlaneFillColor=#ffffff;align=center;rounded=1;shadow=0;comic=0;labelBackgroundColor=none;strokeWidth=1;fontFamily=Verdana;fontSize=12;fontColor=#000000;" parent="1" vertex="1">
          <mxGeometry x="-2170" y="110" width="550" height="209" as="geometry">
            <mxRectangle x="160" y="74" width="90" height="30" as="alternateBounds" />
          </mxGeometry>
        </mxCell>
        <mxCell id="SfAEeaAkZnoSVuUluzx7-155" value="" style="shape=table;html=1;whiteSpace=wrap;startSize=0;container=1;collapsible=0;childLayout=tableLayout;fontFamily=Helvetica;fontSize=11;fontColor=default;fillColor=#006666;gradientColor=#004C99;gradientDirection=east;" parent="SfAEeaAkZnoSVuUluzx7-154" vertex="1">
          <mxGeometry y="26" width="550" height="183" as="geometry" />
        </mxCell>
        <mxCell id="SfAEeaAkZnoSVuUluzx7-156" value="" style="shape=tableRow;horizontal=0;startSize=0;swimlaneHead=0;swimlaneBody=0;top=0;left=0;bottom=0;right=0;collapsible=0;dropTarget=0;fillColor=none;points=[[0,0.5],[1,0.5]];portConstraint=eastwest;fontFamily=Helvetica;fontSize=11;fontColor=default;" parent="SfAEeaAkZnoSVuUluzx7-155" vertex="1">
          <mxGeometry width="550" height="31" as="geometry" />
        </mxCell>
        <mxCell id="SfAEeaAkZnoSVuUluzx7-157" value="ITEM" style="shape=partialRectangle;html=1;whiteSpace=wrap;connectable=0;fillColor=none;top=0;left=0;bottom=0;right=0;overflow=hidden;fontFamily=Helvetica;fontSize=11;fontColor=default;" parent="SfAEeaAkZnoSVuUluzx7-156" vertex="1">
          <mxGeometry width="156" height="31" as="geometry">
            <mxRectangle width="156" height="31" as="alternateBounds" />
          </mxGeometry>
        </mxCell>
        <mxCell id="SfAEeaAkZnoSVuUluzx7-158" value="SEÇÃO" style="shape=partialRectangle;html=1;whiteSpace=wrap;connectable=0;fillColor=none;top=0;left=0;bottom=0;right=0;overflow=hidden;fontFamily=Helvetica;fontSize=11;fontColor=default;" parent="SfAEeaAkZnoSVuUluzx7-156" vertex="1">
          <mxGeometry x="156" width="97" height="31" as="geometry">
            <mxRectangle width="97" height="31" as="alternateBounds" />
          </mxGeometry>
        </mxCell>
        <mxCell id="SfAEeaAkZnoSVuUluzx7-159" value="PROTEÇÃO" style="shape=partialRectangle;html=1;whiteSpace=wrap;connectable=0;fillColor=none;top=0;left=0;bottom=0;right=0;overflow=hidden;fontFamily=Helvetica;fontSize=11;fontColor=default;" parent="SfAEeaAkZnoSVuUluzx7-156" vertex="1">
          <mxGeometry x="253" width="142" height="31" as="geometry">
            <mxRectangle width="142" height="31" as="alternateBounds" />
          </mxGeometry>
        </mxCell>
        <mxCell id="SfAEeaAkZnoSVuUluzx7-160" value="N° FASES" style="shape=partialRectangle;html=1;whiteSpace=wrap;connectable=0;fillColor=none;top=0;left=0;bottom=0;right=0;overflow=hidden;fontFamily=Helvetica;fontSize=11;fontColor=default;" parent="SfAEeaAkZnoSVuUluzx7-156" vertex="1">
          <mxGeometry x="395" width="78" height="31" as="geometry">
            <mxRectangle width="78" height="31" as="alternateBounds" />
          </mxGeometry>
        </mxCell>
        <mxCell id="SfAEeaAkZnoSVuUluzx7-161" value="CARGA(W)" style="shape=partialRectangle;html=1;whiteSpace=wrap;connectable=0;fillColor=none;top=0;left=0;bottom=0;right=0;overflow=hidden;fontFamily=Helvetica;fontSize=11;fontColor=default;" parent="SfAEeaAkZnoSVuUluzx7-156" vertex="1">
          <mxGeometry x="473" width="77" height="31" as="geometry">
            <mxRectangle width="77" height="31" as="alternateBounds" />
          </mxGeometry>
        </mxCell>
        <mxCell id="SfAEeaAkZnoSVuUluzx7-189" style="shape=tableRow;horizontal=0;startSize=0;swimlaneHead=0;swimlaneBody=0;top=0;left=0;bottom=0;right=0;collapsible=0;dropTarget=0;fillColor=none;points=[[0,0.5],[1,0.5]];portConstraint=eastwest;fontFamily=Helvetica;fontSize=11;fontColor=default;" parent="SfAEeaAkZnoSVuUluzx7-155" vertex="1">
          <mxGeometry y="31" width="550" height="52" as="geometry" />
        </mxCell>
        <mxCell id="SfAEeaAkZnoSVuUluzx7-190" value="SAUNA" style="shape=partialRectangle;html=1;whiteSpace=wrap;connectable=0;fillColor=none;top=0;left=0;bottom=0;right=0;overflow=hidden;fontFamily=Helvetica;fontSize=11;fontColor=default;" parent="SfAEeaAkZnoSVuUluzx7-189" vertex="1">
          <mxGeometry width="156" height="52" as="geometry">
            <mxRectangle width="156" height="52" as="alternateBounds" />
          </mxGeometry>
        </mxCell>
        <mxCell id="SfAEeaAkZnoSVuUluzx7-191" value="#10.00" style="shape=partialRectangle;html=1;whiteSpace=wrap;connectable=0;fillColor=none;top=0;left=0;bottom=0;right=0;overflow=hidden;fontFamily=Helvetica;fontSize=11;fontColor=default;" parent="SfAEeaAkZnoSVuUluzx7-189" vertex="1">
          <mxGeometry x="156" width="97" height="52" as="geometry">
            <mxRectangle width="97" height="52" as="alternateBounds" />
          </mxGeometry>
        </mxCell>
        <mxCell id="SfAEeaAkZnoSVuUluzx7-192" value="50A" style="shape=partialRectangle;html=1;whiteSpace=wrap;connectable=0;fillColor=none;top=0;left=0;bottom=0;right=0;overflow=hidden;fontFamily=Helvetica;fontSize=11;fontColor=default;" parent="SfAEeaAkZnoSVuUluzx7-189" vertex="1">
          <mxGeometry x="253" width="142" height="52" as="geometry">
            <mxRectangle width="142" height="52" as="alternateBounds" />
          </mxGeometry>
        </mxCell>
        <mxCell id="SfAEeaAkZnoSVuUluzx7-193" value="3F" style="shape=partialRectangle;html=1;whiteSpace=wrap;connectable=0;fillColor=none;top=0;left=0;bottom=0;right=0;overflow=hidden;fontFamily=Helvetica;fontSize=11;fontColor=default;" parent="SfAEeaAkZnoSVuUluzx7-189" vertex="1">
          <mxGeometry x="395" width="78" height="52" as="geometry">
            <mxRectangle width="78" height="52" as="alternateBounds" />
          </mxGeometry>
        </mxCell>
        <mxCell id="SfAEeaAkZnoSVuUluzx7-194" value="18KW" style="shape=partialRectangle;html=1;whiteSpace=wrap;connectable=0;fillColor=none;top=0;left=0;bottom=0;right=0;overflow=hidden;fontFamily=Helvetica;fontSize=11;fontColor=default;" parent="SfAEeaAkZnoSVuUluzx7-189" vertex="1">
          <mxGeometry x="473" width="77" height="52" as="geometry">
            <mxRectangle width="77" height="52" as="alternateBounds" />
          </mxGeometry>
        </mxCell>
        <mxCell id="SfAEeaAkZnoSVuUluzx7-168" value="" style="shape=tableRow;horizontal=0;startSize=0;swimlaneHead=0;swimlaneBody=0;top=0;left=0;bottom=0;right=0;collapsible=0;dropTarget=0;fillColor=none;points=[[0,0.5],[1,0.5]];portConstraint=eastwest;fontFamily=Helvetica;fontSize=11;fontColor=default;" parent="SfAEeaAkZnoSVuUluzx7-155" vertex="1">
          <mxGeometry y="83" width="550" height="50" as="geometry" />
        </mxCell>
        <mxCell id="SfAEeaAkZnoSVuUluzx7-169" value="&lt;span style=&quot;color: rgb(0, 0, 0); font-size: 12px; text-align: left;&quot;&gt;B. CALOR&lt;/span&gt;&lt;span style=&quot;color: rgb(0, 0, 0); font-size: 12px; text-align: left;&quot;&gt;   &lt;/span&gt;" style="shape=partialRectangle;html=1;whiteSpace=wrap;connectable=0;fillColor=none;top=0;left=0;bottom=0;right=0;overflow=hidden;fontFamily=Helvetica;fontSize=11;fontColor=default;" parent="SfAEeaAkZnoSVuUluzx7-168" vertex="1">
          <mxGeometry width="156" height="50" as="geometry">
            <mxRectangle width="156" height="50" as="alternateBounds" />
          </mxGeometry>
        </mxCell>
        <mxCell id="SfAEeaAkZnoSVuUluzx7-170" value="&lt;span style=&quot;color: rgb(0, 0, 0); font-size: 12px; text-align: left;&quot;&gt;#10.00&amp;nbsp;&lt;/span&gt;" style="shape=partialRectangle;html=1;whiteSpace=wrap;connectable=0;fillColor=none;top=0;left=0;bottom=0;right=0;overflow=hidden;fontFamily=Helvetica;fontSize=11;fontColor=default;" parent="SfAEeaAkZnoSVuUluzx7-168" vertex="1">
          <mxGeometry x="156" width="97" height="50" as="geometry">
            <mxRectangle width="97" height="50" as="alternateBounds" />
          </mxGeometry>
        </mxCell>
        <mxCell id="SfAEeaAkZnoSVuUluzx7-171" value="&lt;span style=&quot;color: rgb(0, 0, 0); font-size: 12px; text-align: left;&quot;&gt;50A&amp;nbsp;&lt;/span&gt;" style="shape=partialRectangle;html=1;whiteSpace=wrap;connectable=0;fillColor=none;top=0;left=0;bottom=0;right=0;overflow=hidden;fontFamily=Helvetica;fontSize=11;fontColor=default;" parent="SfAEeaAkZnoSVuUluzx7-168" vertex="1">
          <mxGeometry x="253" width="142" height="50" as="geometry">
            <mxRectangle width="142" height="50" as="alternateBounds" />
          </mxGeometry>
        </mxCell>
        <mxCell id="SfAEeaAkZnoSVuUluzx7-172" value="&lt;span style=&quot;color: rgb(0, 0, 0); font-size: 12px; text-align: left;&quot;&gt;3F&lt;/span&gt;" style="shape=partialRectangle;html=1;whiteSpace=wrap;connectable=0;fillColor=none;top=0;left=0;bottom=0;right=0;overflow=hidden;pointerEvents=1;fontFamily=Helvetica;fontSize=11;fontColor=default;" parent="SfAEeaAkZnoSVuUluzx7-168" vertex="1">
          <mxGeometry x="395" width="78" height="50" as="geometry">
            <mxRectangle width="78" height="50" as="alternateBounds" />
          </mxGeometry>
        </mxCell>
        <mxCell id="SfAEeaAkZnoSVuUluzx7-173" value="16KW" style="shape=partialRectangle;html=1;whiteSpace=wrap;connectable=0;fillColor=none;top=0;left=0;bottom=0;right=0;overflow=hidden;pointerEvents=1;fontFamily=Helvetica;fontSize=11;fontColor=default;" parent="SfAEeaAkZnoSVuUluzx7-168" vertex="1">
          <mxGeometry x="473" width="77" height="50" as="geometry">
            <mxRectangle width="77" height="50" as="alternateBounds" />
          </mxGeometry>
        </mxCell>
        <mxCell id="SfAEeaAkZnoSVuUluzx7-174" style="shape=tableRow;horizontal=0;startSize=0;swimlaneHead=0;swimlaneBody=0;top=0;left=0;bottom=0;right=0;collapsible=0;dropTarget=0;fillColor=none;points=[[0,0.5],[1,0.5]];portConstraint=eastwest;fontFamily=Helvetica;fontSize=11;fontColor=default;" parent="SfAEeaAkZnoSVuUluzx7-155" vertex="1">
          <mxGeometry y="133" width="550" height="50" as="geometry" />
        </mxCell>
        <mxCell id="SfAEeaAkZnoSVuUluzx7-175" value="&lt;span style=&quot;color: rgb(0, 0, 0); font-size: 12px; text-align: left;&quot;&gt;RECALQUE&lt;/span&gt;&lt;span style=&quot;color: rgb(0, 0, 0); font-size: 12px; text-align: left;&quot;&gt;&lt;/span&gt;&lt;span style=&quot;color: rgb(0, 0, 0); font-size: 12px; text-align: left;&quot;&gt;&lt;/span&gt;" style="shape=partialRectangle;html=1;whiteSpace=wrap;connectable=0;fillColor=none;top=0;left=0;bottom=0;right=0;overflow=hidden;fontFamily=Helvetica;fontSize=11;fontColor=default;" parent="SfAEeaAkZnoSVuUluzx7-174" vertex="1">
          <mxGeometry width="156" height="50" as="geometry">
            <mxRectangle width="156" height="50" as="alternateBounds" />
          </mxGeometry>
        </mxCell>
        <mxCell id="SfAEeaAkZnoSVuUluzx7-176" value="#6.00" style="shape=partialRectangle;html=1;whiteSpace=wrap;connectable=0;fillColor=none;top=0;left=0;bottom=0;right=0;overflow=hidden;fontFamily=Helvetica;fontSize=11;fontColor=default;" parent="SfAEeaAkZnoSVuUluzx7-174" vertex="1">
          <mxGeometry x="156" width="97" height="50" as="geometry">
            <mxRectangle width="97" height="50" as="alternateBounds" />
          </mxGeometry>
        </mxCell>
        <mxCell id="SfAEeaAkZnoSVuUluzx7-177" value="32A" style="shape=partialRectangle;html=1;whiteSpace=wrap;connectable=0;fillColor=none;top=0;left=0;bottom=0;right=0;overflow=hidden;fontFamily=Helvetica;fontSize=11;fontColor=default;" parent="SfAEeaAkZnoSVuUluzx7-174" vertex="1">
          <mxGeometry x="253" width="142" height="50" as="geometry">
            <mxRectangle width="142" height="50" as="alternateBounds" />
          </mxGeometry>
        </mxCell>
        <mxCell id="SfAEeaAkZnoSVuUluzx7-178" value="3F" style="shape=partialRectangle;html=1;whiteSpace=wrap;connectable=0;fillColor=none;top=0;left=0;bottom=0;right=0;overflow=hidden;pointerEvents=1;fontFamily=Helvetica;fontSize=11;fontColor=default;" parent="SfAEeaAkZnoSVuUluzx7-174" vertex="1">
          <mxGeometry x="395" width="78" height="50" as="geometry">
            <mxRectangle width="78" height="50" as="alternateBounds" />
          </mxGeometry>
        </mxCell>
        <mxCell id="SfAEeaAkZnoSVuUluzx7-179" value="5KW" style="shape=partialRectangle;html=1;whiteSpace=wrap;connectable=0;fillColor=none;top=0;left=0;bottom=0;right=0;overflow=hidden;pointerEvents=1;fontFamily=Helvetica;fontSize=11;fontColor=default;" parent="SfAEeaAkZnoSVuUluzx7-174" vertex="1">
          <mxGeometry x="473" width="77" height="50" as="geometry">
            <mxRectangle width="77" height="50" as="alternateBounds" />
          </mxGeometry>
        </mxCell>
        <mxCell id="SfAEeaAkZnoSVuUluzx7-225" value="&lt;span style=&quot;font-family: Helvetica;&quot;&gt;PILOTIS&lt;/span&gt;" style="html=1;rounded=0;shadow=0;comic=0;labelBackgroundColor=none;strokeWidth=2;fontFamily=Verdana;fontSize=12;align=center;shape=mxgraph.ios7ui.horLines;fontColor=#000000;fillColor=#006666;gradientColor=#004C99;gradientDirection=east;" parent="1" vertex="1">
          <mxGeometry x="-1650" y="20" width="135" height="50" as="geometry" />
        </mxCell>
        <mxCell id="SfAEeaAkZnoSVuUluzx7-226" value="SANTÉ&amp;nbsp;" style="swimlane;html=1;fontStyle=0;childLayout=stackLayout;horizontal=1;startSize=26;fillColor=#e0e0e0;horizontalStack=0;resizeParent=1;resizeLast=0;collapsible=1;marginBottom=0;swimlaneFillColor=#ffffff;align=center;rounded=1;shadow=0;comic=0;labelBackgroundColor=none;strokeWidth=1;fontFamily=Verdana;fontSize=12;fontColor=#000000;" parent="1" vertex="1">
          <mxGeometry x="-1040" y="376" width="550" height="209" as="geometry">
            <mxRectangle x="160" y="74" width="90" height="30" as="alternateBounds" />
          </mxGeometry>
        </mxCell>
        <mxCell id="SfAEeaAkZnoSVuUluzx7-227" value="" style="shape=table;html=1;whiteSpace=wrap;startSize=0;container=1;collapsible=0;childLayout=tableLayout;fontFamily=Helvetica;fontSize=11;fontColor=default;fillColor=#006666;gradientColor=#004C99;gradientDirection=east;" parent="SfAEeaAkZnoSVuUluzx7-226" vertex="1">
          <mxGeometry y="26" width="550" height="183" as="geometry" />
        </mxCell>
        <mxCell id="SfAEeaAkZnoSVuUluzx7-228" value="" style="shape=tableRow;horizontal=0;startSize=0;swimlaneHead=0;swimlaneBody=0;top=0;left=0;bottom=0;right=0;collapsible=0;dropTarget=0;fillColor=none;points=[[0,0.5],[1,0.5]];portConstraint=eastwest;fontFamily=Helvetica;fontSize=11;fontColor=default;" parent="SfAEeaAkZnoSVuUluzx7-227" vertex="1">
          <mxGeometry width="550" height="31" as="geometry" />
        </mxCell>
        <mxCell id="SfAEeaAkZnoSVuUluzx7-229" value="ITEM" style="shape=partialRectangle;html=1;whiteSpace=wrap;connectable=0;fillColor=none;top=0;left=0;bottom=0;right=0;overflow=hidden;fontFamily=Helvetica;fontSize=11;fontColor=default;" parent="SfAEeaAkZnoSVuUluzx7-228" vertex="1">
          <mxGeometry width="156" height="31" as="geometry">
            <mxRectangle width="156" height="31" as="alternateBounds" />
          </mxGeometry>
        </mxCell>
        <mxCell id="SfAEeaAkZnoSVuUluzx7-230" value="SEÇÃO" style="shape=partialRectangle;html=1;whiteSpace=wrap;connectable=0;fillColor=none;top=0;left=0;bottom=0;right=0;overflow=hidden;fontFamily=Helvetica;fontSize=11;fontColor=default;" parent="SfAEeaAkZnoSVuUluzx7-228" vertex="1">
          <mxGeometry x="156" width="97" height="31" as="geometry">
            <mxRectangle width="97" height="31" as="alternateBounds" />
          </mxGeometry>
        </mxCell>
        <mxCell id="SfAEeaAkZnoSVuUluzx7-231" value="PROTEÇÃO" style="shape=partialRectangle;html=1;whiteSpace=wrap;connectable=0;fillColor=none;top=0;left=0;bottom=0;right=0;overflow=hidden;fontFamily=Helvetica;fontSize=11;fontColor=default;" parent="SfAEeaAkZnoSVuUluzx7-228" vertex="1">
          <mxGeometry x="253" width="142" height="31" as="geometry">
            <mxRectangle width="142" height="31" as="alternateBounds" />
          </mxGeometry>
        </mxCell>
        <mxCell id="SfAEeaAkZnoSVuUluzx7-232" value="N° FASES" style="shape=partialRectangle;html=1;whiteSpace=wrap;connectable=0;fillColor=none;top=0;left=0;bottom=0;right=0;overflow=hidden;fontFamily=Helvetica;fontSize=11;fontColor=default;" parent="SfAEeaAkZnoSVuUluzx7-228" vertex="1">
          <mxGeometry x="395" width="78" height="31" as="geometry">
            <mxRectangle width="78" height="31" as="alternateBounds" />
          </mxGeometry>
        </mxCell>
        <mxCell id="SfAEeaAkZnoSVuUluzx7-233" value="CARGA(W)" style="shape=partialRectangle;html=1;whiteSpace=wrap;connectable=0;fillColor=none;top=0;left=0;bottom=0;right=0;overflow=hidden;fontFamily=Helvetica;fontSize=11;fontColor=default;" parent="SfAEeaAkZnoSVuUluzx7-228" vertex="1">
          <mxGeometry x="473" width="77" height="31" as="geometry">
            <mxRectangle width="77" height="31" as="alternateBounds" />
          </mxGeometry>
        </mxCell>
        <mxCell id="SfAEeaAkZnoSVuUluzx7-234" style="shape=tableRow;horizontal=0;startSize=0;swimlaneHead=0;swimlaneBody=0;top=0;left=0;bottom=0;right=0;collapsible=0;dropTarget=0;fillColor=none;points=[[0,0.5],[1,0.5]];portConstraint=eastwest;fontFamily=Helvetica;fontSize=11;fontColor=default;" parent="SfAEeaAkZnoSVuUluzx7-227" vertex="1">
          <mxGeometry y="31" width="550" height="52" as="geometry" />
        </mxCell>
        <mxCell id="SfAEeaAkZnoSVuUluzx7-235" value="BANHEIRA" style="shape=partialRectangle;html=1;whiteSpace=wrap;connectable=0;fillColor=none;top=0;left=0;bottom=0;right=0;overflow=hidden;fontFamily=Helvetica;fontSize=11;fontColor=default;" parent="SfAEeaAkZnoSVuUluzx7-234" vertex="1">
          <mxGeometry width="156" height="52" as="geometry">
            <mxRectangle width="156" height="52" as="alternateBounds" />
          </mxGeometry>
        </mxCell>
        <mxCell id="SfAEeaAkZnoSVuUluzx7-236" value="#6.00" style="shape=partialRectangle;html=1;whiteSpace=wrap;connectable=0;fillColor=none;top=0;left=0;bottom=0;right=0;overflow=hidden;fontFamily=Helvetica;fontSize=11;fontColor=default;" parent="SfAEeaAkZnoSVuUluzx7-234" vertex="1">
          <mxGeometry x="156" width="97" height="52" as="geometry">
            <mxRectangle width="97" height="52" as="alternateBounds" />
          </mxGeometry>
        </mxCell>
        <mxCell id="SfAEeaAkZnoSVuUluzx7-237" value="40A" style="shape=partialRectangle;html=1;whiteSpace=wrap;connectable=0;fillColor=none;top=0;left=0;bottom=0;right=0;overflow=hidden;fontFamily=Helvetica;fontSize=11;fontColor=default;" parent="SfAEeaAkZnoSVuUluzx7-234" vertex="1">
          <mxGeometry x="253" width="142" height="52" as="geometry">
            <mxRectangle width="142" height="52" as="alternateBounds" />
          </mxGeometry>
        </mxCell>
        <mxCell id="SfAEeaAkZnoSVuUluzx7-238" value="2F" style="shape=partialRectangle;html=1;whiteSpace=wrap;connectable=0;fillColor=none;top=0;left=0;bottom=0;right=0;overflow=hidden;fontFamily=Helvetica;fontSize=11;fontColor=default;" parent="SfAEeaAkZnoSVuUluzx7-234" vertex="1">
          <mxGeometry x="395" width="78" height="52" as="geometry">
            <mxRectangle width="78" height="52" as="alternateBounds" />
          </mxGeometry>
        </mxCell>
        <mxCell id="SfAEeaAkZnoSVuUluzx7-239" value="8.5KW" style="shape=partialRectangle;html=1;whiteSpace=wrap;connectable=0;fillColor=none;top=0;left=0;bottom=0;right=0;overflow=hidden;fontFamily=Helvetica;fontSize=11;fontColor=default;" parent="SfAEeaAkZnoSVuUluzx7-234" vertex="1">
          <mxGeometry x="473" width="77" height="52" as="geometry">
            <mxRectangle width="77" height="52" as="alternateBounds" />
          </mxGeometry>
        </mxCell>
        <mxCell id="SfAEeaAkZnoSVuUluzx7-240" value="" style="shape=tableRow;horizontal=0;startSize=0;swimlaneHead=0;swimlaneBody=0;top=0;left=0;bottom=0;right=0;collapsible=0;dropTarget=0;fillColor=none;points=[[0,0.5],[1,0.5]];portConstraint=eastwest;fontFamily=Helvetica;fontSize=11;fontColor=default;" parent="SfAEeaAkZnoSVuUluzx7-227" vertex="1">
          <mxGeometry y="83" width="550" height="50" as="geometry" />
        </mxCell>
        <mxCell id="SfAEeaAkZnoSVuUluzx7-241" value="&lt;span style=&quot;color: rgb(0, 0, 0); font-size: 12px; text-align: left;&quot;&gt;B. CALOR&lt;/span&gt;&lt;span style=&quot;color: rgb(0, 0, 0); font-size: 12px; text-align: left;&quot;&gt;   &lt;/span&gt;" style="shape=partialRectangle;html=1;whiteSpace=wrap;connectable=0;fillColor=none;top=0;left=0;bottom=0;right=0;overflow=hidden;fontFamily=Helvetica;fontSize=11;fontColor=default;" parent="SfAEeaAkZnoSVuUluzx7-240" vertex="1">
          <mxGeometry width="156" height="50" as="geometry">
            <mxRectangle width="156" height="50" as="alternateBounds" />
          </mxGeometry>
        </mxCell>
        <mxCell id="SfAEeaAkZnoSVuUluzx7-242" value="&lt;span style=&quot;color: rgb(0, 0, 0); font-size: 12px; text-align: left;&quot;&gt;#4.00&amp;nbsp;&lt;/span&gt;" style="shape=partialRectangle;html=1;whiteSpace=wrap;connectable=0;fillColor=none;top=0;left=0;bottom=0;right=0;overflow=hidden;fontFamily=Helvetica;fontSize=11;fontColor=default;" parent="SfAEeaAkZnoSVuUluzx7-240" vertex="1">
          <mxGeometry x="156" width="97" height="50" as="geometry">
            <mxRectangle width="97" height="50" as="alternateBounds" />
          </mxGeometry>
        </mxCell>
        <mxCell id="SfAEeaAkZnoSVuUluzx7-243" value="&lt;span style=&quot;color: rgb(0, 0, 0); font-size: 12px; text-align: left;&quot;&gt;20A&amp;nbsp;&lt;/span&gt;" style="shape=partialRectangle;html=1;whiteSpace=wrap;connectable=0;fillColor=none;top=0;left=0;bottom=0;right=0;overflow=hidden;fontFamily=Helvetica;fontSize=11;fontColor=default;" parent="SfAEeaAkZnoSVuUluzx7-240" vertex="1">
          <mxGeometry x="253" width="142" height="50" as="geometry">
            <mxRectangle width="142" height="50" as="alternateBounds" />
          </mxGeometry>
        </mxCell>
        <mxCell id="SfAEeaAkZnoSVuUluzx7-244" value="&lt;span style=&quot;color: rgb(0, 0, 0); font-size: 12px; text-align: left;&quot;&gt;3F&lt;/span&gt;" style="shape=partialRectangle;html=1;whiteSpace=wrap;connectable=0;fillColor=none;top=0;left=0;bottom=0;right=0;overflow=hidden;pointerEvents=1;fontFamily=Helvetica;fontSize=11;fontColor=default;" parent="SfAEeaAkZnoSVuUluzx7-240" vertex="1">
          <mxGeometry x="395" width="78" height="50" as="geometry">
            <mxRectangle width="78" height="50" as="alternateBounds" />
          </mxGeometry>
        </mxCell>
        <mxCell id="SfAEeaAkZnoSVuUluzx7-245" value="3KW" style="shape=partialRectangle;html=1;whiteSpace=wrap;connectable=0;fillColor=none;top=0;left=0;bottom=0;right=0;overflow=hidden;pointerEvents=1;fontFamily=Helvetica;fontSize=11;fontColor=default;" parent="SfAEeaAkZnoSVuUluzx7-240" vertex="1">
          <mxGeometry x="473" width="77" height="50" as="geometry">
            <mxRectangle width="77" height="50" as="alternateBounds" />
          </mxGeometry>
        </mxCell>
        <mxCell id="SfAEeaAkZnoSVuUluzx7-246" style="shape=tableRow;horizontal=0;startSize=0;swimlaneHead=0;swimlaneBody=0;top=0;left=0;bottom=0;right=0;collapsible=0;dropTarget=0;fillColor=none;points=[[0,0.5],[1,0.5]];portConstraint=eastwest;fontFamily=Helvetica;fontSize=11;fontColor=default;" parent="SfAEeaAkZnoSVuUluzx7-227" vertex="1">
          <mxGeometry y="133" width="550" height="50" as="geometry" />
        </mxCell>
        <mxCell id="SfAEeaAkZnoSVuUluzx7-247" value="&lt;span style=&quot;color: rgb(0, 0, 0); font-size: 12px; text-align: left;&quot;&gt;FILTRO PISCINA&lt;/span&gt;&lt;span style=&quot;color: rgb(0, 0, 0); font-size: 12px; text-align: left;&quot;&gt;&lt;/span&gt;&lt;span style=&quot;color: rgb(0, 0, 0); font-size: 12px; text-align: left;&quot;&gt;&lt;/span&gt;" style="shape=partialRectangle;html=1;whiteSpace=wrap;connectable=0;fillColor=none;top=0;left=0;bottom=0;right=0;overflow=hidden;fontFamily=Helvetica;fontSize=11;fontColor=default;" parent="SfAEeaAkZnoSVuUluzx7-246" vertex="1">
          <mxGeometry width="156" height="50" as="geometry">
            <mxRectangle width="156" height="50" as="alternateBounds" />
          </mxGeometry>
        </mxCell>
        <mxCell id="SfAEeaAkZnoSVuUluzx7-248" value="#2.5" style="shape=partialRectangle;html=1;whiteSpace=wrap;connectable=0;fillColor=none;top=0;left=0;bottom=0;right=0;overflow=hidden;fontFamily=Helvetica;fontSize=11;fontColor=default;" parent="SfAEeaAkZnoSVuUluzx7-246" vertex="1">
          <mxGeometry x="156" width="97" height="50" as="geometry">
            <mxRectangle width="97" height="50" as="alternateBounds" />
          </mxGeometry>
        </mxCell>
        <mxCell id="SfAEeaAkZnoSVuUluzx7-249" value="16A" style="shape=partialRectangle;html=1;whiteSpace=wrap;connectable=0;fillColor=none;top=0;left=0;bottom=0;right=0;overflow=hidden;fontFamily=Helvetica;fontSize=11;fontColor=default;" parent="SfAEeaAkZnoSVuUluzx7-246" vertex="1">
          <mxGeometry x="253" width="142" height="50" as="geometry">
            <mxRectangle width="142" height="50" as="alternateBounds" />
          </mxGeometry>
        </mxCell>
        <mxCell id="SfAEeaAkZnoSVuUluzx7-250" value="2F" style="shape=partialRectangle;html=1;whiteSpace=wrap;connectable=0;fillColor=none;top=0;left=0;bottom=0;right=0;overflow=hidden;pointerEvents=1;fontFamily=Helvetica;fontSize=11;fontColor=default;" parent="SfAEeaAkZnoSVuUluzx7-246" vertex="1">
          <mxGeometry x="395" width="78" height="50" as="geometry">
            <mxRectangle width="78" height="50" as="alternateBounds" />
          </mxGeometry>
        </mxCell>
        <mxCell id="SfAEeaAkZnoSVuUluzx7-251" value="0.4KW" style="shape=partialRectangle;html=1;whiteSpace=wrap;connectable=0;fillColor=none;top=0;left=0;bottom=0;right=0;overflow=hidden;pointerEvents=1;fontFamily=Helvetica;fontSize=11;fontColor=default;" parent="SfAEeaAkZnoSVuUluzx7-246" vertex="1">
          <mxGeometry x="473" width="77" height="50" as="geometry">
            <mxRectangle width="77" height="50" as="alternateBounds" />
          </mxGeometry>
        </mxCell>
        <mxCell id="SfAEeaAkZnoSVuUluzx7-256" value="LA PIENEZZA" style="swimlane;html=1;fontStyle=0;childLayout=stackLayout;horizontal=1;startSize=26;fillColor=#e0e0e0;horizontalStack=0;resizeParent=1;resizeLast=0;collapsible=1;marginBottom=0;swimlaneFillColor=#ffffff;align=center;rounded=1;shadow=0;comic=0;labelBackgroundColor=none;strokeWidth=1;fontFamily=Verdana;fontSize=12;fontColor=#000000;" parent="1" vertex="1">
          <mxGeometry x="-2170" y="366" width="550" height="109" as="geometry">
            <mxRectangle x="160" y="74" width="90" height="30" as="alternateBounds" />
          </mxGeometry>
        </mxCell>
        <mxCell id="SfAEeaAkZnoSVuUluzx7-257" value="" style="shape=table;html=1;whiteSpace=wrap;startSize=0;container=1;collapsible=0;childLayout=tableLayout;fontFamily=Helvetica;fontSize=11;fontColor=default;fillColor=#006666;gradientColor=#004C99;gradientDirection=east;" parent="SfAEeaAkZnoSVuUluzx7-256" vertex="1">
          <mxGeometry y="26" width="550" height="83" as="geometry" />
        </mxCell>
        <mxCell id="SfAEeaAkZnoSVuUluzx7-258" value="" style="shape=tableRow;horizontal=0;startSize=0;swimlaneHead=0;swimlaneBody=0;top=0;left=0;bottom=0;right=0;collapsible=0;dropTarget=0;fillColor=none;points=[[0,0.5],[1,0.5]];portConstraint=eastwest;fontFamily=Helvetica;fontSize=11;fontColor=default;" parent="SfAEeaAkZnoSVuUluzx7-257" vertex="1">
          <mxGeometry width="550" height="31" as="geometry" />
        </mxCell>
        <mxCell id="SfAEeaAkZnoSVuUluzx7-259" value="ITEM" style="shape=partialRectangle;html=1;whiteSpace=wrap;connectable=0;fillColor=none;top=0;left=0;bottom=0;right=0;overflow=hidden;fontFamily=Helvetica;fontSize=11;fontColor=default;" parent="SfAEeaAkZnoSVuUluzx7-258" vertex="1">
          <mxGeometry width="156" height="31" as="geometry">
            <mxRectangle width="156" height="31" as="alternateBounds" />
          </mxGeometry>
        </mxCell>
        <mxCell id="SfAEeaAkZnoSVuUluzx7-260" value="SEÇÃO" style="shape=partialRectangle;html=1;whiteSpace=wrap;connectable=0;fillColor=none;top=0;left=0;bottom=0;right=0;overflow=hidden;fontFamily=Helvetica;fontSize=11;fontColor=default;" parent="SfAEeaAkZnoSVuUluzx7-258" vertex="1">
          <mxGeometry x="156" width="97" height="31" as="geometry">
            <mxRectangle width="97" height="31" as="alternateBounds" />
          </mxGeometry>
        </mxCell>
        <mxCell id="SfAEeaAkZnoSVuUluzx7-261" value="PROTEÇÃO" style="shape=partialRectangle;html=1;whiteSpace=wrap;connectable=0;fillColor=none;top=0;left=0;bottom=0;right=0;overflow=hidden;fontFamily=Helvetica;fontSize=11;fontColor=default;" parent="SfAEeaAkZnoSVuUluzx7-258" vertex="1">
          <mxGeometry x="253" width="142" height="31" as="geometry">
            <mxRectangle width="142" height="31" as="alternateBounds" />
          </mxGeometry>
        </mxCell>
        <mxCell id="SfAEeaAkZnoSVuUluzx7-262" value="N° FASES" style="shape=partialRectangle;html=1;whiteSpace=wrap;connectable=0;fillColor=none;top=0;left=0;bottom=0;right=0;overflow=hidden;fontFamily=Helvetica;fontSize=11;fontColor=default;" parent="SfAEeaAkZnoSVuUluzx7-258" vertex="1">
          <mxGeometry x="395" width="78" height="31" as="geometry">
            <mxRectangle width="78" height="31" as="alternateBounds" />
          </mxGeometry>
        </mxCell>
        <mxCell id="SfAEeaAkZnoSVuUluzx7-263" value="CARGA(W)" style="shape=partialRectangle;html=1;whiteSpace=wrap;connectable=0;fillColor=none;top=0;left=0;bottom=0;right=0;overflow=hidden;fontFamily=Helvetica;fontSize=11;fontColor=default;" parent="SfAEeaAkZnoSVuUluzx7-258" vertex="1">
          <mxGeometry x="473" width="77" height="31" as="geometry">
            <mxRectangle width="77" height="31" as="alternateBounds" />
          </mxGeometry>
        </mxCell>
        <mxCell id="SfAEeaAkZnoSVuUluzx7-264" style="shape=tableRow;horizontal=0;startSize=0;swimlaneHead=0;swimlaneBody=0;top=0;left=0;bottom=0;right=0;collapsible=0;dropTarget=0;fillColor=none;points=[[0,0.5],[1,0.5]];portConstraint=eastwest;fontFamily=Helvetica;fontSize=11;fontColor=default;" parent="SfAEeaAkZnoSVuUluzx7-257" vertex="1">
          <mxGeometry y="31" width="550" height="52" as="geometry" />
        </mxCell>
        <mxCell id="SfAEeaAkZnoSVuUluzx7-265" value="SAUNA" style="shape=partialRectangle;html=1;whiteSpace=wrap;connectable=0;fillColor=none;top=0;left=0;bottom=0;right=0;overflow=hidden;fontFamily=Helvetica;fontSize=11;fontColor=default;" parent="SfAEeaAkZnoSVuUluzx7-264" vertex="1">
          <mxGeometry width="156" height="52" as="geometry">
            <mxRectangle width="156" height="52" as="alternateBounds" />
          </mxGeometry>
        </mxCell>
        <mxCell id="SfAEeaAkZnoSVuUluzx7-266" value="#25.00" style="shape=partialRectangle;html=1;whiteSpace=wrap;connectable=0;fillColor=none;top=0;left=0;bottom=0;right=0;overflow=hidden;fontFamily=Helvetica;fontSize=11;fontColor=default;" parent="SfAEeaAkZnoSVuUluzx7-264" vertex="1">
          <mxGeometry x="156" width="97" height="52" as="geometry">
            <mxRectangle width="97" height="52" as="alternateBounds" />
          </mxGeometry>
        </mxCell>
        <mxCell id="SfAEeaAkZnoSVuUluzx7-267" value="80A" style="shape=partialRectangle;html=1;whiteSpace=wrap;connectable=0;fillColor=none;top=0;left=0;bottom=0;right=0;overflow=hidden;fontFamily=Helvetica;fontSize=11;fontColor=default;" parent="SfAEeaAkZnoSVuUluzx7-264" vertex="1">
          <mxGeometry x="253" width="142" height="52" as="geometry">
            <mxRectangle width="142" height="52" as="alternateBounds" />
          </mxGeometry>
        </mxCell>
        <mxCell id="SfAEeaAkZnoSVuUluzx7-268" value="3F" style="shape=partialRectangle;html=1;whiteSpace=wrap;connectable=0;fillColor=none;top=0;left=0;bottom=0;right=0;overflow=hidden;fontFamily=Helvetica;fontSize=11;fontColor=default;" parent="SfAEeaAkZnoSVuUluzx7-264" vertex="1">
          <mxGeometry x="395" width="78" height="52" as="geometry">
            <mxRectangle width="78" height="52" as="alternateBounds" />
          </mxGeometry>
        </mxCell>
        <mxCell id="SfAEeaAkZnoSVuUluzx7-269" value="27KW" style="shape=partialRectangle;html=1;whiteSpace=wrap;connectable=0;fillColor=none;top=0;left=0;bottom=0;right=0;overflow=hidden;fontFamily=Helvetica;fontSize=11;fontColor=default;" parent="SfAEeaAkZnoSVuUluzx7-264" vertex="1">
          <mxGeometry x="473" width="77" height="52" as="geometry">
            <mxRectangle width="77" height="52" as="alternateBounds" />
          </mxGeometry>
        </mxCell>
        <mxCell id="SfAEeaAkZnoSVuUluzx7-288" value="JARDIM MANGABEIRAS" style="swimlane;html=1;fontStyle=0;childLayout=stackLayout;horizontal=1;startSize=26;fillColor=#e0e0e0;horizontalStack=0;resizeParent=1;resizeLast=0;collapsible=1;marginBottom=0;swimlaneFillColor=#ffffff;align=center;rounded=1;shadow=0;comic=0;labelBackgroundColor=none;strokeWidth=1;fontFamily=Verdana;fontSize=12;fontColor=#000000;" parent="1" vertex="1">
          <mxGeometry x="-3040" y="280" width="550" height="210" as="geometry">
            <mxRectangle x="160" y="74" width="90" height="30" as="alternateBounds" />
          </mxGeometry>
        </mxCell>
        <mxCell id="SfAEeaAkZnoSVuUluzx7-289" value="" style="shape=table;html=1;whiteSpace=wrap;startSize=0;container=1;collapsible=0;childLayout=tableLayout;fontFamily=Helvetica;fontSize=11;fontColor=default;fillColor=#006666;gradientColor=#004C99;gradientDirection=east;" parent="SfAEeaAkZnoSVuUluzx7-288" vertex="1">
          <mxGeometry y="26" width="550" height="184" as="geometry" />
        </mxCell>
        <mxCell id="SfAEeaAkZnoSVuUluzx7-290" value="" style="shape=tableRow;horizontal=0;startSize=0;swimlaneHead=0;swimlaneBody=0;top=0;left=0;bottom=0;right=0;collapsible=0;dropTarget=0;fillColor=none;points=[[0,0.5],[1,0.5]];portConstraint=eastwest;fontFamily=Helvetica;fontSize=11;fontColor=default;" parent="SfAEeaAkZnoSVuUluzx7-289" vertex="1">
          <mxGeometry width="550" height="31" as="geometry" />
        </mxCell>
        <mxCell id="SfAEeaAkZnoSVuUluzx7-291" value="ITEM" style="shape=partialRectangle;html=1;whiteSpace=wrap;connectable=0;fillColor=none;top=0;left=0;bottom=0;right=0;overflow=hidden;fontFamily=Helvetica;fontSize=11;fontColor=default;" parent="SfAEeaAkZnoSVuUluzx7-290" vertex="1">
          <mxGeometry width="156" height="31" as="geometry">
            <mxRectangle width="156" height="31" as="alternateBounds" />
          </mxGeometry>
        </mxCell>
        <mxCell id="SfAEeaAkZnoSVuUluzx7-292" value="SEÇÃO" style="shape=partialRectangle;html=1;whiteSpace=wrap;connectable=0;fillColor=none;top=0;left=0;bottom=0;right=0;overflow=hidden;fontFamily=Helvetica;fontSize=11;fontColor=default;" parent="SfAEeaAkZnoSVuUluzx7-290" vertex="1">
          <mxGeometry x="156" width="97" height="31" as="geometry">
            <mxRectangle width="97" height="31" as="alternateBounds" />
          </mxGeometry>
        </mxCell>
        <mxCell id="SfAEeaAkZnoSVuUluzx7-293" value="PROTEÇÃO" style="shape=partialRectangle;html=1;whiteSpace=wrap;connectable=0;fillColor=none;top=0;left=0;bottom=0;right=0;overflow=hidden;fontFamily=Helvetica;fontSize=11;fontColor=default;" parent="SfAEeaAkZnoSVuUluzx7-290" vertex="1">
          <mxGeometry x="253" width="142" height="31" as="geometry">
            <mxRectangle width="142" height="31" as="alternateBounds" />
          </mxGeometry>
        </mxCell>
        <mxCell id="SfAEeaAkZnoSVuUluzx7-294" value="N° FASES" style="shape=partialRectangle;html=1;whiteSpace=wrap;connectable=0;fillColor=none;top=0;left=0;bottom=0;right=0;overflow=hidden;fontFamily=Helvetica;fontSize=11;fontColor=default;" parent="SfAEeaAkZnoSVuUluzx7-290" vertex="1">
          <mxGeometry x="395" width="78" height="31" as="geometry">
            <mxRectangle width="78" height="31" as="alternateBounds" />
          </mxGeometry>
        </mxCell>
        <mxCell id="SfAEeaAkZnoSVuUluzx7-295" value="CARGA(W)" style="shape=partialRectangle;html=1;whiteSpace=wrap;connectable=0;fillColor=none;top=0;left=0;bottom=0;right=0;overflow=hidden;fontFamily=Helvetica;fontSize=11;fontColor=default;" parent="SfAEeaAkZnoSVuUluzx7-290" vertex="1">
          <mxGeometry x="473" width="77" height="31" as="geometry">
            <mxRectangle width="77" height="31" as="alternateBounds" />
          </mxGeometry>
        </mxCell>
        <mxCell id="SfAEeaAkZnoSVuUluzx7-296" value="" style="shape=tableRow;horizontal=0;startSize=0;swimlaneHead=0;swimlaneBody=0;top=0;left=0;bottom=0;right=0;collapsible=0;dropTarget=0;fillColor=none;points=[[0,0.5],[1,0.5]];portConstraint=eastwest;fontFamily=Helvetica;fontSize=11;fontColor=default;" parent="SfAEeaAkZnoSVuUluzx7-289" vertex="1">
          <mxGeometry y="31" width="550" height="52" as="geometry" />
        </mxCell>
        <mxCell id="SfAEeaAkZnoSVuUluzx7-297" value="&lt;span style=&quot;color: rgb(0, 0, 0); font-size: 12px; text-align: left;&quot;&gt;SAUNA&lt;/span&gt;&lt;span style=&quot;color: rgb(0, 0, 0); font-size: 12px; text-align: left;&quot;&gt; &lt;/span&gt;&lt;span style=&quot;color: rgb(0, 0, 0); font-size: 12px; text-align: left;&quot;&gt;&amp;nbsp;&lt;/span&gt;" style="shape=partialRectangle;html=1;whiteSpace=wrap;connectable=0;fillColor=none;top=0;left=0;bottom=0;right=0;overflow=hidden;fontFamily=Helvetica;fontSize=11;fontColor=default;" parent="SfAEeaAkZnoSVuUluzx7-296" vertex="1">
          <mxGeometry width="156" height="52" as="geometry">
            <mxRectangle width="156" height="52" as="alternateBounds" />
          </mxGeometry>
        </mxCell>
        <mxCell id="SfAEeaAkZnoSVuUluzx7-298" value="&lt;span style=&quot;color: rgb(0, 0, 0); font-size: 12px; text-align: left;&quot;&gt;#10.00&amp;nbsp;&lt;/span&gt;&lt;span style=&quot;color: rgb(0, 0, 0); font-size: 12px; text-align: left;&quot;&gt;&amp;nbsp;&lt;/span&gt;" style="shape=partialRectangle;html=1;whiteSpace=wrap;connectable=0;fillColor=none;top=0;left=0;bottom=0;right=0;overflow=hidden;fontFamily=Helvetica;fontSize=11;fontColor=default;" parent="SfAEeaAkZnoSVuUluzx7-296" vertex="1">
          <mxGeometry x="156" width="97" height="52" as="geometry">
            <mxRectangle width="97" height="52" as="alternateBounds" />
          </mxGeometry>
        </mxCell>
        <mxCell id="SfAEeaAkZnoSVuUluzx7-299" value="&lt;span style=&quot;color: rgb(0, 0, 0); font-size: 12px; text-align: left;&quot;&gt;&amp;nbsp; 50A&amp;nbsp; &amp;nbsp; &amp;nbsp;&lt;/span&gt;&lt;span style=&quot;color: rgb(0, 0, 0); font-size: 12px; text-align: left;&quot;&gt;&amp;nbsp;&lt;/span&gt;" style="shape=partialRectangle;html=1;whiteSpace=wrap;connectable=0;fillColor=none;top=0;left=0;bottom=0;right=0;overflow=hidden;fontFamily=Helvetica;fontSize=11;fontColor=default;" parent="SfAEeaAkZnoSVuUluzx7-296" vertex="1">
          <mxGeometry x="253" width="142" height="52" as="geometry">
            <mxRectangle width="142" height="52" as="alternateBounds" />
          </mxGeometry>
        </mxCell>
        <mxCell id="SfAEeaAkZnoSVuUluzx7-300" value="&lt;span style=&quot;color: rgb(0, 0, 0); font-size: 12px; text-align: left;&quot;&gt;&amp;nbsp; &amp;nbsp; &amp;nbsp;3F&amp;nbsp; &amp;nbsp; &amp;nbsp;&lt;/span&gt;&lt;span style=&quot;color: rgb(0, 0, 0); font-size: 12px; text-align: left;&quot;&gt;&amp;nbsp;&lt;/span&gt;" style="shape=partialRectangle;html=1;whiteSpace=wrap;connectable=0;fillColor=none;top=0;left=0;bottom=0;right=0;overflow=hidden;fontFamily=Helvetica;fontSize=11;fontColor=default;" parent="SfAEeaAkZnoSVuUluzx7-296" vertex="1">
          <mxGeometry x="395" width="78" height="52" as="geometry">
            <mxRectangle width="78" height="52" as="alternateBounds" />
          </mxGeometry>
        </mxCell>
        <mxCell id="SfAEeaAkZnoSVuUluzx7-301" value="15KW" style="shape=partialRectangle;html=1;whiteSpace=wrap;connectable=0;fillColor=none;top=0;left=0;bottom=0;right=0;overflow=hidden;fontFamily=Helvetica;fontSize=11;fontColor=default;" parent="SfAEeaAkZnoSVuUluzx7-296" vertex="1">
          <mxGeometry x="473" width="77" height="52" as="geometry">
            <mxRectangle width="77" height="52" as="alternateBounds" />
          </mxGeometry>
        </mxCell>
        <mxCell id="SfAEeaAkZnoSVuUluzx7-302" value="" style="shape=tableRow;horizontal=0;startSize=0;swimlaneHead=0;swimlaneBody=0;top=0;left=0;bottom=0;right=0;collapsible=0;dropTarget=0;fillColor=none;points=[[0,0.5],[1,0.5]];portConstraint=eastwest;fontFamily=Helvetica;fontSize=11;fontColor=default;" parent="SfAEeaAkZnoSVuUluzx7-289" vertex="1">
          <mxGeometry y="83" width="550" height="51" as="geometry" />
        </mxCell>
        <mxCell id="SfAEeaAkZnoSVuUluzx7-303" value="&lt;span style=&quot;color: rgb(0, 0, 0); font-size: 12px; text-align: left;&quot;&gt;BANHEIRA&lt;/span&gt;&lt;span style=&quot;color: rgb(0, 0, 0); font-size: 12px; text-align: left;&quot;&gt;&lt;/span&gt;" style="shape=partialRectangle;html=1;whiteSpace=wrap;connectable=0;fillColor=none;top=0;left=0;bottom=0;right=0;overflow=hidden;fontFamily=Helvetica;fontSize=11;fontColor=default;" parent="SfAEeaAkZnoSVuUluzx7-302" vertex="1">
          <mxGeometry width="156" height="51" as="geometry">
            <mxRectangle width="156" height="51" as="alternateBounds" />
          </mxGeometry>
        </mxCell>
        <mxCell id="SfAEeaAkZnoSVuUluzx7-304" value="&lt;span style=&quot;color: rgb(0, 0, 0); font-size: 12px; text-align: left;&quot;&gt;#6.00&amp;nbsp;&lt;/span&gt;" style="shape=partialRectangle;html=1;whiteSpace=wrap;connectable=0;fillColor=none;top=0;left=0;bottom=0;right=0;overflow=hidden;fontFamily=Helvetica;fontSize=11;fontColor=default;" parent="SfAEeaAkZnoSVuUluzx7-302" vertex="1">
          <mxGeometry x="156" width="97" height="51" as="geometry">
            <mxRectangle width="97" height="51" as="alternateBounds" />
          </mxGeometry>
        </mxCell>
        <mxCell id="SfAEeaAkZnoSVuUluzx7-305" value="&lt;span style=&quot;color: rgb(0, 0, 0); font-size: 12px; text-align: left;&quot;&gt;40A&amp;nbsp;&lt;/span&gt;" style="shape=partialRectangle;html=1;whiteSpace=wrap;connectable=0;fillColor=none;top=0;left=0;bottom=0;right=0;overflow=hidden;fontFamily=Helvetica;fontSize=11;fontColor=default;" parent="SfAEeaAkZnoSVuUluzx7-302" vertex="1">
          <mxGeometry x="253" width="142" height="51" as="geometry">
            <mxRectangle width="142" height="51" as="alternateBounds" />
          </mxGeometry>
        </mxCell>
        <mxCell id="SfAEeaAkZnoSVuUluzx7-306" value="&lt;span style=&quot;color: rgb(0, 0, 0); font-size: 12px; text-align: left;&quot;&gt;2F&lt;/span&gt;" style="shape=partialRectangle;html=1;whiteSpace=wrap;connectable=0;fillColor=none;top=0;left=0;bottom=0;right=0;overflow=hidden;pointerEvents=1;fontFamily=Helvetica;fontSize=11;fontColor=default;" parent="SfAEeaAkZnoSVuUluzx7-302" vertex="1">
          <mxGeometry x="395" width="78" height="51" as="geometry">
            <mxRectangle width="78" height="51" as="alternateBounds" />
          </mxGeometry>
        </mxCell>
        <mxCell id="SfAEeaAkZnoSVuUluzx7-307" value="8.5KW" style="shape=partialRectangle;html=1;whiteSpace=wrap;connectable=0;fillColor=none;top=0;left=0;bottom=0;right=0;overflow=hidden;pointerEvents=1;fontFamily=Helvetica;fontSize=11;fontColor=default;" parent="SfAEeaAkZnoSVuUluzx7-302" vertex="1">
          <mxGeometry x="473" width="77" height="51" as="geometry">
            <mxRectangle width="77" height="51" as="alternateBounds" />
          </mxGeometry>
        </mxCell>
        <mxCell id="SfAEeaAkZnoSVuUluzx7-308" style="shape=tableRow;horizontal=0;startSize=0;swimlaneHead=0;swimlaneBody=0;top=0;left=0;bottom=0;right=0;collapsible=0;dropTarget=0;fillColor=none;points=[[0,0.5],[1,0.5]];portConstraint=eastwest;fontFamily=Helvetica;fontSize=11;fontColor=default;" parent="SfAEeaAkZnoSVuUluzx7-289" vertex="1">
          <mxGeometry y="134" width="550" height="50" as="geometry" />
        </mxCell>
        <mxCell id="SfAEeaAkZnoSVuUluzx7-309" value="&lt;span style=&quot;color: rgb(0, 0, 0); font-size: 12px; text-align: left;&quot;&gt;ADEGA&amp;nbsp;&lt;/span&gt;&lt;span style=&quot;color: rgb(0, 0, 0); font-size: 12px; text-align: left;&quot;&gt;   &lt;/span&gt;&lt;span style=&quot;color: rgb(0, 0, 0); font-size: 12px; text-align: left;&quot;&gt; &lt;/span&gt;" style="shape=partialRectangle;html=1;whiteSpace=wrap;connectable=0;fillColor=none;top=0;left=0;bottom=0;right=0;overflow=hidden;fontFamily=Helvetica;fontSize=11;fontColor=default;" parent="SfAEeaAkZnoSVuUluzx7-308" vertex="1">
          <mxGeometry width="156" height="50" as="geometry">
            <mxRectangle width="156" height="50" as="alternateBounds" />
          </mxGeometry>
        </mxCell>
        <mxCell id="SfAEeaAkZnoSVuUluzx7-310" value="#2.5" style="shape=partialRectangle;html=1;whiteSpace=wrap;connectable=0;fillColor=none;top=0;left=0;bottom=0;right=0;overflow=hidden;fontFamily=Helvetica;fontSize=11;fontColor=default;" parent="SfAEeaAkZnoSVuUluzx7-308" vertex="1">
          <mxGeometry x="156" width="97" height="50" as="geometry">
            <mxRectangle width="97" height="50" as="alternateBounds" />
          </mxGeometry>
        </mxCell>
        <mxCell id="SfAEeaAkZnoSVuUluzx7-311" value="20A" style="shape=partialRectangle;html=1;whiteSpace=wrap;connectable=0;fillColor=none;top=0;left=0;bottom=0;right=0;overflow=hidden;fontFamily=Helvetica;fontSize=11;fontColor=default;" parent="SfAEeaAkZnoSVuUluzx7-308" vertex="1">
          <mxGeometry x="253" width="142" height="50" as="geometry">
            <mxRectangle width="142" height="50" as="alternateBounds" />
          </mxGeometry>
        </mxCell>
        <mxCell id="SfAEeaAkZnoSVuUluzx7-312" value="2F" style="shape=partialRectangle;html=1;whiteSpace=wrap;connectable=0;fillColor=none;top=0;left=0;bottom=0;right=0;overflow=hidden;pointerEvents=1;fontFamily=Helvetica;fontSize=11;fontColor=default;" parent="SfAEeaAkZnoSVuUluzx7-308" vertex="1">
          <mxGeometry x="395" width="78" height="50" as="geometry">
            <mxRectangle width="78" height="50" as="alternateBounds" />
          </mxGeometry>
        </mxCell>
        <mxCell id="SfAEeaAkZnoSVuUluzx7-313" value="4KW" style="shape=partialRectangle;html=1;whiteSpace=wrap;connectable=0;fillColor=none;top=0;left=0;bottom=0;right=0;overflow=hidden;pointerEvents=1;fontFamily=Helvetica;fontSize=11;fontColor=default;" parent="SfAEeaAkZnoSVuUluzx7-308" vertex="1">
          <mxGeometry x="473" width="77" height="50" as="geometry">
            <mxRectangle width="77" height="50" as="alternateBounds" />
          </mxGeometry>
        </mxCell>
        <mxCell id="SfAEeaAkZnoSVuUluzx7-325" value="MONTPARNASSE" style="swimlane;html=1;fontStyle=0;childLayout=stackLayout;horizontal=1;startSize=26;fillColor=#e0e0e0;horizontalStack=0;resizeParent=1;resizeLast=0;collapsible=1;marginBottom=0;swimlaneFillColor=#ffffff;align=center;rounded=1;shadow=0;comic=0;labelBackgroundColor=none;strokeWidth=1;fontFamily=Verdana;fontSize=12;fontColor=#000000;" parent="1" vertex="1">
          <mxGeometry x="-1040" y="610" width="550" height="209" as="geometry">
            <mxRectangle x="160" y="74" width="90" height="30" as="alternateBounds" />
          </mxGeometry>
        </mxCell>
        <mxCell id="SfAEeaAkZnoSVuUluzx7-326" value="" style="shape=table;html=1;whiteSpace=wrap;startSize=0;container=1;collapsible=0;childLayout=tableLayout;fontFamily=Helvetica;fontSize=11;fontColor=default;fillColor=#006666;gradientColor=#004C99;gradientDirection=east;" parent="SfAEeaAkZnoSVuUluzx7-325" vertex="1">
          <mxGeometry y="26" width="550" height="183" as="geometry" />
        </mxCell>
        <mxCell id="SfAEeaAkZnoSVuUluzx7-327" value="" style="shape=tableRow;horizontal=0;startSize=0;swimlaneHead=0;swimlaneBody=0;top=0;left=0;bottom=0;right=0;collapsible=0;dropTarget=0;fillColor=none;points=[[0,0.5],[1,0.5]];portConstraint=eastwest;fontFamily=Helvetica;fontSize=11;fontColor=default;" parent="SfAEeaAkZnoSVuUluzx7-326" vertex="1">
          <mxGeometry width="550" height="31" as="geometry" />
        </mxCell>
        <mxCell id="SfAEeaAkZnoSVuUluzx7-328" value="ITEM" style="shape=partialRectangle;html=1;whiteSpace=wrap;connectable=0;fillColor=none;top=0;left=0;bottom=0;right=0;overflow=hidden;fontFamily=Helvetica;fontSize=11;fontColor=default;" parent="SfAEeaAkZnoSVuUluzx7-327" vertex="1">
          <mxGeometry width="156" height="31" as="geometry">
            <mxRectangle width="156" height="31" as="alternateBounds" />
          </mxGeometry>
        </mxCell>
        <mxCell id="SfAEeaAkZnoSVuUluzx7-329" value="SEÇÃO" style="shape=partialRectangle;html=1;whiteSpace=wrap;connectable=0;fillColor=none;top=0;left=0;bottom=0;right=0;overflow=hidden;fontFamily=Helvetica;fontSize=11;fontColor=default;" parent="SfAEeaAkZnoSVuUluzx7-327" vertex="1">
          <mxGeometry x="156" width="97" height="31" as="geometry">
            <mxRectangle width="97" height="31" as="alternateBounds" />
          </mxGeometry>
        </mxCell>
        <mxCell id="SfAEeaAkZnoSVuUluzx7-330" value="PROTEÇÃO" style="shape=partialRectangle;html=1;whiteSpace=wrap;connectable=0;fillColor=none;top=0;left=0;bottom=0;right=0;overflow=hidden;fontFamily=Helvetica;fontSize=11;fontColor=default;" parent="SfAEeaAkZnoSVuUluzx7-327" vertex="1">
          <mxGeometry x="253" width="142" height="31" as="geometry">
            <mxRectangle width="142" height="31" as="alternateBounds" />
          </mxGeometry>
        </mxCell>
        <mxCell id="SfAEeaAkZnoSVuUluzx7-331" value="N° FASES" style="shape=partialRectangle;html=1;whiteSpace=wrap;connectable=0;fillColor=none;top=0;left=0;bottom=0;right=0;overflow=hidden;fontFamily=Helvetica;fontSize=11;fontColor=default;" parent="SfAEeaAkZnoSVuUluzx7-327" vertex="1">
          <mxGeometry x="395" width="78" height="31" as="geometry">
            <mxRectangle width="78" height="31" as="alternateBounds" />
          </mxGeometry>
        </mxCell>
        <mxCell id="SfAEeaAkZnoSVuUluzx7-332" value="CARGA(W)" style="shape=partialRectangle;html=1;whiteSpace=wrap;connectable=0;fillColor=none;top=0;left=0;bottom=0;right=0;overflow=hidden;fontFamily=Helvetica;fontSize=11;fontColor=default;" parent="SfAEeaAkZnoSVuUluzx7-327" vertex="1">
          <mxGeometry x="473" width="77" height="31" as="geometry">
            <mxRectangle width="77" height="31" as="alternateBounds" />
          </mxGeometry>
        </mxCell>
        <mxCell id="SfAEeaAkZnoSVuUluzx7-333" style="shape=tableRow;horizontal=0;startSize=0;swimlaneHead=0;swimlaneBody=0;top=0;left=0;bottom=0;right=0;collapsible=0;dropTarget=0;fillColor=none;points=[[0,0.5],[1,0.5]];portConstraint=eastwest;fontFamily=Helvetica;fontSize=11;fontColor=default;" parent="SfAEeaAkZnoSVuUluzx7-326" vertex="1">
          <mxGeometry y="31" width="550" height="52" as="geometry" />
        </mxCell>
        <mxCell id="SfAEeaAkZnoSVuUluzx7-334" value="SAUNA" style="shape=partialRectangle;html=1;whiteSpace=wrap;connectable=0;fillColor=none;top=0;left=0;bottom=0;right=0;overflow=hidden;fontFamily=Helvetica;fontSize=11;fontColor=default;" parent="SfAEeaAkZnoSVuUluzx7-333" vertex="1">
          <mxGeometry width="156" height="52" as="geometry">
            <mxRectangle width="156" height="52" as="alternateBounds" />
          </mxGeometry>
        </mxCell>
        <mxCell id="SfAEeaAkZnoSVuUluzx7-335" value="#16.00" style="shape=partialRectangle;html=1;whiteSpace=wrap;connectable=0;fillColor=none;top=0;left=0;bottom=0;right=0;overflow=hidden;fontFamily=Helvetica;fontSize=11;fontColor=default;" parent="SfAEeaAkZnoSVuUluzx7-333" vertex="1">
          <mxGeometry x="156" width="97" height="52" as="geometry">
            <mxRectangle width="97" height="52" as="alternateBounds" />
          </mxGeometry>
        </mxCell>
        <mxCell id="SfAEeaAkZnoSVuUluzx7-336" value="63A" style="shape=partialRectangle;html=1;whiteSpace=wrap;connectable=0;fillColor=none;top=0;left=0;bottom=0;right=0;overflow=hidden;fontFamily=Helvetica;fontSize=11;fontColor=default;" parent="SfAEeaAkZnoSVuUluzx7-333" vertex="1">
          <mxGeometry x="253" width="142" height="52" as="geometry">
            <mxRectangle width="142" height="52" as="alternateBounds" />
          </mxGeometry>
        </mxCell>
        <mxCell id="SfAEeaAkZnoSVuUluzx7-337" value="3F" style="shape=partialRectangle;html=1;whiteSpace=wrap;connectable=0;fillColor=none;top=0;left=0;bottom=0;right=0;overflow=hidden;fontFamily=Helvetica;fontSize=11;fontColor=default;" parent="SfAEeaAkZnoSVuUluzx7-333" vertex="1">
          <mxGeometry x="395" width="78" height="52" as="geometry">
            <mxRectangle width="78" height="52" as="alternateBounds" />
          </mxGeometry>
        </mxCell>
        <mxCell id="SfAEeaAkZnoSVuUluzx7-338" value="12KW" style="shape=partialRectangle;html=1;whiteSpace=wrap;connectable=0;fillColor=none;top=0;left=0;bottom=0;right=0;overflow=hidden;fontFamily=Helvetica;fontSize=11;fontColor=default;" parent="SfAEeaAkZnoSVuUluzx7-333" vertex="1">
          <mxGeometry x="473" width="77" height="52" as="geometry">
            <mxRectangle width="77" height="52" as="alternateBounds" />
          </mxGeometry>
        </mxCell>
        <mxCell id="SfAEeaAkZnoSVuUluzx7-339" value="" style="shape=tableRow;horizontal=0;startSize=0;swimlaneHead=0;swimlaneBody=0;top=0;left=0;bottom=0;right=0;collapsible=0;dropTarget=0;fillColor=none;points=[[0,0.5],[1,0.5]];portConstraint=eastwest;fontFamily=Helvetica;fontSize=11;fontColor=default;" parent="SfAEeaAkZnoSVuUluzx7-326" vertex="1">
          <mxGeometry y="83" width="550" height="50" as="geometry" />
        </mxCell>
        <mxCell id="SfAEeaAkZnoSVuUluzx7-340" value="&lt;span style=&quot;color: rgb(0, 0, 0); font-size: 12px; text-align: left;&quot;&gt;B. CALOR&lt;/span&gt;&lt;span style=&quot;color: rgb(0, 0, 0); font-size: 12px; text-align: left;&quot;&gt;   &lt;/span&gt;" style="shape=partialRectangle;html=1;whiteSpace=wrap;connectable=0;fillColor=none;top=0;left=0;bottom=0;right=0;overflow=hidden;fontFamily=Helvetica;fontSize=11;fontColor=default;" parent="SfAEeaAkZnoSVuUluzx7-339" vertex="1">
          <mxGeometry width="156" height="50" as="geometry">
            <mxRectangle width="156" height="50" as="alternateBounds" />
          </mxGeometry>
        </mxCell>
        <mxCell id="SfAEeaAkZnoSVuUluzx7-341" value="&lt;span style=&quot;color: rgb(0, 0, 0); font-size: 12px; text-align: left;&quot;&gt;#2.5&amp;nbsp;&lt;/span&gt;" style="shape=partialRectangle;html=1;whiteSpace=wrap;connectable=0;fillColor=none;top=0;left=0;bottom=0;right=0;overflow=hidden;fontFamily=Helvetica;fontSize=11;fontColor=default;" parent="SfAEeaAkZnoSVuUluzx7-339" vertex="1">
          <mxGeometry x="156" width="97" height="50" as="geometry">
            <mxRectangle width="97" height="50" as="alternateBounds" />
          </mxGeometry>
        </mxCell>
        <mxCell id="SfAEeaAkZnoSVuUluzx7-342" value="&lt;span style=&quot;color: rgb(0, 0, 0); font-size: 12px; text-align: left;&quot;&gt;20A&amp;nbsp;&lt;/span&gt;" style="shape=partialRectangle;html=1;whiteSpace=wrap;connectable=0;fillColor=none;top=0;left=0;bottom=0;right=0;overflow=hidden;fontFamily=Helvetica;fontSize=11;fontColor=default;" parent="SfAEeaAkZnoSVuUluzx7-339" vertex="1">
          <mxGeometry x="253" width="142" height="50" as="geometry">
            <mxRectangle width="142" height="50" as="alternateBounds" />
          </mxGeometry>
        </mxCell>
        <mxCell id="SfAEeaAkZnoSVuUluzx7-343" value="&lt;span style=&quot;color: rgb(0, 0, 0); font-size: 12px; text-align: left;&quot;&gt;3F&lt;/span&gt;" style="shape=partialRectangle;html=1;whiteSpace=wrap;connectable=0;fillColor=none;top=0;left=0;bottom=0;right=0;overflow=hidden;pointerEvents=1;fontFamily=Helvetica;fontSize=11;fontColor=default;" parent="SfAEeaAkZnoSVuUluzx7-339" vertex="1">
          <mxGeometry x="395" width="78" height="50" as="geometry">
            <mxRectangle width="78" height="50" as="alternateBounds" />
          </mxGeometry>
        </mxCell>
        <mxCell id="SfAEeaAkZnoSVuUluzx7-344" value="5KW" style="shape=partialRectangle;html=1;whiteSpace=wrap;connectable=0;fillColor=none;top=0;left=0;bottom=0;right=0;overflow=hidden;pointerEvents=1;fontFamily=Helvetica;fontSize=11;fontColor=default;" parent="SfAEeaAkZnoSVuUluzx7-339" vertex="1">
          <mxGeometry x="473" width="77" height="50" as="geometry">
            <mxRectangle width="77" height="50" as="alternateBounds" />
          </mxGeometry>
        </mxCell>
        <mxCell id="SfAEeaAkZnoSVuUluzx7-345" style="shape=tableRow;horizontal=0;startSize=0;swimlaneHead=0;swimlaneBody=0;top=0;left=0;bottom=0;right=0;collapsible=0;dropTarget=0;fillColor=none;points=[[0,0.5],[1,0.5]];portConstraint=eastwest;fontFamily=Helvetica;fontSize=11;fontColor=default;" parent="SfAEeaAkZnoSVuUluzx7-326" vertex="1">
          <mxGeometry y="133" width="550" height="50" as="geometry" />
        </mxCell>
        <mxCell id="SfAEeaAkZnoSVuUluzx7-346" value="&lt;div style=&quot;text-align: left;&quot;&gt;&lt;span style=&quot;background-color: initial; font-size: 12px;&quot;&gt;&lt;font color=&quot;#000000&quot;&gt;SPA&lt;/font&gt;&lt;/span&gt;&lt;/div&gt;" style="shape=partialRectangle;html=1;whiteSpace=wrap;connectable=0;fillColor=none;top=0;left=0;bottom=0;right=0;overflow=hidden;fontFamily=Helvetica;fontSize=11;fontColor=default;" parent="SfAEeaAkZnoSVuUluzx7-345" vertex="1">
          <mxGeometry width="156" height="50" as="geometry">
            <mxRectangle width="156" height="50" as="alternateBounds" />
          </mxGeometry>
        </mxCell>
        <mxCell id="SfAEeaAkZnoSVuUluzx7-347" value="#10.00" style="shape=partialRectangle;html=1;whiteSpace=wrap;connectable=0;fillColor=none;top=0;left=0;bottom=0;right=0;overflow=hidden;fontFamily=Helvetica;fontSize=11;fontColor=default;" parent="SfAEeaAkZnoSVuUluzx7-345" vertex="1">
          <mxGeometry x="156" width="97" height="50" as="geometry">
            <mxRectangle width="97" height="50" as="alternateBounds" />
          </mxGeometry>
        </mxCell>
        <mxCell id="SfAEeaAkZnoSVuUluzx7-348" value="40A" style="shape=partialRectangle;html=1;whiteSpace=wrap;connectable=0;fillColor=none;top=0;left=0;bottom=0;right=0;overflow=hidden;fontFamily=Helvetica;fontSize=11;fontColor=default;" parent="SfAEeaAkZnoSVuUluzx7-345" vertex="1">
          <mxGeometry x="253" width="142" height="50" as="geometry">
            <mxRectangle width="142" height="50" as="alternateBounds" />
          </mxGeometry>
        </mxCell>
        <mxCell id="SfAEeaAkZnoSVuUluzx7-349" value="2F" style="shape=partialRectangle;html=1;whiteSpace=wrap;connectable=0;fillColor=none;top=0;left=0;bottom=0;right=0;overflow=hidden;pointerEvents=1;fontFamily=Helvetica;fontSize=11;fontColor=default;" parent="SfAEeaAkZnoSVuUluzx7-345" vertex="1">
          <mxGeometry x="395" width="78" height="50" as="geometry">
            <mxRectangle width="78" height="50" as="alternateBounds" />
          </mxGeometry>
        </mxCell>
        <mxCell id="SfAEeaAkZnoSVuUluzx7-350" value="8.5KW" style="shape=partialRectangle;html=1;whiteSpace=wrap;connectable=0;fillColor=none;top=0;left=0;bottom=0;right=0;overflow=hidden;pointerEvents=1;fontFamily=Helvetica;fontSize=11;fontColor=default;" parent="SfAEeaAkZnoSVuUluzx7-345" vertex="1">
          <mxGeometry x="473" width="77" height="50" as="geometry">
            <mxRectangle width="77" height="50" as="alternateBounds" />
          </mxGeometry>
        </mxCell>
        <mxCell id="SfAEeaAkZnoSVuUluzx7-362" value="MONTPARNASSE 1801" style="swimlane;html=1;fontStyle=0;childLayout=stackLayout;horizontal=1;startSize=26;fillColor=#e0e0e0;horizontalStack=0;resizeParent=1;resizeLast=0;collapsible=1;marginBottom=0;swimlaneFillColor=#ffffff;align=center;rounded=1;shadow=0;comic=0;labelBackgroundColor=none;strokeWidth=1;fontFamily=Verdana;fontSize=12;fontColor=#000000;" parent="1" vertex="1">
          <mxGeometry x="-1040" y="854" width="550" height="209" as="geometry">
            <mxRectangle x="160" y="74" width="90" height="30" as="alternateBounds" />
          </mxGeometry>
        </mxCell>
        <mxCell id="SfAEeaAkZnoSVuUluzx7-363" value="" style="shape=table;html=1;whiteSpace=wrap;startSize=0;container=1;collapsible=0;childLayout=tableLayout;fontFamily=Helvetica;fontSize=11;fontColor=default;fillColor=#006666;gradientColor=#004C99;gradientDirection=east;" parent="SfAEeaAkZnoSVuUluzx7-362" vertex="1">
          <mxGeometry y="26" width="550" height="183" as="geometry" />
        </mxCell>
        <mxCell id="SfAEeaAkZnoSVuUluzx7-364" value="" style="shape=tableRow;horizontal=0;startSize=0;swimlaneHead=0;swimlaneBody=0;top=0;left=0;bottom=0;right=0;collapsible=0;dropTarget=0;fillColor=none;points=[[0,0.5],[1,0.5]];portConstraint=eastwest;fontFamily=Helvetica;fontSize=11;fontColor=default;" parent="SfAEeaAkZnoSVuUluzx7-363" vertex="1">
          <mxGeometry width="550" height="31" as="geometry" />
        </mxCell>
        <mxCell id="SfAEeaAkZnoSVuUluzx7-365" value="ITEM" style="shape=partialRectangle;html=1;whiteSpace=wrap;connectable=0;fillColor=none;top=0;left=0;bottom=0;right=0;overflow=hidden;fontFamily=Helvetica;fontSize=11;fontColor=default;" parent="SfAEeaAkZnoSVuUluzx7-364" vertex="1">
          <mxGeometry width="156" height="31" as="geometry">
            <mxRectangle width="156" height="31" as="alternateBounds" />
          </mxGeometry>
        </mxCell>
        <mxCell id="SfAEeaAkZnoSVuUluzx7-366" value="SEÇÃO" style="shape=partialRectangle;html=1;whiteSpace=wrap;connectable=0;fillColor=none;top=0;left=0;bottom=0;right=0;overflow=hidden;fontFamily=Helvetica;fontSize=11;fontColor=default;" parent="SfAEeaAkZnoSVuUluzx7-364" vertex="1">
          <mxGeometry x="156" width="97" height="31" as="geometry">
            <mxRectangle width="97" height="31" as="alternateBounds" />
          </mxGeometry>
        </mxCell>
        <mxCell id="SfAEeaAkZnoSVuUluzx7-367" value="PROTEÇÃO" style="shape=partialRectangle;html=1;whiteSpace=wrap;connectable=0;fillColor=none;top=0;left=0;bottom=0;right=0;overflow=hidden;fontFamily=Helvetica;fontSize=11;fontColor=default;" parent="SfAEeaAkZnoSVuUluzx7-364" vertex="1">
          <mxGeometry x="253" width="142" height="31" as="geometry">
            <mxRectangle width="142" height="31" as="alternateBounds" />
          </mxGeometry>
        </mxCell>
        <mxCell id="SfAEeaAkZnoSVuUluzx7-368" value="N° FASES" style="shape=partialRectangle;html=1;whiteSpace=wrap;connectable=0;fillColor=none;top=0;left=0;bottom=0;right=0;overflow=hidden;fontFamily=Helvetica;fontSize=11;fontColor=default;" parent="SfAEeaAkZnoSVuUluzx7-364" vertex="1">
          <mxGeometry x="395" width="78" height="31" as="geometry">
            <mxRectangle width="78" height="31" as="alternateBounds" />
          </mxGeometry>
        </mxCell>
        <mxCell id="SfAEeaAkZnoSVuUluzx7-369" value="CARGA(W)" style="shape=partialRectangle;html=1;whiteSpace=wrap;connectable=0;fillColor=none;top=0;left=0;bottom=0;right=0;overflow=hidden;fontFamily=Helvetica;fontSize=11;fontColor=default;" parent="SfAEeaAkZnoSVuUluzx7-364" vertex="1">
          <mxGeometry x="473" width="77" height="31" as="geometry">
            <mxRectangle width="77" height="31" as="alternateBounds" />
          </mxGeometry>
        </mxCell>
        <mxCell id="SfAEeaAkZnoSVuUluzx7-370" style="shape=tableRow;horizontal=0;startSize=0;swimlaneHead=0;swimlaneBody=0;top=0;left=0;bottom=0;right=0;collapsible=0;dropTarget=0;fillColor=none;points=[[0,0.5],[1,0.5]];portConstraint=eastwest;fontFamily=Helvetica;fontSize=11;fontColor=default;" parent="SfAEeaAkZnoSVuUluzx7-363" vertex="1">
          <mxGeometry y="31" width="550" height="52" as="geometry" />
        </mxCell>
        <mxCell id="SfAEeaAkZnoSVuUluzx7-371" value="SAUNA" style="shape=partialRectangle;html=1;whiteSpace=wrap;connectable=0;fillColor=none;top=0;left=0;bottom=0;right=0;overflow=hidden;fontFamily=Helvetica;fontSize=11;fontColor=default;" parent="SfAEeaAkZnoSVuUluzx7-370" vertex="1">
          <mxGeometry width="156" height="52" as="geometry">
            <mxRectangle width="156" height="52" as="alternateBounds" />
          </mxGeometry>
        </mxCell>
        <mxCell id="SfAEeaAkZnoSVuUluzx7-372" value="#10.00" style="shape=partialRectangle;html=1;whiteSpace=wrap;connectable=0;fillColor=none;top=0;left=0;bottom=0;right=0;overflow=hidden;fontFamily=Helvetica;fontSize=11;fontColor=default;" parent="SfAEeaAkZnoSVuUluzx7-370" vertex="1">
          <mxGeometry x="156" width="97" height="52" as="geometry">
            <mxRectangle width="97" height="52" as="alternateBounds" />
          </mxGeometry>
        </mxCell>
        <mxCell id="SfAEeaAkZnoSVuUluzx7-373" value="50A" style="shape=partialRectangle;html=1;whiteSpace=wrap;connectable=0;fillColor=none;top=0;left=0;bottom=0;right=0;overflow=hidden;fontFamily=Helvetica;fontSize=11;fontColor=default;" parent="SfAEeaAkZnoSVuUluzx7-370" vertex="1">
          <mxGeometry x="253" width="142" height="52" as="geometry">
            <mxRectangle width="142" height="52" as="alternateBounds" />
          </mxGeometry>
        </mxCell>
        <mxCell id="SfAEeaAkZnoSVuUluzx7-374" value="3F" style="shape=partialRectangle;html=1;whiteSpace=wrap;connectable=0;fillColor=none;top=0;left=0;bottom=0;right=0;overflow=hidden;fontFamily=Helvetica;fontSize=11;fontColor=default;" parent="SfAEeaAkZnoSVuUluzx7-370" vertex="1">
          <mxGeometry x="395" width="78" height="52" as="geometry">
            <mxRectangle width="78" height="52" as="alternateBounds" />
          </mxGeometry>
        </mxCell>
        <mxCell id="SfAEeaAkZnoSVuUluzx7-375" value="18KW" style="shape=partialRectangle;html=1;whiteSpace=wrap;connectable=0;fillColor=none;top=0;left=0;bottom=0;right=0;overflow=hidden;fontFamily=Helvetica;fontSize=11;fontColor=default;" parent="SfAEeaAkZnoSVuUluzx7-370" vertex="1">
          <mxGeometry x="473" width="77" height="52" as="geometry">
            <mxRectangle width="77" height="52" as="alternateBounds" />
          </mxGeometry>
        </mxCell>
        <mxCell id="SfAEeaAkZnoSVuUluzx7-376" value="" style="shape=tableRow;horizontal=0;startSize=0;swimlaneHead=0;swimlaneBody=0;top=0;left=0;bottom=0;right=0;collapsible=0;dropTarget=0;fillColor=none;points=[[0,0.5],[1,0.5]];portConstraint=eastwest;fontFamily=Helvetica;fontSize=11;fontColor=default;" parent="SfAEeaAkZnoSVuUluzx7-363" vertex="1">
          <mxGeometry y="83" width="550" height="50" as="geometry" />
        </mxCell>
        <mxCell id="SfAEeaAkZnoSVuUluzx7-377" value="&lt;span style=&quot;color: rgb(0, 0, 0); font-size: 12px; text-align: left;&quot;&gt;B. CALOR&lt;/span&gt;&lt;span style=&quot;color: rgb(0, 0, 0); font-size: 12px; text-align: left;&quot;&gt;   &lt;/span&gt;" style="shape=partialRectangle;html=1;whiteSpace=wrap;connectable=0;fillColor=none;top=0;left=0;bottom=0;right=0;overflow=hidden;fontFamily=Helvetica;fontSize=11;fontColor=default;" parent="SfAEeaAkZnoSVuUluzx7-376" vertex="1">
          <mxGeometry width="156" height="50" as="geometry">
            <mxRectangle width="156" height="50" as="alternateBounds" />
          </mxGeometry>
        </mxCell>
        <mxCell id="SfAEeaAkZnoSVuUluzx7-378" value="&lt;span style=&quot;color: rgb(0, 0, 0); font-size: 12px; text-align: left;&quot;&gt;#4.00&amp;nbsp;&lt;/span&gt;" style="shape=partialRectangle;html=1;whiteSpace=wrap;connectable=0;fillColor=none;top=0;left=0;bottom=0;right=0;overflow=hidden;fontFamily=Helvetica;fontSize=11;fontColor=default;" parent="SfAEeaAkZnoSVuUluzx7-376" vertex="1">
          <mxGeometry x="156" width="97" height="50" as="geometry">
            <mxRectangle width="97" height="50" as="alternateBounds" />
          </mxGeometry>
        </mxCell>
        <mxCell id="SfAEeaAkZnoSVuUluzx7-379" value="&lt;span style=&quot;color: rgb(0, 0, 0); font-size: 12px; text-align: left;&quot;&gt;20A&amp;nbsp;&lt;/span&gt;" style="shape=partialRectangle;html=1;whiteSpace=wrap;connectable=0;fillColor=none;top=0;left=0;bottom=0;right=0;overflow=hidden;fontFamily=Helvetica;fontSize=11;fontColor=default;" parent="SfAEeaAkZnoSVuUluzx7-376" vertex="1">
          <mxGeometry x="253" width="142" height="50" as="geometry">
            <mxRectangle width="142" height="50" as="alternateBounds" />
          </mxGeometry>
        </mxCell>
        <mxCell id="SfAEeaAkZnoSVuUluzx7-380" value="&lt;span style=&quot;color: rgb(0, 0, 0); font-size: 12px; text-align: left;&quot;&gt;3F&lt;/span&gt;" style="shape=partialRectangle;html=1;whiteSpace=wrap;connectable=0;fillColor=none;top=0;left=0;bottom=0;right=0;overflow=hidden;pointerEvents=1;fontFamily=Helvetica;fontSize=11;fontColor=default;" parent="SfAEeaAkZnoSVuUluzx7-376" vertex="1">
          <mxGeometry x="395" width="78" height="50" as="geometry">
            <mxRectangle width="78" height="50" as="alternateBounds" />
          </mxGeometry>
        </mxCell>
        <mxCell id="SfAEeaAkZnoSVuUluzx7-381" value="5KW" style="shape=partialRectangle;html=1;whiteSpace=wrap;connectable=0;fillColor=none;top=0;left=0;bottom=0;right=0;overflow=hidden;pointerEvents=1;fontFamily=Helvetica;fontSize=11;fontColor=default;" parent="SfAEeaAkZnoSVuUluzx7-376" vertex="1">
          <mxGeometry x="473" width="77" height="50" as="geometry">
            <mxRectangle width="77" height="50" as="alternateBounds" />
          </mxGeometry>
        </mxCell>
        <mxCell id="SfAEeaAkZnoSVuUluzx7-382" style="shape=tableRow;horizontal=0;startSize=0;swimlaneHead=0;swimlaneBody=0;top=0;left=0;bottom=0;right=0;collapsible=0;dropTarget=0;fillColor=none;points=[[0,0.5],[1,0.5]];portConstraint=eastwest;fontFamily=Helvetica;fontSize=11;fontColor=default;" parent="SfAEeaAkZnoSVuUluzx7-363" vertex="1">
          <mxGeometry y="133" width="550" height="50" as="geometry" />
        </mxCell>
        <mxCell id="SfAEeaAkZnoSVuUluzx7-383" value="&lt;span style=&quot;color: rgb(0, 0, 0); font-size: 12px; text-align: left;&quot;&gt;F. PISCINA&lt;/span&gt;&lt;span style=&quot;color: rgb(0, 0, 0); font-size: 12px; text-align: left;&quot;&gt;&lt;/span&gt;&lt;span style=&quot;color: rgb(0, 0, 0); font-size: 12px; text-align: left;&quot;&gt;&lt;/span&gt;" style="shape=partialRectangle;html=1;whiteSpace=wrap;connectable=0;fillColor=none;top=0;left=0;bottom=0;right=0;overflow=hidden;fontFamily=Helvetica;fontSize=11;fontColor=default;" parent="SfAEeaAkZnoSVuUluzx7-382" vertex="1">
          <mxGeometry width="156" height="50" as="geometry">
            <mxRectangle width="156" height="50" as="alternateBounds" />
          </mxGeometry>
        </mxCell>
        <mxCell id="SfAEeaAkZnoSVuUluzx7-384" value="#4.00" style="shape=partialRectangle;html=1;whiteSpace=wrap;connectable=0;fillColor=none;top=0;left=0;bottom=0;right=0;overflow=hidden;fontFamily=Helvetica;fontSize=11;fontColor=default;" parent="SfAEeaAkZnoSVuUluzx7-382" vertex="1">
          <mxGeometry x="156" width="97" height="50" as="geometry">
            <mxRectangle width="97" height="50" as="alternateBounds" />
          </mxGeometry>
        </mxCell>
        <mxCell id="SfAEeaAkZnoSVuUluzx7-385" value="20A" style="shape=partialRectangle;html=1;whiteSpace=wrap;connectable=0;fillColor=none;top=0;left=0;bottom=0;right=0;overflow=hidden;fontFamily=Helvetica;fontSize=11;fontColor=default;" parent="SfAEeaAkZnoSVuUluzx7-382" vertex="1">
          <mxGeometry x="253" width="142" height="50" as="geometry">
            <mxRectangle width="142" height="50" as="alternateBounds" />
          </mxGeometry>
        </mxCell>
        <mxCell id="SfAEeaAkZnoSVuUluzx7-386" value="3F" style="shape=partialRectangle;html=1;whiteSpace=wrap;connectable=0;fillColor=none;top=0;left=0;bottom=0;right=0;overflow=hidden;pointerEvents=1;fontFamily=Helvetica;fontSize=11;fontColor=default;" parent="SfAEeaAkZnoSVuUluzx7-382" vertex="1">
          <mxGeometry x="395" width="78" height="50" as="geometry">
            <mxRectangle width="78" height="50" as="alternateBounds" />
          </mxGeometry>
        </mxCell>
        <mxCell id="SfAEeaAkZnoSVuUluzx7-387" value="1.5KW" style="shape=partialRectangle;html=1;whiteSpace=wrap;connectable=0;fillColor=none;top=0;left=0;bottom=0;right=0;overflow=hidden;pointerEvents=1;fontFamily=Helvetica;fontSize=11;fontColor=default;" parent="SfAEeaAkZnoSVuUluzx7-382" vertex="1">
          <mxGeometry x="473" width="77" height="50" as="geometry">
            <mxRectangle width="77" height="50" as="alternateBounds" />
          </mxGeometry>
        </mxCell>
        <mxCell id="SfAEeaAkZnoSVuUluzx7-388" style="edgeStyle=orthogonalEdgeStyle;shape=connector;rounded=1;jumpStyle=sharp;orthogonalLoop=1;jettySize=auto;html=1;labelBackgroundColor=default;strokeColor=#B3FF66;strokeWidth=2;fontFamily=Helvetica;fontSize=11;fontColor=default;endArrow=classic;entryX=0.006;entryY=0.462;entryDx=0;entryDy=0;entryPerimeter=0;" parent="1" source="SfAEeaAkZnoSVuUluzx7-296" target="SfAEeaAkZnoSVuUluzx7-20" edge="1">
          <mxGeometry relative="1" as="geometry">
            <mxPoint x="-2460" y="363" as="targetPoint" />
          </mxGeometry>
        </mxCell>
        <mxCell id="SfAEeaAkZnoSVuUluzx7-389" value="DUO" style="swimlane;html=1;fontStyle=0;childLayout=stackLayout;horizontal=1;startSize=26;fillColor=#e0e0e0;horizontalStack=0;resizeParent=1;resizeLast=0;collapsible=1;marginBottom=0;swimlaneFillColor=#ffffff;align=center;rounded=1;shadow=0;comic=0;labelBackgroundColor=none;strokeWidth=1;fontFamily=Verdana;fontSize=12;fontColor=#000000;" parent="1" vertex="1">
          <mxGeometry x="-1040" y="1094" width="550" height="259" as="geometry">
            <mxRectangle x="160" y="74" width="90" height="30" as="alternateBounds" />
          </mxGeometry>
        </mxCell>
        <mxCell id="SfAEeaAkZnoSVuUluzx7-390" value="" style="shape=table;html=1;whiteSpace=wrap;startSize=0;container=1;collapsible=0;childLayout=tableLayout;fontFamily=Helvetica;fontSize=11;fontColor=default;fillColor=#006666;gradientColor=#004C99;gradientDirection=east;" parent="SfAEeaAkZnoSVuUluzx7-389" vertex="1">
          <mxGeometry y="26" width="550" height="233" as="geometry" />
        </mxCell>
        <mxCell id="SfAEeaAkZnoSVuUluzx7-391" value="" style="shape=tableRow;horizontal=0;startSize=0;swimlaneHead=0;swimlaneBody=0;top=0;left=0;bottom=0;right=0;collapsible=0;dropTarget=0;fillColor=none;points=[[0,0.5],[1,0.5]];portConstraint=eastwest;fontFamily=Helvetica;fontSize=11;fontColor=default;" parent="SfAEeaAkZnoSVuUluzx7-390" vertex="1">
          <mxGeometry width="550" height="31" as="geometry" />
        </mxCell>
        <mxCell id="SfAEeaAkZnoSVuUluzx7-392" value="ITEM" style="shape=partialRectangle;html=1;whiteSpace=wrap;connectable=0;fillColor=none;top=0;left=0;bottom=0;right=0;overflow=hidden;fontFamily=Helvetica;fontSize=11;fontColor=default;" parent="SfAEeaAkZnoSVuUluzx7-391" vertex="1">
          <mxGeometry width="156" height="31" as="geometry">
            <mxRectangle width="156" height="31" as="alternateBounds" />
          </mxGeometry>
        </mxCell>
        <mxCell id="SfAEeaAkZnoSVuUluzx7-393" value="SEÇÃO" style="shape=partialRectangle;html=1;whiteSpace=wrap;connectable=0;fillColor=none;top=0;left=0;bottom=0;right=0;overflow=hidden;fontFamily=Helvetica;fontSize=11;fontColor=default;" parent="SfAEeaAkZnoSVuUluzx7-391" vertex="1">
          <mxGeometry x="156" width="97" height="31" as="geometry">
            <mxRectangle width="97" height="31" as="alternateBounds" />
          </mxGeometry>
        </mxCell>
        <mxCell id="SfAEeaAkZnoSVuUluzx7-394" value="PROTEÇÃO" style="shape=partialRectangle;html=1;whiteSpace=wrap;connectable=0;fillColor=none;top=0;left=0;bottom=0;right=0;overflow=hidden;fontFamily=Helvetica;fontSize=11;fontColor=default;" parent="SfAEeaAkZnoSVuUluzx7-391" vertex="1">
          <mxGeometry x="253" width="142" height="31" as="geometry">
            <mxRectangle width="142" height="31" as="alternateBounds" />
          </mxGeometry>
        </mxCell>
        <mxCell id="SfAEeaAkZnoSVuUluzx7-395" value="N° FASES" style="shape=partialRectangle;html=1;whiteSpace=wrap;connectable=0;fillColor=none;top=0;left=0;bottom=0;right=0;overflow=hidden;fontFamily=Helvetica;fontSize=11;fontColor=default;" parent="SfAEeaAkZnoSVuUluzx7-391" vertex="1">
          <mxGeometry x="395" width="78" height="31" as="geometry">
            <mxRectangle width="78" height="31" as="alternateBounds" />
          </mxGeometry>
        </mxCell>
        <mxCell id="SfAEeaAkZnoSVuUluzx7-396" value="CARGA(W)" style="shape=partialRectangle;html=1;whiteSpace=wrap;connectable=0;fillColor=none;top=0;left=0;bottom=0;right=0;overflow=hidden;fontFamily=Helvetica;fontSize=11;fontColor=default;" parent="SfAEeaAkZnoSVuUluzx7-391" vertex="1">
          <mxGeometry x="473" width="77" height="31" as="geometry">
            <mxRectangle width="77" height="31" as="alternateBounds" />
          </mxGeometry>
        </mxCell>
        <mxCell id="SfAEeaAkZnoSVuUluzx7-397" value="" style="shape=tableRow;horizontal=0;startSize=0;swimlaneHead=0;swimlaneBody=0;top=0;left=0;bottom=0;right=0;collapsible=0;dropTarget=0;fillColor=none;points=[[0,0.5],[1,0.5]];portConstraint=eastwest;fontFamily=Helvetica;fontSize=11;fontColor=default;" parent="SfAEeaAkZnoSVuUluzx7-390" vertex="1">
          <mxGeometry y="31" width="550" height="52" as="geometry" />
        </mxCell>
        <mxCell id="SfAEeaAkZnoSVuUluzx7-398" value="&lt;span style=&quot;color: rgb(0, 0, 0); font-size: 12px; text-align: left;&quot;&gt;SAUNA&lt;/span&gt;&lt;span style=&quot;color: rgb(0, 0, 0); font-size: 12px; text-align: left;&quot;&gt; &lt;/span&gt;&lt;span style=&quot;color: rgb(0, 0, 0); font-size: 12px; text-align: left;&quot;&gt;&amp;nbsp;&lt;/span&gt;" style="shape=partialRectangle;html=1;whiteSpace=wrap;connectable=0;fillColor=none;top=0;left=0;bottom=0;right=0;overflow=hidden;fontFamily=Helvetica;fontSize=11;fontColor=default;" parent="SfAEeaAkZnoSVuUluzx7-397" vertex="1">
          <mxGeometry width="156" height="52" as="geometry">
            <mxRectangle width="156" height="52" as="alternateBounds" />
          </mxGeometry>
        </mxCell>
        <mxCell id="SfAEeaAkZnoSVuUluzx7-399" value="&lt;span style=&quot;color: rgb(0, 0, 0); font-size: 12px; text-align: left;&quot;&gt;#10.00&amp;nbsp;&lt;/span&gt;&lt;span style=&quot;color: rgb(0, 0, 0); font-size: 12px; text-align: left;&quot;&gt;&amp;nbsp;&lt;/span&gt;" style="shape=partialRectangle;html=1;whiteSpace=wrap;connectable=0;fillColor=none;top=0;left=0;bottom=0;right=0;overflow=hidden;fontFamily=Helvetica;fontSize=11;fontColor=default;" parent="SfAEeaAkZnoSVuUluzx7-397" vertex="1">
          <mxGeometry x="156" width="97" height="52" as="geometry">
            <mxRectangle width="97" height="52" as="alternateBounds" />
          </mxGeometry>
        </mxCell>
        <mxCell id="SfAEeaAkZnoSVuUluzx7-400" value="&lt;span style=&quot;color: rgb(0, 0, 0); font-size: 12px; text-align: left;&quot;&gt;&amp;nbsp; 40A&amp;nbsp; &amp;nbsp; &amp;nbsp;&lt;/span&gt;&lt;span style=&quot;color: rgb(0, 0, 0); font-size: 12px; text-align: left;&quot;&gt;&amp;nbsp;&lt;/span&gt;" style="shape=partialRectangle;html=1;whiteSpace=wrap;connectable=0;fillColor=none;top=0;left=0;bottom=0;right=0;overflow=hidden;fontFamily=Helvetica;fontSize=11;fontColor=default;" parent="SfAEeaAkZnoSVuUluzx7-397" vertex="1">
          <mxGeometry x="253" width="142" height="52" as="geometry">
            <mxRectangle width="142" height="52" as="alternateBounds" />
          </mxGeometry>
        </mxCell>
        <mxCell id="SfAEeaAkZnoSVuUluzx7-401" value="&lt;span style=&quot;color: rgb(0, 0, 0); font-size: 12px; text-align: left;&quot;&gt;&amp;nbsp; &amp;nbsp; &amp;nbsp;3F&amp;nbsp; &amp;nbsp; &amp;nbsp;&lt;/span&gt;&lt;span style=&quot;color: rgb(0, 0, 0); font-size: 12px; text-align: left;&quot;&gt;&amp;nbsp;&lt;/span&gt;" style="shape=partialRectangle;html=1;whiteSpace=wrap;connectable=0;fillColor=none;top=0;left=0;bottom=0;right=0;overflow=hidden;fontFamily=Helvetica;fontSize=11;fontColor=default;" parent="SfAEeaAkZnoSVuUluzx7-397" vertex="1">
          <mxGeometry x="395" width="78" height="52" as="geometry">
            <mxRectangle width="78" height="52" as="alternateBounds" />
          </mxGeometry>
        </mxCell>
        <mxCell id="SfAEeaAkZnoSVuUluzx7-402" value="12KW" style="shape=partialRectangle;html=1;whiteSpace=wrap;connectable=0;fillColor=none;top=0;left=0;bottom=0;right=0;overflow=hidden;fontFamily=Helvetica;fontSize=11;fontColor=default;" parent="SfAEeaAkZnoSVuUluzx7-397" vertex="1">
          <mxGeometry x="473" width="77" height="52" as="geometry">
            <mxRectangle width="77" height="52" as="alternateBounds" />
          </mxGeometry>
        </mxCell>
        <mxCell id="SfAEeaAkZnoSVuUluzx7-403" value="" style="shape=tableRow;horizontal=0;startSize=0;swimlaneHead=0;swimlaneBody=0;top=0;left=0;bottom=0;right=0;collapsible=0;dropTarget=0;fillColor=none;points=[[0,0.5],[1,0.5]];portConstraint=eastwest;fontFamily=Helvetica;fontSize=11;fontColor=default;" parent="SfAEeaAkZnoSVuUluzx7-390" vertex="1">
          <mxGeometry y="83" width="550" height="50" as="geometry" />
        </mxCell>
        <mxCell id="SfAEeaAkZnoSVuUluzx7-404" value="&lt;span style=&quot;color: rgb(0, 0, 0); font-size: 12px; text-align: left;&quot;&gt;B. CALOR&lt;/span&gt;&lt;span style=&quot;color: rgb(0, 0, 0); font-size: 12px; text-align: left;&quot;&gt;   &lt;/span&gt;" style="shape=partialRectangle;html=1;whiteSpace=wrap;connectable=0;fillColor=none;top=0;left=0;bottom=0;right=0;overflow=hidden;fontFamily=Helvetica;fontSize=11;fontColor=default;" parent="SfAEeaAkZnoSVuUluzx7-403" vertex="1">
          <mxGeometry width="156" height="50" as="geometry">
            <mxRectangle width="156" height="50" as="alternateBounds" />
          </mxGeometry>
        </mxCell>
        <mxCell id="SfAEeaAkZnoSVuUluzx7-405" value="&lt;span style=&quot;color: rgb(0, 0, 0); font-size: 12px; text-align: left;&quot;&gt;#2.5&lt;/span&gt;" style="shape=partialRectangle;html=1;whiteSpace=wrap;connectable=0;fillColor=none;top=0;left=0;bottom=0;right=0;overflow=hidden;fontFamily=Helvetica;fontSize=11;fontColor=default;" parent="SfAEeaAkZnoSVuUluzx7-403" vertex="1">
          <mxGeometry x="156" width="97" height="50" as="geometry">
            <mxRectangle width="97" height="50" as="alternateBounds" />
          </mxGeometry>
        </mxCell>
        <mxCell id="SfAEeaAkZnoSVuUluzx7-406" value="&lt;span style=&quot;color: rgb(0, 0, 0); font-size: 12px; text-align: left;&quot;&gt;16A&amp;nbsp;&lt;/span&gt;" style="shape=partialRectangle;html=1;whiteSpace=wrap;connectable=0;fillColor=none;top=0;left=0;bottom=0;right=0;overflow=hidden;fontFamily=Helvetica;fontSize=11;fontColor=default;" parent="SfAEeaAkZnoSVuUluzx7-403" vertex="1">
          <mxGeometry x="253" width="142" height="50" as="geometry">
            <mxRectangle width="142" height="50" as="alternateBounds" />
          </mxGeometry>
        </mxCell>
        <mxCell id="SfAEeaAkZnoSVuUluzx7-407" value="&lt;span style=&quot;color: rgb(0, 0, 0); font-size: 12px; text-align: left;&quot;&gt;2F&lt;/span&gt;" style="shape=partialRectangle;html=1;whiteSpace=wrap;connectable=0;fillColor=none;top=0;left=0;bottom=0;right=0;overflow=hidden;pointerEvents=1;fontFamily=Helvetica;fontSize=11;fontColor=default;" parent="SfAEeaAkZnoSVuUluzx7-403" vertex="1">
          <mxGeometry x="395" width="78" height="50" as="geometry">
            <mxRectangle width="78" height="50" as="alternateBounds" />
          </mxGeometry>
        </mxCell>
        <mxCell id="SfAEeaAkZnoSVuUluzx7-408" value="1KW" style="shape=partialRectangle;html=1;whiteSpace=wrap;connectable=0;fillColor=none;top=0;left=0;bottom=0;right=0;overflow=hidden;pointerEvents=1;fontFamily=Helvetica;fontSize=11;fontColor=default;" parent="SfAEeaAkZnoSVuUluzx7-403" vertex="1">
          <mxGeometry x="473" width="77" height="50" as="geometry">
            <mxRectangle width="77" height="50" as="alternateBounds" />
          </mxGeometry>
        </mxCell>
        <mxCell id="SfAEeaAkZnoSVuUluzx7-409" style="shape=tableRow;horizontal=0;startSize=0;swimlaneHead=0;swimlaneBody=0;top=0;left=0;bottom=0;right=0;collapsible=0;dropTarget=0;fillColor=none;points=[[0,0.5],[1,0.5]];portConstraint=eastwest;fontFamily=Helvetica;fontSize=11;fontColor=default;" parent="SfAEeaAkZnoSVuUluzx7-390" vertex="1">
          <mxGeometry y="133" width="550" height="50" as="geometry" />
        </mxCell>
        <mxCell id="SfAEeaAkZnoSVuUluzx7-410" value="&lt;span style=&quot;color: rgb(0, 0, 0); font-size: 12px; text-align: left;&quot;&gt;ADEGA&amp;nbsp;&lt;/span&gt;&lt;span style=&quot;color: rgb(0, 0, 0); font-size: 12px; text-align: left;&quot;&gt;   &lt;/span&gt;&lt;span style=&quot;color: rgb(0, 0, 0); font-size: 12px; text-align: left;&quot;&gt; &lt;/span&gt;" style="shape=partialRectangle;html=1;whiteSpace=wrap;connectable=0;fillColor=none;top=0;left=0;bottom=0;right=0;overflow=hidden;fontFamily=Helvetica;fontSize=11;fontColor=default;" parent="SfAEeaAkZnoSVuUluzx7-409" vertex="1">
          <mxGeometry width="156" height="50" as="geometry">
            <mxRectangle width="156" height="50" as="alternateBounds" />
          </mxGeometry>
        </mxCell>
        <mxCell id="SfAEeaAkZnoSVuUluzx7-411" value="#2.5" style="shape=partialRectangle;html=1;whiteSpace=wrap;connectable=0;fillColor=none;top=0;left=0;bottom=0;right=0;overflow=hidden;fontFamily=Helvetica;fontSize=11;fontColor=default;" parent="SfAEeaAkZnoSVuUluzx7-409" vertex="1">
          <mxGeometry x="156" width="97" height="50" as="geometry">
            <mxRectangle width="97" height="50" as="alternateBounds" />
          </mxGeometry>
        </mxCell>
        <mxCell id="SfAEeaAkZnoSVuUluzx7-412" value="16A" style="shape=partialRectangle;html=1;whiteSpace=wrap;connectable=0;fillColor=none;top=0;left=0;bottom=0;right=0;overflow=hidden;fontFamily=Helvetica;fontSize=11;fontColor=default;" parent="SfAEeaAkZnoSVuUluzx7-409" vertex="1">
          <mxGeometry x="253" width="142" height="50" as="geometry">
            <mxRectangle width="142" height="50" as="alternateBounds" />
          </mxGeometry>
        </mxCell>
        <mxCell id="SfAEeaAkZnoSVuUluzx7-413" value="1F" style="shape=partialRectangle;html=1;whiteSpace=wrap;connectable=0;fillColor=none;top=0;left=0;bottom=0;right=0;overflow=hidden;pointerEvents=1;fontFamily=Helvetica;fontSize=11;fontColor=default;" parent="SfAEeaAkZnoSVuUluzx7-409" vertex="1">
          <mxGeometry x="395" width="78" height="50" as="geometry">
            <mxRectangle width="78" height="50" as="alternateBounds" />
          </mxGeometry>
        </mxCell>
        <mxCell id="SfAEeaAkZnoSVuUluzx7-414" value="4KW" style="shape=partialRectangle;html=1;whiteSpace=wrap;connectable=0;fillColor=none;top=0;left=0;bottom=0;right=0;overflow=hidden;pointerEvents=1;fontFamily=Helvetica;fontSize=11;fontColor=default;" parent="SfAEeaAkZnoSVuUluzx7-409" vertex="1">
          <mxGeometry x="473" width="77" height="50" as="geometry">
            <mxRectangle width="77" height="50" as="alternateBounds" />
          </mxGeometry>
        </mxCell>
        <mxCell id="SfAEeaAkZnoSVuUluzx7-415" style="shape=tableRow;horizontal=0;startSize=0;swimlaneHead=0;swimlaneBody=0;top=0;left=0;bottom=0;right=0;collapsible=0;dropTarget=0;fillColor=none;points=[[0,0.5],[1,0.5]];portConstraint=eastwest;fontFamily=Helvetica;fontSize=11;fontColor=default;" parent="SfAEeaAkZnoSVuUluzx7-390" vertex="1">
          <mxGeometry y="183" width="550" height="50" as="geometry" />
        </mxCell>
        <mxCell id="SfAEeaAkZnoSVuUluzx7-416" value="&lt;span style=&quot;color: rgb(0, 0, 0); font-size: 12px; text-align: left;&quot;&gt;CONDENSADORA&lt;/span&gt;&lt;span style=&quot;color: rgb(0, 0, 0); font-size: 12px; text-align: left;&quot;&gt;&lt;/span&gt;" style="shape=partialRectangle;html=1;whiteSpace=wrap;connectable=0;fillColor=none;top=0;left=0;bottom=0;right=0;overflow=hidden;fontFamily=Helvetica;fontSize=11;fontColor=default;" parent="SfAEeaAkZnoSVuUluzx7-415" vertex="1">
          <mxGeometry width="156" height="50" as="geometry">
            <mxRectangle width="156" height="50" as="alternateBounds" />
          </mxGeometry>
        </mxCell>
        <mxCell id="SfAEeaAkZnoSVuUluzx7-417" value="#10.00" style="shape=partialRectangle;html=1;whiteSpace=wrap;connectable=0;fillColor=none;top=0;left=0;bottom=0;right=0;overflow=hidden;fontFamily=Helvetica;fontSize=11;fontColor=default;" parent="SfAEeaAkZnoSVuUluzx7-415" vertex="1">
          <mxGeometry x="156" width="97" height="50" as="geometry">
            <mxRectangle width="97" height="50" as="alternateBounds" />
          </mxGeometry>
        </mxCell>
        <mxCell id="SfAEeaAkZnoSVuUluzx7-418" value="50A" style="shape=partialRectangle;html=1;whiteSpace=wrap;connectable=0;fillColor=none;top=0;left=0;bottom=0;right=0;overflow=hidden;fontFamily=Helvetica;fontSize=11;fontColor=default;" parent="SfAEeaAkZnoSVuUluzx7-415" vertex="1">
          <mxGeometry x="253" width="142" height="50" as="geometry">
            <mxRectangle width="142" height="50" as="alternateBounds" />
          </mxGeometry>
        </mxCell>
        <mxCell id="SfAEeaAkZnoSVuUluzx7-419" value="3F" style="shape=partialRectangle;html=1;whiteSpace=wrap;connectable=0;fillColor=none;top=0;left=0;bottom=0;right=0;overflow=hidden;pointerEvents=1;fontFamily=Helvetica;fontSize=11;fontColor=default;" parent="SfAEeaAkZnoSVuUluzx7-415" vertex="1">
          <mxGeometry x="395" width="78" height="50" as="geometry">
            <mxRectangle width="78" height="50" as="alternateBounds" />
          </mxGeometry>
        </mxCell>
        <mxCell id="SfAEeaAkZnoSVuUluzx7-420" value="12KW" style="shape=partialRectangle;html=1;whiteSpace=wrap;connectable=0;fillColor=none;top=0;left=0;bottom=0;right=0;overflow=hidden;pointerEvents=1;fontFamily=Helvetica;fontSize=11;fontColor=default;" parent="SfAEeaAkZnoSVuUluzx7-415" vertex="1">
          <mxGeometry x="473" width="77" height="50" as="geometry">
            <mxRectangle width="77" height="50" as="alternateBounds" />
          </mxGeometry>
        </mxCell>
        <mxCell id="-e-ILqeZROQvLMbUx6ZE-2" value="JARDIM MANGABEIRAS" style="swimlane;html=1;fontStyle=0;childLayout=stackLayout;horizontal=1;startSize=26;fillColor=#e0e0e0;horizontalStack=0;resizeParent=1;resizeLast=0;collapsible=1;marginBottom=0;swimlaneFillColor=#ffffff;align=center;rounded=1;shadow=0;comic=0;labelBackgroundColor=none;strokeWidth=1;fontFamily=Verdana;fontSize=12;fontColor=#000000;" parent="1" vertex="1">
          <mxGeometry x="-3040" y="280" width="550" height="210" as="geometry">
            <mxRectangle x="160" y="74" width="90" height="30" as="alternateBounds" />
          </mxGeometry>
        </mxCell>
        <mxCell id="-e-ILqeZROQvLMbUx6ZE-3" value="" style="shape=table;html=1;whiteSpace=wrap;startSize=0;container=1;collapsible=0;childLayout=tableLayout;fontFamily=Helvetica;fontSize=11;fontColor=default;fillColor=#006666;gradientColor=#004C99;gradientDirection=east;" parent="-e-ILqeZROQvLMbUx6ZE-2" vertex="1">
          <mxGeometry y="26" width="550" height="184" as="geometry" />
        </mxCell>
        <mxCell id="-e-ILqeZROQvLMbUx6ZE-4" value="" style="shape=tableRow;horizontal=0;startSize=0;swimlaneHead=0;swimlaneBody=0;top=0;left=0;bottom=0;right=0;collapsible=0;dropTarget=0;fillColor=none;points=[[0,0.5],[1,0.5]];portConstraint=eastwest;fontFamily=Helvetica;fontSize=11;fontColor=default;" parent="-e-ILqeZROQvLMbUx6ZE-3" vertex="1">
          <mxGeometry width="550" height="31" as="geometry" />
        </mxCell>
        <mxCell id="-e-ILqeZROQvLMbUx6ZE-5" value="ITEM" style="shape=partialRectangle;html=1;whiteSpace=wrap;connectable=0;fillColor=none;top=0;left=0;bottom=0;right=0;overflow=hidden;fontFamily=Helvetica;fontSize=11;fontColor=default;" parent="-e-ILqeZROQvLMbUx6ZE-4" vertex="1">
          <mxGeometry width="156" height="31" as="geometry">
            <mxRectangle width="156" height="31" as="alternateBounds" />
          </mxGeometry>
        </mxCell>
        <mxCell id="-e-ILqeZROQvLMbUx6ZE-6" value="SEÇÃO" style="shape=partialRectangle;html=1;whiteSpace=wrap;connectable=0;fillColor=none;top=0;left=0;bottom=0;right=0;overflow=hidden;fontFamily=Helvetica;fontSize=11;fontColor=default;" parent="-e-ILqeZROQvLMbUx6ZE-4" vertex="1">
          <mxGeometry x="156" width="97" height="31" as="geometry">
            <mxRectangle width="97" height="31" as="alternateBounds" />
          </mxGeometry>
        </mxCell>
        <mxCell id="-e-ILqeZROQvLMbUx6ZE-7" value="PROTEÇÃO" style="shape=partialRectangle;html=1;whiteSpace=wrap;connectable=0;fillColor=none;top=0;left=0;bottom=0;right=0;overflow=hidden;fontFamily=Helvetica;fontSize=11;fontColor=default;" parent="-e-ILqeZROQvLMbUx6ZE-4" vertex="1">
          <mxGeometry x="253" width="142" height="31" as="geometry">
            <mxRectangle width="142" height="31" as="alternateBounds" />
          </mxGeometry>
        </mxCell>
        <mxCell id="-e-ILqeZROQvLMbUx6ZE-8" value="N° FASES" style="shape=partialRectangle;html=1;whiteSpace=wrap;connectable=0;fillColor=none;top=0;left=0;bottom=0;right=0;overflow=hidden;fontFamily=Helvetica;fontSize=11;fontColor=default;" parent="-e-ILqeZROQvLMbUx6ZE-4" vertex="1">
          <mxGeometry x="395" width="78" height="31" as="geometry">
            <mxRectangle width="78" height="31" as="alternateBounds" />
          </mxGeometry>
        </mxCell>
        <mxCell id="-e-ILqeZROQvLMbUx6ZE-9" value="CARGA(W)" style="shape=partialRectangle;html=1;whiteSpace=wrap;connectable=0;fillColor=none;top=0;left=0;bottom=0;right=0;overflow=hidden;fontFamily=Helvetica;fontSize=11;fontColor=default;" parent="-e-ILqeZROQvLMbUx6ZE-4" vertex="1">
          <mxGeometry x="473" width="77" height="31" as="geometry">
            <mxRectangle width="77" height="31" as="alternateBounds" />
          </mxGeometry>
        </mxCell>
        <mxCell id="-e-ILqeZROQvLMbUx6ZE-10" value="" style="shape=tableRow;horizontal=0;startSize=0;swimlaneHead=0;swimlaneBody=0;top=0;left=0;bottom=0;right=0;collapsible=0;dropTarget=0;fillColor=none;points=[[0,0.5],[1,0.5]];portConstraint=eastwest;fontFamily=Helvetica;fontSize=11;fontColor=default;" parent="-e-ILqeZROQvLMbUx6ZE-3" vertex="1">
          <mxGeometry y="31" width="550" height="52" as="geometry" />
        </mxCell>
        <mxCell id="-e-ILqeZROQvLMbUx6ZE-11" value="&lt;span style=&quot;color: rgb(0, 0, 0); font-size: 12px; text-align: left;&quot;&gt;SAUNA&lt;/span&gt;&lt;span style=&quot;color: rgb(0, 0, 0); font-size: 12px; text-align: left;&quot;&gt; &lt;/span&gt;&lt;span style=&quot;color: rgb(0, 0, 0); font-size: 12px; text-align: left;&quot;&gt;&amp;nbsp;&lt;/span&gt;" style="shape=partialRectangle;html=1;whiteSpace=wrap;connectable=0;fillColor=none;top=0;left=0;bottom=0;right=0;overflow=hidden;fontFamily=Helvetica;fontSize=11;fontColor=default;" parent="-e-ILqeZROQvLMbUx6ZE-10" vertex="1">
          <mxGeometry width="156" height="52" as="geometry">
            <mxRectangle width="156" height="52" as="alternateBounds" />
          </mxGeometry>
        </mxCell>
        <mxCell id="-e-ILqeZROQvLMbUx6ZE-12" value="&lt;span style=&quot;color: rgb(0, 0, 0); font-size: 12px; text-align: left;&quot;&gt;#10.00&amp;nbsp;&lt;/span&gt;&lt;span style=&quot;color: rgb(0, 0, 0); font-size: 12px; text-align: left;&quot;&gt;&amp;nbsp;&lt;/span&gt;" style="shape=partialRectangle;html=1;whiteSpace=wrap;connectable=0;fillColor=none;top=0;left=0;bottom=0;right=0;overflow=hidden;fontFamily=Helvetica;fontSize=11;fontColor=default;" parent="-e-ILqeZROQvLMbUx6ZE-10" vertex="1">
          <mxGeometry x="156" width="97" height="52" as="geometry">
            <mxRectangle width="97" height="52" as="alternateBounds" />
          </mxGeometry>
        </mxCell>
        <mxCell id="-e-ILqeZROQvLMbUx6ZE-13" value="&lt;span style=&quot;color: rgb(0, 0, 0); font-size: 12px; text-align: left;&quot;&gt;&amp;nbsp; 50A&amp;nbsp; &amp;nbsp; &amp;nbsp;&lt;/span&gt;&lt;span style=&quot;color: rgb(0, 0, 0); font-size: 12px; text-align: left;&quot;&gt;&amp;nbsp;&lt;/span&gt;" style="shape=partialRectangle;html=1;whiteSpace=wrap;connectable=0;fillColor=none;top=0;left=0;bottom=0;right=0;overflow=hidden;fontFamily=Helvetica;fontSize=11;fontColor=default;" parent="-e-ILqeZROQvLMbUx6ZE-10" vertex="1">
          <mxGeometry x="253" width="142" height="52" as="geometry">
            <mxRectangle width="142" height="52" as="alternateBounds" />
          </mxGeometry>
        </mxCell>
        <mxCell id="-e-ILqeZROQvLMbUx6ZE-14" value="&lt;span style=&quot;color: rgb(0, 0, 0); font-size: 12px; text-align: left;&quot;&gt;&amp;nbsp; &amp;nbsp; &amp;nbsp;3F&amp;nbsp; &amp;nbsp; &amp;nbsp;&lt;/span&gt;&lt;span style=&quot;color: rgb(0, 0, 0); font-size: 12px; text-align: left;&quot;&gt;&amp;nbsp;&lt;/span&gt;" style="shape=partialRectangle;html=1;whiteSpace=wrap;connectable=0;fillColor=none;top=0;left=0;bottom=0;right=0;overflow=hidden;fontFamily=Helvetica;fontSize=11;fontColor=default;" parent="-e-ILqeZROQvLMbUx6ZE-10" vertex="1">
          <mxGeometry x="395" width="78" height="52" as="geometry">
            <mxRectangle width="78" height="52" as="alternateBounds" />
          </mxGeometry>
        </mxCell>
        <mxCell id="-e-ILqeZROQvLMbUx6ZE-15" value="15KW" style="shape=partialRectangle;html=1;whiteSpace=wrap;connectable=0;fillColor=none;top=0;left=0;bottom=0;right=0;overflow=hidden;fontFamily=Helvetica;fontSize=11;fontColor=default;" parent="-e-ILqeZROQvLMbUx6ZE-10" vertex="1">
          <mxGeometry x="473" width="77" height="52" as="geometry">
            <mxRectangle width="77" height="52" as="alternateBounds" />
          </mxGeometry>
        </mxCell>
        <mxCell id="-e-ILqeZROQvLMbUx6ZE-16" value="" style="shape=tableRow;horizontal=0;startSize=0;swimlaneHead=0;swimlaneBody=0;top=0;left=0;bottom=0;right=0;collapsible=0;dropTarget=0;fillColor=none;points=[[0,0.5],[1,0.5]];portConstraint=eastwest;fontFamily=Helvetica;fontSize=11;fontColor=default;" parent="-e-ILqeZROQvLMbUx6ZE-3" vertex="1">
          <mxGeometry y="83" width="550" height="51" as="geometry" />
        </mxCell>
        <mxCell id="-e-ILqeZROQvLMbUx6ZE-17" value="&lt;span style=&quot;color: rgb(0, 0, 0); font-size: 12px; text-align: left;&quot;&gt;BANHEIRA&lt;/span&gt;&lt;span style=&quot;color: rgb(0, 0, 0); font-size: 12px; text-align: left;&quot;&gt;&lt;/span&gt;" style="shape=partialRectangle;html=1;whiteSpace=wrap;connectable=0;fillColor=none;top=0;left=0;bottom=0;right=0;overflow=hidden;fontFamily=Helvetica;fontSize=11;fontColor=default;" parent="-e-ILqeZROQvLMbUx6ZE-16" vertex="1">
          <mxGeometry width="156" height="51" as="geometry">
            <mxRectangle width="156" height="51" as="alternateBounds" />
          </mxGeometry>
        </mxCell>
        <mxCell id="-e-ILqeZROQvLMbUx6ZE-18" value="&lt;span style=&quot;color: rgb(0, 0, 0); font-size: 12px; text-align: left;&quot;&gt;#6.00&amp;nbsp;&lt;/span&gt;" style="shape=partialRectangle;html=1;whiteSpace=wrap;connectable=0;fillColor=none;top=0;left=0;bottom=0;right=0;overflow=hidden;fontFamily=Helvetica;fontSize=11;fontColor=default;" parent="-e-ILqeZROQvLMbUx6ZE-16" vertex="1">
          <mxGeometry x="156" width="97" height="51" as="geometry">
            <mxRectangle width="97" height="51" as="alternateBounds" />
          </mxGeometry>
        </mxCell>
        <mxCell id="-e-ILqeZROQvLMbUx6ZE-19" value="&lt;span style=&quot;color: rgb(0, 0, 0); font-size: 12px; text-align: left;&quot;&gt;40A&amp;nbsp;&lt;/span&gt;" style="shape=partialRectangle;html=1;whiteSpace=wrap;connectable=0;fillColor=none;top=0;left=0;bottom=0;right=0;overflow=hidden;fontFamily=Helvetica;fontSize=11;fontColor=default;" parent="-e-ILqeZROQvLMbUx6ZE-16" vertex="1">
          <mxGeometry x="253" width="142" height="51" as="geometry">
            <mxRectangle width="142" height="51" as="alternateBounds" />
          </mxGeometry>
        </mxCell>
        <mxCell id="-e-ILqeZROQvLMbUx6ZE-20" value="&lt;span style=&quot;color: rgb(0, 0, 0); font-size: 12px; text-align: left;&quot;&gt;2F&lt;/span&gt;" style="shape=partialRectangle;html=1;whiteSpace=wrap;connectable=0;fillColor=none;top=0;left=0;bottom=0;right=0;overflow=hidden;pointerEvents=1;fontFamily=Helvetica;fontSize=11;fontColor=default;" parent="-e-ILqeZROQvLMbUx6ZE-16" vertex="1">
          <mxGeometry x="395" width="78" height="51" as="geometry">
            <mxRectangle width="78" height="51" as="alternateBounds" />
          </mxGeometry>
        </mxCell>
        <mxCell id="-e-ILqeZROQvLMbUx6ZE-21" value="8.5KW" style="shape=partialRectangle;html=1;whiteSpace=wrap;connectable=0;fillColor=none;top=0;left=0;bottom=0;right=0;overflow=hidden;pointerEvents=1;fontFamily=Helvetica;fontSize=11;fontColor=default;" parent="-e-ILqeZROQvLMbUx6ZE-16" vertex="1">
          <mxGeometry x="473" width="77" height="51" as="geometry">
            <mxRectangle width="77" height="51" as="alternateBounds" />
          </mxGeometry>
        </mxCell>
        <mxCell id="-e-ILqeZROQvLMbUx6ZE-22" style="shape=tableRow;horizontal=0;startSize=0;swimlaneHead=0;swimlaneBody=0;top=0;left=0;bottom=0;right=0;collapsible=0;dropTarget=0;fillColor=none;points=[[0,0.5],[1,0.5]];portConstraint=eastwest;fontFamily=Helvetica;fontSize=11;fontColor=default;" parent="-e-ILqeZROQvLMbUx6ZE-3" vertex="1">
          <mxGeometry y="134" width="550" height="50" as="geometry" />
        </mxCell>
        <mxCell id="-e-ILqeZROQvLMbUx6ZE-23" value="&lt;span style=&quot;color: rgb(0, 0, 0); font-size: 12px; text-align: left;&quot;&gt;ADEGA&amp;nbsp;&lt;/span&gt;&lt;span style=&quot;color: rgb(0, 0, 0); font-size: 12px; text-align: left;&quot;&gt;   &lt;/span&gt;&lt;span style=&quot;color: rgb(0, 0, 0); font-size: 12px; text-align: left;&quot;&gt; &lt;/span&gt;" style="shape=partialRectangle;html=1;whiteSpace=wrap;connectable=0;fillColor=none;top=0;left=0;bottom=0;right=0;overflow=hidden;fontFamily=Helvetica;fontSize=11;fontColor=default;" parent="-e-ILqeZROQvLMbUx6ZE-22" vertex="1">
          <mxGeometry width="156" height="50" as="geometry">
            <mxRectangle width="156" height="50" as="alternateBounds" />
          </mxGeometry>
        </mxCell>
        <mxCell id="-e-ILqeZROQvLMbUx6ZE-24" value="#2.5" style="shape=partialRectangle;html=1;whiteSpace=wrap;connectable=0;fillColor=none;top=0;left=0;bottom=0;right=0;overflow=hidden;fontFamily=Helvetica;fontSize=11;fontColor=default;" parent="-e-ILqeZROQvLMbUx6ZE-22" vertex="1">
          <mxGeometry x="156" width="97" height="50" as="geometry">
            <mxRectangle width="97" height="50" as="alternateBounds" />
          </mxGeometry>
        </mxCell>
        <mxCell id="-e-ILqeZROQvLMbUx6ZE-25" value="20A" style="shape=partialRectangle;html=1;whiteSpace=wrap;connectable=0;fillColor=none;top=0;left=0;bottom=0;right=0;overflow=hidden;fontFamily=Helvetica;fontSize=11;fontColor=default;" parent="-e-ILqeZROQvLMbUx6ZE-22" vertex="1">
          <mxGeometry x="253" width="142" height="50" as="geometry">
            <mxRectangle width="142" height="50" as="alternateBounds" />
          </mxGeometry>
        </mxCell>
        <mxCell id="-e-ILqeZROQvLMbUx6ZE-26" value="2F" style="shape=partialRectangle;html=1;whiteSpace=wrap;connectable=0;fillColor=none;top=0;left=0;bottom=0;right=0;overflow=hidden;pointerEvents=1;fontFamily=Helvetica;fontSize=11;fontColor=default;" parent="-e-ILqeZROQvLMbUx6ZE-22" vertex="1">
          <mxGeometry x="395" width="78" height="50" as="geometry">
            <mxRectangle width="78" height="50" as="alternateBounds" />
          </mxGeometry>
        </mxCell>
        <mxCell id="-e-ILqeZROQvLMbUx6ZE-27" value="4KW" style="shape=partialRectangle;html=1;whiteSpace=wrap;connectable=0;fillColor=none;top=0;left=0;bottom=0;right=0;overflow=hidden;pointerEvents=1;fontFamily=Helvetica;fontSize=11;fontColor=default;" parent="-e-ILqeZROQvLMbUx6ZE-22" vertex="1">
          <mxGeometry x="473" width="77" height="50" as="geometry">
            <mxRectangle width="77" height="50" as="alternateBounds" />
          </mxGeometry>
        </mxCell>
        <mxCell id="-e-ILqeZROQvLMbUx6ZE-29" value="INFINITY" style="swimlane;html=1;fontStyle=0;childLayout=stackLayout;horizontal=1;startSize=26;fillColor=#e0e0e0;horizontalStack=0;resizeParent=1;resizeLast=0;collapsible=1;marginBottom=0;swimlaneFillColor=#ffffff;align=center;rounded=1;shadow=0;comic=0;labelBackgroundColor=none;strokeWidth=1;fontFamily=Verdana;fontSize=12;fontColor=#000000;" parent="1" vertex="1">
          <mxGeometry x="-2170" y="1306.25" width="550" height="261" as="geometry">
            <mxRectangle x="160" y="74" width="90" height="30" as="alternateBounds" />
          </mxGeometry>
        </mxCell>
        <mxCell id="-e-ILqeZROQvLMbUx6ZE-30" value="" style="shape=table;html=1;whiteSpace=wrap;startSize=0;container=1;collapsible=0;childLayout=tableLayout;fontFamily=Helvetica;fontSize=11;fontColor=default;fillColor=#006666;gradientColor=#004C99;gradientDirection=east;" parent="-e-ILqeZROQvLMbUx6ZE-29" vertex="1">
          <mxGeometry y="26" width="550" height="235" as="geometry" />
        </mxCell>
        <mxCell id="-e-ILqeZROQvLMbUx6ZE-31" value="" style="shape=tableRow;horizontal=0;startSize=0;swimlaneHead=0;swimlaneBody=0;top=0;left=0;bottom=0;right=0;collapsible=0;dropTarget=0;fillColor=none;points=[[0,0.5],[1,0.5]];portConstraint=eastwest;fontFamily=Helvetica;fontSize=11;fontColor=default;" parent="-e-ILqeZROQvLMbUx6ZE-30" vertex="1">
          <mxGeometry width="550" height="31" as="geometry" />
        </mxCell>
        <mxCell id="-e-ILqeZROQvLMbUx6ZE-32" value="ITEM" style="shape=partialRectangle;html=1;whiteSpace=wrap;connectable=0;fillColor=none;top=0;left=0;bottom=0;right=0;overflow=hidden;fontFamily=Helvetica;fontSize=11;fontColor=default;" parent="-e-ILqeZROQvLMbUx6ZE-31" vertex="1">
          <mxGeometry width="156" height="31" as="geometry">
            <mxRectangle width="156" height="31" as="alternateBounds" />
          </mxGeometry>
        </mxCell>
        <mxCell id="-e-ILqeZROQvLMbUx6ZE-33" value="SEÇÃO" style="shape=partialRectangle;html=1;whiteSpace=wrap;connectable=0;fillColor=none;top=0;left=0;bottom=0;right=0;overflow=hidden;fontFamily=Helvetica;fontSize=11;fontColor=default;" parent="-e-ILqeZROQvLMbUx6ZE-31" vertex="1">
          <mxGeometry x="156" width="97" height="31" as="geometry">
            <mxRectangle width="97" height="31" as="alternateBounds" />
          </mxGeometry>
        </mxCell>
        <mxCell id="-e-ILqeZROQvLMbUx6ZE-34" value="PROTEÇÃO" style="shape=partialRectangle;html=1;whiteSpace=wrap;connectable=0;fillColor=none;top=0;left=0;bottom=0;right=0;overflow=hidden;fontFamily=Helvetica;fontSize=11;fontColor=default;" parent="-e-ILqeZROQvLMbUx6ZE-31" vertex="1">
          <mxGeometry x="253" width="142" height="31" as="geometry">
            <mxRectangle width="142" height="31" as="alternateBounds" />
          </mxGeometry>
        </mxCell>
        <mxCell id="-e-ILqeZROQvLMbUx6ZE-35" value="N° FASES" style="shape=partialRectangle;html=1;whiteSpace=wrap;connectable=0;fillColor=none;top=0;left=0;bottom=0;right=0;overflow=hidden;fontFamily=Helvetica;fontSize=11;fontColor=default;" parent="-e-ILqeZROQvLMbUx6ZE-31" vertex="1">
          <mxGeometry x="395" width="78" height="31" as="geometry">
            <mxRectangle width="78" height="31" as="alternateBounds" />
          </mxGeometry>
        </mxCell>
        <mxCell id="-e-ILqeZROQvLMbUx6ZE-36" value="CARGA(W)" style="shape=partialRectangle;html=1;whiteSpace=wrap;connectable=0;fillColor=none;top=0;left=0;bottom=0;right=0;overflow=hidden;fontFamily=Helvetica;fontSize=11;fontColor=default;" parent="-e-ILqeZROQvLMbUx6ZE-31" vertex="1">
          <mxGeometry x="473" width="77" height="31" as="geometry">
            <mxRectangle width="77" height="31" as="alternateBounds" />
          </mxGeometry>
        </mxCell>
        <mxCell id="-e-ILqeZROQvLMbUx6ZE-117" style="shape=tableRow;horizontal=0;startSize=0;swimlaneHead=0;swimlaneBody=0;top=0;left=0;bottom=0;right=0;collapsible=0;dropTarget=0;fillColor=none;points=[[0,0.5],[1,0.5]];portConstraint=eastwest;fontFamily=Helvetica;fontSize=11;fontColor=default;" parent="-e-ILqeZROQvLMbUx6ZE-30" vertex="1">
          <mxGeometry y="31" width="550" height="52" as="geometry" />
        </mxCell>
        <mxCell id="-e-ILqeZROQvLMbUx6ZE-118" value="SAUNA" style="shape=partialRectangle;html=1;whiteSpace=wrap;connectable=0;fillColor=none;top=0;left=0;bottom=0;right=0;overflow=hidden;fontFamily=Helvetica;fontSize=11;fontColor=default;" parent="-e-ILqeZROQvLMbUx6ZE-117" vertex="1">
          <mxGeometry width="156" height="52" as="geometry">
            <mxRectangle width="156" height="52" as="alternateBounds" />
          </mxGeometry>
        </mxCell>
        <mxCell id="-e-ILqeZROQvLMbUx6ZE-119" value="#10.00" style="shape=partialRectangle;html=1;whiteSpace=wrap;connectable=0;fillColor=none;top=0;left=0;bottom=0;right=0;overflow=hidden;fontFamily=Helvetica;fontSize=11;fontColor=default;" parent="-e-ILqeZROQvLMbUx6ZE-117" vertex="1">
          <mxGeometry x="156" width="97" height="52" as="geometry">
            <mxRectangle width="97" height="52" as="alternateBounds" />
          </mxGeometry>
        </mxCell>
        <mxCell id="-e-ILqeZROQvLMbUx6ZE-120" value="50A" style="shape=partialRectangle;html=1;whiteSpace=wrap;connectable=0;fillColor=none;top=0;left=0;bottom=0;right=0;overflow=hidden;fontFamily=Helvetica;fontSize=11;fontColor=default;" parent="-e-ILqeZROQvLMbUx6ZE-117" vertex="1">
          <mxGeometry x="253" width="142" height="52" as="geometry">
            <mxRectangle width="142" height="52" as="alternateBounds" />
          </mxGeometry>
        </mxCell>
        <mxCell id="-e-ILqeZROQvLMbUx6ZE-121" value="3" style="shape=partialRectangle;html=1;whiteSpace=wrap;connectable=0;fillColor=none;top=0;left=0;bottom=0;right=0;overflow=hidden;fontFamily=Helvetica;fontSize=11;fontColor=default;" parent="-e-ILqeZROQvLMbUx6ZE-117" vertex="1">
          <mxGeometry x="395" width="78" height="52" as="geometry">
            <mxRectangle width="78" height="52" as="alternateBounds" />
          </mxGeometry>
        </mxCell>
        <mxCell id="-e-ILqeZROQvLMbUx6ZE-122" value="18KW" style="shape=partialRectangle;html=1;whiteSpace=wrap;connectable=0;fillColor=none;top=0;left=0;bottom=0;right=0;overflow=hidden;fontFamily=Helvetica;fontSize=11;fontColor=default;" parent="-e-ILqeZROQvLMbUx6ZE-117" vertex="1">
          <mxGeometry x="473" width="77" height="52" as="geometry">
            <mxRectangle width="77" height="52" as="alternateBounds" />
          </mxGeometry>
        </mxCell>
        <mxCell id="-e-ILqeZROQvLMbUx6ZE-37" value="" style="shape=tableRow;horizontal=0;startSize=0;swimlaneHead=0;swimlaneBody=0;top=0;left=0;bottom=0;right=0;collapsible=0;dropTarget=0;fillColor=none;points=[[0,0.5],[1,0.5]];portConstraint=eastwest;fontFamily=Helvetica;fontSize=11;fontColor=default;" parent="-e-ILqeZROQvLMbUx6ZE-30" vertex="1">
          <mxGeometry y="83" width="550" height="52" as="geometry" />
        </mxCell>
        <mxCell id="-e-ILqeZROQvLMbUx6ZE-38" value="&lt;font color=&quot;#000000&quot;&gt;&lt;span style=&quot;font-size: 12px;&quot;&gt;ESPELHO D&#39;ÁGUA&lt;/span&gt;&lt;/font&gt;" style="shape=partialRectangle;html=1;whiteSpace=wrap;connectable=0;fillColor=none;top=0;left=0;bottom=0;right=0;overflow=hidden;fontFamily=Helvetica;fontSize=11;fontColor=default;" parent="-e-ILqeZROQvLMbUx6ZE-37" vertex="1">
          <mxGeometry width="156" height="52" as="geometry">
            <mxRectangle width="156" height="52" as="alternateBounds" />
          </mxGeometry>
        </mxCell>
        <mxCell id="-e-ILqeZROQvLMbUx6ZE-39" value="&lt;span style=&quot;color: rgb(0, 0, 0); font-size: 12px; text-align: left;&quot;&gt;#6.00&amp;nbsp;&lt;/span&gt;&lt;span style=&quot;color: rgb(0, 0, 0); font-size: 12px; text-align: left;&quot;&gt;&amp;nbsp;&lt;/span&gt;" style="shape=partialRectangle;html=1;whiteSpace=wrap;connectable=0;fillColor=none;top=0;left=0;bottom=0;right=0;overflow=hidden;fontFamily=Helvetica;fontSize=11;fontColor=default;" parent="-e-ILqeZROQvLMbUx6ZE-37" vertex="1">
          <mxGeometry x="156" width="97" height="52" as="geometry">
            <mxRectangle width="97" height="52" as="alternateBounds" />
          </mxGeometry>
        </mxCell>
        <mxCell id="-e-ILqeZROQvLMbUx6ZE-40" value="&lt;span style=&quot;color: rgb(0, 0, 0); font-size: 12px; text-align: left;&quot;&gt;&amp;nbsp; 16A&amp;nbsp; &amp;nbsp; &amp;nbsp;&lt;/span&gt;&lt;span style=&quot;color: rgb(0, 0, 0); font-size: 12px; text-align: left;&quot;&gt;&amp;nbsp;&lt;/span&gt;" style="shape=partialRectangle;html=1;whiteSpace=wrap;connectable=0;fillColor=none;top=0;left=0;bottom=0;right=0;overflow=hidden;fontFamily=Helvetica;fontSize=11;fontColor=default;" parent="-e-ILqeZROQvLMbUx6ZE-37" vertex="1">
          <mxGeometry x="253" width="142" height="52" as="geometry">
            <mxRectangle width="142" height="52" as="alternateBounds" />
          </mxGeometry>
        </mxCell>
        <mxCell id="-e-ILqeZROQvLMbUx6ZE-41" value="&lt;span style=&quot;color: rgb(0, 0, 0); font-size: 12px; text-align: left;&quot;&gt;&amp;nbsp; &amp;nbsp; &amp;nbsp;3F&amp;nbsp; &amp;nbsp; &amp;nbsp;&lt;/span&gt;&lt;span style=&quot;color: rgb(0, 0, 0); font-size: 12px; text-align: left;&quot;&gt;&amp;nbsp;&lt;/span&gt;" style="shape=partialRectangle;html=1;whiteSpace=wrap;connectable=0;fillColor=none;top=0;left=0;bottom=0;right=0;overflow=hidden;fontFamily=Helvetica;fontSize=11;fontColor=default;" parent="-e-ILqeZROQvLMbUx6ZE-37" vertex="1">
          <mxGeometry x="395" width="78" height="52" as="geometry">
            <mxRectangle width="78" height="52" as="alternateBounds" />
          </mxGeometry>
        </mxCell>
        <mxCell id="-e-ILqeZROQvLMbUx6ZE-42" value="0.4KW" style="shape=partialRectangle;html=1;whiteSpace=wrap;connectable=0;fillColor=none;top=0;left=0;bottom=0;right=0;overflow=hidden;fontFamily=Helvetica;fontSize=11;fontColor=default;" parent="-e-ILqeZROQvLMbUx6ZE-37" vertex="1">
          <mxGeometry x="473" width="77" height="52" as="geometry">
            <mxRectangle width="77" height="52" as="alternateBounds" />
          </mxGeometry>
        </mxCell>
        <mxCell id="-e-ILqeZROQvLMbUx6ZE-43" value="" style="shape=tableRow;horizontal=0;startSize=0;swimlaneHead=0;swimlaneBody=0;top=0;left=0;bottom=0;right=0;collapsible=0;dropTarget=0;fillColor=none;points=[[0,0.5],[1,0.5]];portConstraint=eastwest;fontFamily=Helvetica;fontSize=11;fontColor=default;" parent="-e-ILqeZROQvLMbUx6ZE-30" vertex="1">
          <mxGeometry y="135" width="550" height="50" as="geometry" />
        </mxCell>
        <mxCell id="-e-ILqeZROQvLMbUx6ZE-44" value="&lt;span style=&quot;color: rgb(0, 0, 0); font-size: 12px; text-align: left;&quot;&gt;VENTILAÇÃO&lt;/span&gt;&lt;span style=&quot;color: rgb(0, 0, 0); font-size: 12px; text-align: left;&quot;&gt;&lt;/span&gt;" style="shape=partialRectangle;html=1;whiteSpace=wrap;connectable=0;fillColor=none;top=0;left=0;bottom=0;right=0;overflow=hidden;fontFamily=Helvetica;fontSize=11;fontColor=default;" parent="-e-ILqeZROQvLMbUx6ZE-43" vertex="1">
          <mxGeometry width="156" height="50" as="geometry">
            <mxRectangle width="156" height="50" as="alternateBounds" />
          </mxGeometry>
        </mxCell>
        <mxCell id="-e-ILqeZROQvLMbUx6ZE-45" value="&lt;span style=&quot;color: rgb(0, 0, 0); font-size: 12px; text-align: left;&quot;&gt;#2.5&lt;/span&gt;" style="shape=partialRectangle;html=1;whiteSpace=wrap;connectable=0;fillColor=none;top=0;left=0;bottom=0;right=0;overflow=hidden;fontFamily=Helvetica;fontSize=11;fontColor=default;" parent="-e-ILqeZROQvLMbUx6ZE-43" vertex="1">
          <mxGeometry x="156" width="97" height="50" as="geometry">
            <mxRectangle width="97" height="50" as="alternateBounds" />
          </mxGeometry>
        </mxCell>
        <mxCell id="-e-ILqeZROQvLMbUx6ZE-46" value="&lt;span style=&quot;color: rgb(0, 0, 0); font-size: 12px; text-align: left;&quot;&gt;16A&amp;nbsp;&lt;/span&gt;" style="shape=partialRectangle;html=1;whiteSpace=wrap;connectable=0;fillColor=none;top=0;left=0;bottom=0;right=0;overflow=hidden;fontFamily=Helvetica;fontSize=11;fontColor=default;" parent="-e-ILqeZROQvLMbUx6ZE-43" vertex="1">
          <mxGeometry x="253" width="142" height="50" as="geometry">
            <mxRectangle width="142" height="50" as="alternateBounds" />
          </mxGeometry>
        </mxCell>
        <mxCell id="-e-ILqeZROQvLMbUx6ZE-47" value="&lt;span style=&quot;color: rgb(0, 0, 0); font-size: 12px; text-align: left;&quot;&gt;3F&lt;/span&gt;" style="shape=partialRectangle;html=1;whiteSpace=wrap;connectable=0;fillColor=none;top=0;left=0;bottom=0;right=0;overflow=hidden;pointerEvents=1;fontFamily=Helvetica;fontSize=11;fontColor=default;" parent="-e-ILqeZROQvLMbUx6ZE-43" vertex="1">
          <mxGeometry x="395" width="78" height="50" as="geometry">
            <mxRectangle width="78" height="50" as="alternateBounds" />
          </mxGeometry>
        </mxCell>
        <mxCell id="-e-ILqeZROQvLMbUx6ZE-48" value="0.2KW" style="shape=partialRectangle;html=1;whiteSpace=wrap;connectable=0;fillColor=none;top=0;left=0;bottom=0;right=0;overflow=hidden;pointerEvents=1;fontFamily=Helvetica;fontSize=11;fontColor=default;" parent="-e-ILqeZROQvLMbUx6ZE-43" vertex="1">
          <mxGeometry x="473" width="77" height="50" as="geometry">
            <mxRectangle width="77" height="50" as="alternateBounds" />
          </mxGeometry>
        </mxCell>
        <mxCell id="-e-ILqeZROQvLMbUx6ZE-55" style="shape=tableRow;horizontal=0;startSize=0;swimlaneHead=0;swimlaneBody=0;top=0;left=0;bottom=0;right=0;collapsible=0;dropTarget=0;fillColor=none;points=[[0,0.5],[1,0.5]];portConstraint=eastwest;fontFamily=Helvetica;fontSize=11;fontColor=default;" parent="-e-ILqeZROQvLMbUx6ZE-30" vertex="1">
          <mxGeometry y="185" width="550" height="50" as="geometry" />
        </mxCell>
        <mxCell id="-e-ILqeZROQvLMbUx6ZE-56" value="&lt;span style=&quot;color: rgb(0, 0, 0); font-size: 12px; text-align: left;&quot;&gt;B.CALOR&lt;/span&gt;&lt;span style=&quot;color: rgb(0, 0, 0); font-size: 12px; text-align: left;&quot;&gt;&lt;/span&gt;" style="shape=partialRectangle;html=1;whiteSpace=wrap;connectable=0;fillColor=none;top=0;left=0;bottom=0;right=0;overflow=hidden;fontFamily=Helvetica;fontSize=11;fontColor=default;" parent="-e-ILqeZROQvLMbUx6ZE-55" vertex="1">
          <mxGeometry width="156" height="50" as="geometry">
            <mxRectangle width="156" height="50" as="alternateBounds" />
          </mxGeometry>
        </mxCell>
        <mxCell id="-e-ILqeZROQvLMbUx6ZE-57" value="#6.00" style="shape=partialRectangle;html=1;whiteSpace=wrap;connectable=0;fillColor=none;top=0;left=0;bottom=0;right=0;overflow=hidden;fontFamily=Helvetica;fontSize=11;fontColor=default;" parent="-e-ILqeZROQvLMbUx6ZE-55" vertex="1">
          <mxGeometry x="156" width="97" height="50" as="geometry">
            <mxRectangle width="97" height="50" as="alternateBounds" />
          </mxGeometry>
        </mxCell>
        <mxCell id="-e-ILqeZROQvLMbUx6ZE-58" value="25A" style="shape=partialRectangle;html=1;whiteSpace=wrap;connectable=0;fillColor=none;top=0;left=0;bottom=0;right=0;overflow=hidden;fontFamily=Helvetica;fontSize=11;fontColor=default;" parent="-e-ILqeZROQvLMbUx6ZE-55" vertex="1">
          <mxGeometry x="253" width="142" height="50" as="geometry">
            <mxRectangle width="142" height="50" as="alternateBounds" />
          </mxGeometry>
        </mxCell>
        <mxCell id="-e-ILqeZROQvLMbUx6ZE-59" value="3F" style="shape=partialRectangle;html=1;whiteSpace=wrap;connectable=0;fillColor=none;top=0;left=0;bottom=0;right=0;overflow=hidden;pointerEvents=1;fontFamily=Helvetica;fontSize=11;fontColor=default;" parent="-e-ILqeZROQvLMbUx6ZE-55" vertex="1">
          <mxGeometry x="395" width="78" height="50" as="geometry">
            <mxRectangle width="78" height="50" as="alternateBounds" />
          </mxGeometry>
        </mxCell>
        <mxCell id="-e-ILqeZROQvLMbUx6ZE-60" value="7.1KW" style="shape=partialRectangle;html=1;whiteSpace=wrap;connectable=0;fillColor=none;top=0;left=0;bottom=0;right=0;overflow=hidden;pointerEvents=1;fontFamily=Helvetica;fontSize=11;fontColor=default;" parent="-e-ILqeZROQvLMbUx6ZE-55" vertex="1">
          <mxGeometry x="473" width="77" height="50" as="geometry">
            <mxRectangle width="77" height="50" as="alternateBounds" />
          </mxGeometry>
        </mxCell>
        <mxCell id="-e-ILqeZROQvLMbUx6ZE-123" value="PATRIMAR" style="shape=hexagon;perimeter=hexagonPerimeter2;whiteSpace=wrap;html=1;fixedSize=1;fontColor=#000000;fillColor=#66B2FF;" parent="1" vertex="1">
          <mxGeometry x="-480" y="200" width="120" height="80" as="geometry" />
        </mxCell>
        <mxCell id="-e-ILqeZROQvLMbUx6ZE-124" value="PATRIMAR" style="shape=hexagon;perimeter=hexagonPerimeter2;whiteSpace=wrap;html=1;fixedSize=1;fontColor=#000000;fillColor=#66B2FF;" parent="1" vertex="1">
          <mxGeometry x="-470" y="1195" width="120" height="80" as="geometry" />
        </mxCell>
        <mxCell id="-e-ILqeZROQvLMbUx6ZE-125" value="MONTERRE" style="shape=hexagon;perimeter=hexagonPerimeter2;whiteSpace=wrap;html=1;fixedSize=1;fontColor=#000000;fillColor=#66B2FF;" parent="1" vertex="1">
          <mxGeometry x="-1590" y="310" width="120" height="80" as="geometry" />
        </mxCell>
        <mxCell id="-e-ILqeZROQvLMbUx6ZE-127" value="NEW LIFE" style="swimlane;html=1;fontStyle=0;childLayout=stackLayout;horizontal=1;startSize=26;fillColor=#e0e0e0;horizontalStack=0;resizeParent=1;resizeLast=0;collapsible=1;marginBottom=0;swimlaneFillColor=#ffffff;align=center;rounded=1;shadow=0;comic=0;labelBackgroundColor=none;strokeWidth=1;fontFamily=Verdana;fontSize=12;fontColor=#000000;" parent="1" vertex="1">
          <mxGeometry x="-2170" y="900" width="550" height="209" as="geometry">
            <mxRectangle x="160" y="74" width="90" height="30" as="alternateBounds" />
          </mxGeometry>
        </mxCell>
        <mxCell id="-e-ILqeZROQvLMbUx6ZE-128" value="" style="shape=table;html=1;whiteSpace=wrap;startSize=0;container=1;collapsible=0;childLayout=tableLayout;fontFamily=Helvetica;fontSize=11;fontColor=default;fillColor=#006666;gradientColor=#004C99;gradientDirection=east;" parent="-e-ILqeZROQvLMbUx6ZE-127" vertex="1">
          <mxGeometry y="26" width="550" height="183" as="geometry" />
        </mxCell>
        <mxCell id="-e-ILqeZROQvLMbUx6ZE-129" value="" style="shape=tableRow;horizontal=0;startSize=0;swimlaneHead=0;swimlaneBody=0;top=0;left=0;bottom=0;right=0;collapsible=0;dropTarget=0;fillColor=none;points=[[0,0.5],[1,0.5]];portConstraint=eastwest;fontFamily=Helvetica;fontSize=11;fontColor=default;" parent="-e-ILqeZROQvLMbUx6ZE-128" vertex="1">
          <mxGeometry width="550" height="31" as="geometry" />
        </mxCell>
        <mxCell id="-e-ILqeZROQvLMbUx6ZE-130" value="ITEM" style="shape=partialRectangle;html=1;whiteSpace=wrap;connectable=0;fillColor=none;top=0;left=0;bottom=0;right=0;overflow=hidden;fontFamily=Helvetica;fontSize=11;fontColor=default;" parent="-e-ILqeZROQvLMbUx6ZE-129" vertex="1">
          <mxGeometry width="156" height="31" as="geometry">
            <mxRectangle width="156" height="31" as="alternateBounds" />
          </mxGeometry>
        </mxCell>
        <mxCell id="-e-ILqeZROQvLMbUx6ZE-131" value="SEÇÃO" style="shape=partialRectangle;html=1;whiteSpace=wrap;connectable=0;fillColor=none;top=0;left=0;bottom=0;right=0;overflow=hidden;fontFamily=Helvetica;fontSize=11;fontColor=default;" parent="-e-ILqeZROQvLMbUx6ZE-129" vertex="1">
          <mxGeometry x="156" width="97" height="31" as="geometry">
            <mxRectangle width="97" height="31" as="alternateBounds" />
          </mxGeometry>
        </mxCell>
        <mxCell id="-e-ILqeZROQvLMbUx6ZE-132" value="PROTEÇÃO" style="shape=partialRectangle;html=1;whiteSpace=wrap;connectable=0;fillColor=none;top=0;left=0;bottom=0;right=0;overflow=hidden;fontFamily=Helvetica;fontSize=11;fontColor=default;" parent="-e-ILqeZROQvLMbUx6ZE-129" vertex="1">
          <mxGeometry x="253" width="142" height="31" as="geometry">
            <mxRectangle width="142" height="31" as="alternateBounds" />
          </mxGeometry>
        </mxCell>
        <mxCell id="-e-ILqeZROQvLMbUx6ZE-133" value="N° FASES" style="shape=partialRectangle;html=1;whiteSpace=wrap;connectable=0;fillColor=none;top=0;left=0;bottom=0;right=0;overflow=hidden;fontFamily=Helvetica;fontSize=11;fontColor=default;" parent="-e-ILqeZROQvLMbUx6ZE-129" vertex="1">
          <mxGeometry x="395" width="78" height="31" as="geometry">
            <mxRectangle width="78" height="31" as="alternateBounds" />
          </mxGeometry>
        </mxCell>
        <mxCell id="-e-ILqeZROQvLMbUx6ZE-134" value="CARGA(W)" style="shape=partialRectangle;html=1;whiteSpace=wrap;connectable=0;fillColor=none;top=0;left=0;bottom=0;right=0;overflow=hidden;fontFamily=Helvetica;fontSize=11;fontColor=default;" parent="-e-ILqeZROQvLMbUx6ZE-129" vertex="1">
          <mxGeometry x="473" width="77" height="31" as="geometry">
            <mxRectangle width="77" height="31" as="alternateBounds" />
          </mxGeometry>
        </mxCell>
        <mxCell id="-e-ILqeZROQvLMbUx6ZE-135" value="" style="shape=tableRow;horizontal=0;startSize=0;swimlaneHead=0;swimlaneBody=0;top=0;left=0;bottom=0;right=0;collapsible=0;dropTarget=0;fillColor=none;points=[[0,0.5],[1,0.5]];portConstraint=eastwest;fontFamily=Helvetica;fontSize=11;fontColor=default;" parent="-e-ILqeZROQvLMbUx6ZE-128" vertex="1">
          <mxGeometry y="31" width="550" height="52" as="geometry" />
        </mxCell>
        <mxCell id="-e-ILqeZROQvLMbUx6ZE-136" value="&lt;span style=&quot;color: rgb(0, 0, 0); font-size: 12px; text-align: left;&quot;&gt;SAUNA&lt;/span&gt;&lt;span style=&quot;color: rgb(0, 0, 0); font-size: 12px; text-align: left;&quot;&gt; &lt;/span&gt;&lt;span style=&quot;color: rgb(0, 0, 0); font-size: 12px; text-align: left;&quot;&gt;&amp;nbsp;&lt;/span&gt;" style="shape=partialRectangle;html=1;whiteSpace=wrap;connectable=0;fillColor=none;top=0;left=0;bottom=0;right=0;overflow=hidden;fontFamily=Helvetica;fontSize=11;fontColor=default;" parent="-e-ILqeZROQvLMbUx6ZE-135" vertex="1">
          <mxGeometry width="156" height="52" as="geometry">
            <mxRectangle width="156" height="52" as="alternateBounds" />
          </mxGeometry>
        </mxCell>
        <mxCell id="-e-ILqeZROQvLMbUx6ZE-137" value="&lt;span style=&quot;color: rgb(0, 0, 0); font-size: 12px; text-align: left;&quot;&gt;#16.00&amp;nbsp;&lt;/span&gt;&lt;span style=&quot;color: rgb(0, 0, 0); font-size: 12px; text-align: left;&quot;&gt;&amp;nbsp;&lt;/span&gt;" style="shape=partialRectangle;html=1;whiteSpace=wrap;connectable=0;fillColor=none;top=0;left=0;bottom=0;right=0;overflow=hidden;fontFamily=Helvetica;fontSize=11;fontColor=default;" parent="-e-ILqeZROQvLMbUx6ZE-135" vertex="1">
          <mxGeometry x="156" width="97" height="52" as="geometry">
            <mxRectangle width="97" height="52" as="alternateBounds" />
          </mxGeometry>
        </mxCell>
        <mxCell id="-e-ILqeZROQvLMbUx6ZE-138" value="&lt;span style=&quot;color: rgb(0, 0, 0); font-size: 12px; text-align: left;&quot;&gt;&amp;nbsp; 63A&amp;nbsp; &amp;nbsp; &amp;nbsp;&lt;/span&gt;&lt;span style=&quot;color: rgb(0, 0, 0); font-size: 12px; text-align: left;&quot;&gt;&amp;nbsp;&lt;/span&gt;" style="shape=partialRectangle;html=1;whiteSpace=wrap;connectable=0;fillColor=none;top=0;left=0;bottom=0;right=0;overflow=hidden;fontFamily=Helvetica;fontSize=11;fontColor=default;" parent="-e-ILqeZROQvLMbUx6ZE-135" vertex="1">
          <mxGeometry x="253" width="142" height="52" as="geometry">
            <mxRectangle width="142" height="52" as="alternateBounds" />
          </mxGeometry>
        </mxCell>
        <mxCell id="-e-ILqeZROQvLMbUx6ZE-139" value="&lt;span style=&quot;color: rgb(0, 0, 0); font-size: 12px; text-align: left;&quot;&gt;&amp;nbsp; &amp;nbsp; &amp;nbsp;3F&amp;nbsp; &amp;nbsp; &amp;nbsp;&lt;/span&gt;&lt;span style=&quot;color: rgb(0, 0, 0); font-size: 12px; text-align: left;&quot;&gt;&amp;nbsp;&lt;/span&gt;" style="shape=partialRectangle;html=1;whiteSpace=wrap;connectable=0;fillColor=none;top=0;left=0;bottom=0;right=0;overflow=hidden;fontFamily=Helvetica;fontSize=11;fontColor=default;" parent="-e-ILqeZROQvLMbUx6ZE-135" vertex="1">
          <mxGeometry x="395" width="78" height="52" as="geometry">
            <mxRectangle width="78" height="52" as="alternateBounds" />
          </mxGeometry>
        </mxCell>
        <mxCell id="-e-ILqeZROQvLMbUx6ZE-140" value="18KW" style="shape=partialRectangle;html=1;whiteSpace=wrap;connectable=0;fillColor=none;top=0;left=0;bottom=0;right=0;overflow=hidden;fontFamily=Helvetica;fontSize=11;fontColor=default;" parent="-e-ILqeZROQvLMbUx6ZE-135" vertex="1">
          <mxGeometry x="473" width="77" height="52" as="geometry">
            <mxRectangle width="77" height="52" as="alternateBounds" />
          </mxGeometry>
        </mxCell>
        <mxCell id="-e-ILqeZROQvLMbUx6ZE-141" value="" style="shape=tableRow;horizontal=0;startSize=0;swimlaneHead=0;swimlaneBody=0;top=0;left=0;bottom=0;right=0;collapsible=0;dropTarget=0;fillColor=none;points=[[0,0.5],[1,0.5]];portConstraint=eastwest;fontFamily=Helvetica;fontSize=11;fontColor=default;" parent="-e-ILqeZROQvLMbUx6ZE-128" vertex="1">
          <mxGeometry y="83" width="550" height="50" as="geometry" />
        </mxCell>
        <mxCell id="-e-ILqeZROQvLMbUx6ZE-142" value="&lt;div style=&quot;text-align: left;&quot;&gt;&lt;span style=&quot;background-color: initial; font-size: 12px;&quot;&gt;&lt;font color=&quot;#000000&quot;&gt;B. CALOR&lt;/font&gt;&lt;/span&gt;&lt;/div&gt;" style="shape=partialRectangle;html=1;whiteSpace=wrap;connectable=0;fillColor=none;top=0;left=0;bottom=0;right=0;overflow=hidden;fontFamily=Helvetica;fontSize=11;fontColor=default;" parent="-e-ILqeZROQvLMbUx6ZE-141" vertex="1">
          <mxGeometry width="156" height="50" as="geometry">
            <mxRectangle width="156" height="50" as="alternateBounds" />
          </mxGeometry>
        </mxCell>
        <mxCell id="-e-ILqeZROQvLMbUx6ZE-143" value="&lt;span style=&quot;color: rgb(0, 0, 0); font-size: 12px; text-align: left;&quot;&gt;#16.00&amp;nbsp;&lt;/span&gt;" style="shape=partialRectangle;html=1;whiteSpace=wrap;connectable=0;fillColor=none;top=0;left=0;bottom=0;right=0;overflow=hidden;fontFamily=Helvetica;fontSize=11;fontColor=default;" parent="-e-ILqeZROQvLMbUx6ZE-141" vertex="1">
          <mxGeometry x="156" width="97" height="50" as="geometry">
            <mxRectangle width="97" height="50" as="alternateBounds" />
          </mxGeometry>
        </mxCell>
        <mxCell id="-e-ILqeZROQvLMbUx6ZE-144" value="&lt;span style=&quot;color: rgb(0, 0, 0); font-size: 12px; text-align: left;&quot;&gt;50A&amp;nbsp;&lt;/span&gt;" style="shape=partialRectangle;html=1;whiteSpace=wrap;connectable=0;fillColor=none;top=0;left=0;bottom=0;right=0;overflow=hidden;fontFamily=Helvetica;fontSize=11;fontColor=default;" parent="-e-ILqeZROQvLMbUx6ZE-141" vertex="1">
          <mxGeometry x="253" width="142" height="50" as="geometry">
            <mxRectangle width="142" height="50" as="alternateBounds" />
          </mxGeometry>
        </mxCell>
        <mxCell id="-e-ILqeZROQvLMbUx6ZE-145" value="&lt;span style=&quot;color: rgb(0, 0, 0); font-size: 12px; text-align: left;&quot;&gt;3F&lt;/span&gt;" style="shape=partialRectangle;html=1;whiteSpace=wrap;connectable=0;fillColor=none;top=0;left=0;bottom=0;right=0;overflow=hidden;pointerEvents=1;fontFamily=Helvetica;fontSize=11;fontColor=default;" parent="-e-ILqeZROQvLMbUx6ZE-141" vertex="1">
          <mxGeometry x="395" width="78" height="50" as="geometry">
            <mxRectangle width="78" height="50" as="alternateBounds" />
          </mxGeometry>
        </mxCell>
        <mxCell id="-e-ILqeZROQvLMbUx6ZE-146" value="12KW" style="shape=partialRectangle;html=1;whiteSpace=wrap;connectable=0;fillColor=none;top=0;left=0;bottom=0;right=0;overflow=hidden;pointerEvents=1;fontFamily=Helvetica;fontSize=11;fontColor=default;" parent="-e-ILqeZROQvLMbUx6ZE-141" vertex="1">
          <mxGeometry x="473" width="77" height="50" as="geometry">
            <mxRectangle width="77" height="50" as="alternateBounds" />
          </mxGeometry>
        </mxCell>
        <mxCell id="-e-ILqeZROQvLMbUx6ZE-147" style="shape=tableRow;horizontal=0;startSize=0;swimlaneHead=0;swimlaneBody=0;top=0;left=0;bottom=0;right=0;collapsible=0;dropTarget=0;fillColor=none;points=[[0,0.5],[1,0.5]];portConstraint=eastwest;fontFamily=Helvetica;fontSize=11;fontColor=default;" parent="-e-ILqeZROQvLMbUx6ZE-128" vertex="1">
          <mxGeometry y="133" width="550" height="50" as="geometry" />
        </mxCell>
        <mxCell id="-e-ILqeZROQvLMbUx6ZE-148" value="&lt;span style=&quot;color: rgb(0, 0, 0); font-size: 12px; text-align: left;&quot;&gt;SPA&lt;/span&gt;&lt;span style=&quot;color: rgb(0, 0, 0); font-size: 12px; text-align: left;&quot;&gt;&lt;/span&gt;&lt;span style=&quot;color: rgb(0, 0, 0); font-size: 12px; text-align: left;&quot;&gt;&lt;/span&gt;" style="shape=partialRectangle;html=1;whiteSpace=wrap;connectable=0;fillColor=none;top=0;left=0;bottom=0;right=0;overflow=hidden;fontFamily=Helvetica;fontSize=11;fontColor=default;" parent="-e-ILqeZROQvLMbUx6ZE-147" vertex="1">
          <mxGeometry width="156" height="50" as="geometry">
            <mxRectangle width="156" height="50" as="alternateBounds" />
          </mxGeometry>
        </mxCell>
        <mxCell id="-e-ILqeZROQvLMbUx6ZE-149" value="#16.00" style="shape=partialRectangle;html=1;whiteSpace=wrap;connectable=0;fillColor=none;top=0;left=0;bottom=0;right=0;overflow=hidden;fontFamily=Helvetica;fontSize=11;fontColor=default;" parent="-e-ILqeZROQvLMbUx6ZE-147" vertex="1">
          <mxGeometry x="156" width="97" height="50" as="geometry">
            <mxRectangle width="97" height="50" as="alternateBounds" />
          </mxGeometry>
        </mxCell>
        <mxCell id="-e-ILqeZROQvLMbUx6ZE-150" value="63A" style="shape=partialRectangle;html=1;whiteSpace=wrap;connectable=0;fillColor=none;top=0;left=0;bottom=0;right=0;overflow=hidden;fontFamily=Helvetica;fontSize=11;fontColor=default;" parent="-e-ILqeZROQvLMbUx6ZE-147" vertex="1">
          <mxGeometry x="253" width="142" height="50" as="geometry">
            <mxRectangle width="142" height="50" as="alternateBounds" />
          </mxGeometry>
        </mxCell>
        <mxCell id="-e-ILqeZROQvLMbUx6ZE-151" value="3F" style="shape=partialRectangle;html=1;whiteSpace=wrap;connectable=0;fillColor=none;top=0;left=0;bottom=0;right=0;overflow=hidden;pointerEvents=1;fontFamily=Helvetica;fontSize=11;fontColor=default;" parent="-e-ILqeZROQvLMbUx6ZE-147" vertex="1">
          <mxGeometry x="395" width="78" height="50" as="geometry">
            <mxRectangle width="78" height="50" as="alternateBounds" />
          </mxGeometry>
        </mxCell>
        <mxCell id="-e-ILqeZROQvLMbUx6ZE-152" value="9.5KW" style="shape=partialRectangle;html=1;whiteSpace=wrap;connectable=0;fillColor=none;top=0;left=0;bottom=0;right=0;overflow=hidden;pointerEvents=1;fontFamily=Helvetica;fontSize=11;fontColor=default;" parent="-e-ILqeZROQvLMbUx6ZE-147" vertex="1">
          <mxGeometry x="473" width="77" height="50" as="geometry">
            <mxRectangle width="77" height="50" as="alternateBounds" />
          </mxGeometry>
        </mxCell>
        <mxCell id="yD8nkF8SFkqJ1iJWaoCs-1" value="PATRIMAR" style="shape=hexagon;perimeter=hexagonPerimeter2;whiteSpace=wrap;html=1;fixedSize=1;fontColor=#000000;fillColor=#66B2FF;" vertex="1" parent="1">
          <mxGeometry x="-1590" y="674.5" width="120" height="80" as="geometry" />
        </mxCell>
        <mxCell id="yD8nkF8SFkqJ1iJWaoCs-28" value="PRIVILÉGE" style="shape=hexagon;perimeter=hexagonPerimeter2;whiteSpace=wrap;html=1;fixedSize=1;fontColor=#000000;fillColor=#66B2FF;" vertex="1" parent="1">
          <mxGeometry x="-2660" y="1040" width="120" height="80" as="geometry" />
        </mxCell>
        <mxCell id="yD8nkF8SFkqJ1iJWaoCs-29" value="CHELSEA" style="swimlane;html=1;fontStyle=0;childLayout=stackLayout;horizontal=1;startSize=26;fillColor=#e0e0e0;horizontalStack=0;resizeParent=1;resizeLast=0;collapsible=1;marginBottom=0;swimlaneFillColor=#ffffff;align=center;rounded=1;shadow=0;comic=0;labelBackgroundColor=none;strokeWidth=1;fontFamily=Verdana;fontSize=12;fontColor=#000000;" vertex="1" parent="1">
          <mxGeometry x="-3240" y="970" width="550" height="209" as="geometry">
            <mxRectangle x="160" y="74" width="90" height="30" as="alternateBounds" />
          </mxGeometry>
        </mxCell>
        <mxCell id="yD8nkF8SFkqJ1iJWaoCs-30" value="" style="shape=table;html=1;whiteSpace=wrap;startSize=0;container=1;collapsible=0;childLayout=tableLayout;fontFamily=Helvetica;fontSize=11;fontColor=default;fillColor=#006666;gradientColor=#004C99;gradientDirection=east;" vertex="1" parent="yD8nkF8SFkqJ1iJWaoCs-29">
          <mxGeometry y="26" width="550" height="183" as="geometry" />
        </mxCell>
        <mxCell id="yD8nkF8SFkqJ1iJWaoCs-31" value="" style="shape=tableRow;horizontal=0;startSize=0;swimlaneHead=0;swimlaneBody=0;top=0;left=0;bottom=0;right=0;collapsible=0;dropTarget=0;fillColor=none;points=[[0,0.5],[1,0.5]];portConstraint=eastwest;fontFamily=Helvetica;fontSize=11;fontColor=default;" vertex="1" parent="yD8nkF8SFkqJ1iJWaoCs-30">
          <mxGeometry width="550" height="31" as="geometry" />
        </mxCell>
        <mxCell id="yD8nkF8SFkqJ1iJWaoCs-32" value="ITEM" style="shape=partialRectangle;html=1;whiteSpace=wrap;connectable=0;fillColor=none;top=0;left=0;bottom=0;right=0;overflow=hidden;fontFamily=Helvetica;fontSize=11;fontColor=default;" vertex="1" parent="yD8nkF8SFkqJ1iJWaoCs-31">
          <mxGeometry width="156" height="31" as="geometry">
            <mxRectangle width="156" height="31" as="alternateBounds" />
          </mxGeometry>
        </mxCell>
        <mxCell id="yD8nkF8SFkqJ1iJWaoCs-33" value="SEÇÃO" style="shape=partialRectangle;html=1;whiteSpace=wrap;connectable=0;fillColor=none;top=0;left=0;bottom=0;right=0;overflow=hidden;fontFamily=Helvetica;fontSize=11;fontColor=default;" vertex="1" parent="yD8nkF8SFkqJ1iJWaoCs-31">
          <mxGeometry x="156" width="97" height="31" as="geometry">
            <mxRectangle width="97" height="31" as="alternateBounds" />
          </mxGeometry>
        </mxCell>
        <mxCell id="yD8nkF8SFkqJ1iJWaoCs-34" value="PROTEÇÃO" style="shape=partialRectangle;html=1;whiteSpace=wrap;connectable=0;fillColor=none;top=0;left=0;bottom=0;right=0;overflow=hidden;fontFamily=Helvetica;fontSize=11;fontColor=default;" vertex="1" parent="yD8nkF8SFkqJ1iJWaoCs-31">
          <mxGeometry x="253" width="142" height="31" as="geometry">
            <mxRectangle width="142" height="31" as="alternateBounds" />
          </mxGeometry>
        </mxCell>
        <mxCell id="yD8nkF8SFkqJ1iJWaoCs-35" value="N° FASES" style="shape=partialRectangle;html=1;whiteSpace=wrap;connectable=0;fillColor=none;top=0;left=0;bottom=0;right=0;overflow=hidden;fontFamily=Helvetica;fontSize=11;fontColor=default;" vertex="1" parent="yD8nkF8SFkqJ1iJWaoCs-31">
          <mxGeometry x="395" width="78" height="31" as="geometry">
            <mxRectangle width="78" height="31" as="alternateBounds" />
          </mxGeometry>
        </mxCell>
        <mxCell id="yD8nkF8SFkqJ1iJWaoCs-36" value="CARGA(W)" style="shape=partialRectangle;html=1;whiteSpace=wrap;connectable=0;fillColor=none;top=0;left=0;bottom=0;right=0;overflow=hidden;fontFamily=Helvetica;fontSize=11;fontColor=default;" vertex="1" parent="yD8nkF8SFkqJ1iJWaoCs-31">
          <mxGeometry x="473" width="77" height="31" as="geometry">
            <mxRectangle width="77" height="31" as="alternateBounds" />
          </mxGeometry>
        </mxCell>
        <mxCell id="yD8nkF8SFkqJ1iJWaoCs-37" value="" style="shape=tableRow;horizontal=0;startSize=0;swimlaneHead=0;swimlaneBody=0;top=0;left=0;bottom=0;right=0;collapsible=0;dropTarget=0;fillColor=none;points=[[0,0.5],[1,0.5]];portConstraint=eastwest;fontFamily=Helvetica;fontSize=11;fontColor=default;" vertex="1" parent="yD8nkF8SFkqJ1iJWaoCs-30">
          <mxGeometry y="31" width="550" height="52" as="geometry" />
        </mxCell>
        <mxCell id="yD8nkF8SFkqJ1iJWaoCs-38" value="&lt;span style=&quot;color: rgb(0, 0, 0); font-size: 12px; text-align: left;&quot;&gt;SAUNA&lt;/span&gt;&lt;span style=&quot;color: rgb(0, 0, 0); font-size: 12px; text-align: left;&quot;&gt; &lt;/span&gt;&lt;span style=&quot;color: rgb(0, 0, 0); font-size: 12px; text-align: left;&quot;&gt;&amp;nbsp;&lt;/span&gt;" style="shape=partialRectangle;html=1;whiteSpace=wrap;connectable=0;fillColor=none;top=0;left=0;bottom=0;right=0;overflow=hidden;fontFamily=Helvetica;fontSize=11;fontColor=default;" vertex="1" parent="yD8nkF8SFkqJ1iJWaoCs-37">
          <mxGeometry width="156" height="52" as="geometry">
            <mxRectangle width="156" height="52" as="alternateBounds" />
          </mxGeometry>
        </mxCell>
        <mxCell id="yD8nkF8SFkqJ1iJWaoCs-39" value="&lt;span style=&quot;color: rgb(0, 0, 0); font-size: 12px; text-align: left;&quot;&gt;#6.00&amp;nbsp;&lt;/span&gt;&lt;span style=&quot;color: rgb(0, 0, 0); font-size: 12px; text-align: left;&quot;&gt;&amp;nbsp;&lt;/span&gt;" style="shape=partialRectangle;html=1;whiteSpace=wrap;connectable=0;fillColor=none;top=0;left=0;bottom=0;right=0;overflow=hidden;fontFamily=Helvetica;fontSize=11;fontColor=default;" vertex="1" parent="yD8nkF8SFkqJ1iJWaoCs-37">
          <mxGeometry x="156" width="97" height="52" as="geometry">
            <mxRectangle width="97" height="52" as="alternateBounds" />
          </mxGeometry>
        </mxCell>
        <mxCell id="yD8nkF8SFkqJ1iJWaoCs-40" value="&lt;span style=&quot;color: rgb(0, 0, 0); font-size: 12px; text-align: left;&quot;&gt;&amp;nbsp; &amp;nbsp;32A&amp;nbsp; &amp;nbsp; &amp;nbsp;&lt;/span&gt;&lt;span style=&quot;color: rgb(0, 0, 0); font-size: 12px; text-align: left;&quot;&gt;&amp;nbsp;&lt;/span&gt;" style="shape=partialRectangle;html=1;whiteSpace=wrap;connectable=0;fillColor=none;top=0;left=0;bottom=0;right=0;overflow=hidden;fontFamily=Helvetica;fontSize=11;fontColor=default;" vertex="1" parent="yD8nkF8SFkqJ1iJWaoCs-37">
          <mxGeometry x="253" width="142" height="52" as="geometry">
            <mxRectangle width="142" height="52" as="alternateBounds" />
          </mxGeometry>
        </mxCell>
        <mxCell id="yD8nkF8SFkqJ1iJWaoCs-41" value="&lt;span style=&quot;color: rgb(0, 0, 0); font-size: 12px; text-align: left;&quot;&gt;&amp;nbsp; &amp;nbsp; &amp;nbsp;3F&amp;nbsp; &amp;nbsp; &amp;nbsp;&lt;/span&gt;&lt;span style=&quot;color: rgb(0, 0, 0); font-size: 12px; text-align: left;&quot;&gt;&amp;nbsp;&lt;/span&gt;" style="shape=partialRectangle;html=1;whiteSpace=wrap;connectable=0;fillColor=none;top=0;left=0;bottom=0;right=0;overflow=hidden;fontFamily=Helvetica;fontSize=11;fontColor=default;" vertex="1" parent="yD8nkF8SFkqJ1iJWaoCs-37">
          <mxGeometry x="395" width="78" height="52" as="geometry">
            <mxRectangle width="78" height="52" as="alternateBounds" />
          </mxGeometry>
        </mxCell>
        <mxCell id="yD8nkF8SFkqJ1iJWaoCs-42" value="9KW" style="shape=partialRectangle;html=1;whiteSpace=wrap;connectable=0;fillColor=none;top=0;left=0;bottom=0;right=0;overflow=hidden;fontFamily=Helvetica;fontSize=11;fontColor=default;" vertex="1" parent="yD8nkF8SFkqJ1iJWaoCs-37">
          <mxGeometry x="473" width="77" height="52" as="geometry">
            <mxRectangle width="77" height="52" as="alternateBounds" />
          </mxGeometry>
        </mxCell>
        <mxCell id="yD8nkF8SFkqJ1iJWaoCs-43" value="" style="shape=tableRow;horizontal=0;startSize=0;swimlaneHead=0;swimlaneBody=0;top=0;left=0;bottom=0;right=0;collapsible=0;dropTarget=0;fillColor=none;points=[[0,0.5],[1,0.5]];portConstraint=eastwest;fontFamily=Helvetica;fontSize=11;fontColor=default;" vertex="1" parent="yD8nkF8SFkqJ1iJWaoCs-30">
          <mxGeometry y="83" width="550" height="50" as="geometry" />
        </mxCell>
        <mxCell id="yD8nkF8SFkqJ1iJWaoCs-44" value="&lt;div style=&quot;text-align: left;&quot;&gt;&lt;span style=&quot;background-color: initial; font-size: 12px;&quot;&gt;&lt;font color=&quot;#000000&quot;&gt;B. CALOR&lt;/font&gt;&lt;/span&gt;&lt;/div&gt;" style="shape=partialRectangle;html=1;whiteSpace=wrap;connectable=0;fillColor=none;top=0;left=0;bottom=0;right=0;overflow=hidden;fontFamily=Helvetica;fontSize=11;fontColor=default;" vertex="1" parent="yD8nkF8SFkqJ1iJWaoCs-43">
          <mxGeometry width="156" height="50" as="geometry">
            <mxRectangle width="156" height="50" as="alternateBounds" />
          </mxGeometry>
        </mxCell>
        <mxCell id="yD8nkF8SFkqJ1iJWaoCs-45" value="&lt;span style=&quot;color: rgb(0, 0, 0); font-size: 12px; text-align: left;&quot;&gt;#4.00&amp;nbsp;&lt;/span&gt;" style="shape=partialRectangle;html=1;whiteSpace=wrap;connectable=0;fillColor=none;top=0;left=0;bottom=0;right=0;overflow=hidden;fontFamily=Helvetica;fontSize=11;fontColor=default;" vertex="1" parent="yD8nkF8SFkqJ1iJWaoCs-43">
          <mxGeometry x="156" width="97" height="50" as="geometry">
            <mxRectangle width="97" height="50" as="alternateBounds" />
          </mxGeometry>
        </mxCell>
        <mxCell id="yD8nkF8SFkqJ1iJWaoCs-46" value="&lt;span style=&quot;color: rgb(0, 0, 0); font-size: 12px; text-align: left;&quot;&gt;20A&amp;nbsp;&lt;/span&gt;" style="shape=partialRectangle;html=1;whiteSpace=wrap;connectable=0;fillColor=none;top=0;left=0;bottom=0;right=0;overflow=hidden;fontFamily=Helvetica;fontSize=11;fontColor=default;" vertex="1" parent="yD8nkF8SFkqJ1iJWaoCs-43">
          <mxGeometry x="253" width="142" height="50" as="geometry">
            <mxRectangle width="142" height="50" as="alternateBounds" />
          </mxGeometry>
        </mxCell>
        <mxCell id="yD8nkF8SFkqJ1iJWaoCs-47" value="&lt;span style=&quot;color: rgb(0, 0, 0); font-size: 12px; text-align: left;&quot;&gt;3F&lt;/span&gt;" style="shape=partialRectangle;html=1;whiteSpace=wrap;connectable=0;fillColor=none;top=0;left=0;bottom=0;right=0;overflow=hidden;pointerEvents=1;fontFamily=Helvetica;fontSize=11;fontColor=default;" vertex="1" parent="yD8nkF8SFkqJ1iJWaoCs-43">
          <mxGeometry x="395" width="78" height="50" as="geometry">
            <mxRectangle width="78" height="50" as="alternateBounds" />
          </mxGeometry>
        </mxCell>
        <mxCell id="yD8nkF8SFkqJ1iJWaoCs-48" value="6KW" style="shape=partialRectangle;html=1;whiteSpace=wrap;connectable=0;fillColor=none;top=0;left=0;bottom=0;right=0;overflow=hidden;pointerEvents=1;fontFamily=Helvetica;fontSize=11;fontColor=default;" vertex="1" parent="yD8nkF8SFkqJ1iJWaoCs-43">
          <mxGeometry x="473" width="77" height="50" as="geometry">
            <mxRectangle width="77" height="50" as="alternateBounds" />
          </mxGeometry>
        </mxCell>
        <mxCell id="yD8nkF8SFkqJ1iJWaoCs-49" style="shape=tableRow;horizontal=0;startSize=0;swimlaneHead=0;swimlaneBody=0;top=0;left=0;bottom=0;right=0;collapsible=0;dropTarget=0;fillColor=none;points=[[0,0.5],[1,0.5]];portConstraint=eastwest;fontFamily=Helvetica;fontSize=11;fontColor=default;" vertex="1" parent="yD8nkF8SFkqJ1iJWaoCs-30">
          <mxGeometry y="133" width="550" height="50" as="geometry" />
        </mxCell>
        <mxCell id="yD8nkF8SFkqJ1iJWaoCs-50" value="&lt;span style=&quot;color: rgb(0, 0, 0); font-size: 12px; text-align: left;&quot;&gt;B. PISCINA&lt;/span&gt;&lt;span style=&quot;color: rgb(0, 0, 0); font-size: 12px; text-align: left;&quot;&gt;&lt;/span&gt;&lt;span style=&quot;color: rgb(0, 0, 0); font-size: 12px; text-align: left;&quot;&gt;&lt;/span&gt;" style="shape=partialRectangle;html=1;whiteSpace=wrap;connectable=0;fillColor=none;top=0;left=0;bottom=0;right=0;overflow=hidden;fontFamily=Helvetica;fontSize=11;fontColor=default;" vertex="1" parent="yD8nkF8SFkqJ1iJWaoCs-49">
          <mxGeometry width="156" height="50" as="geometry">
            <mxRectangle width="156" height="50" as="alternateBounds" />
          </mxGeometry>
        </mxCell>
        <mxCell id="yD8nkF8SFkqJ1iJWaoCs-51" value="#4.00" style="shape=partialRectangle;html=1;whiteSpace=wrap;connectable=0;fillColor=none;top=0;left=0;bottom=0;right=0;overflow=hidden;fontFamily=Helvetica;fontSize=11;fontColor=default;" vertex="1" parent="yD8nkF8SFkqJ1iJWaoCs-49">
          <mxGeometry x="156" width="97" height="50" as="geometry">
            <mxRectangle width="97" height="50" as="alternateBounds" />
          </mxGeometry>
        </mxCell>
        <mxCell id="yD8nkF8SFkqJ1iJWaoCs-52" value="20A" style="shape=partialRectangle;html=1;whiteSpace=wrap;connectable=0;fillColor=none;top=0;left=0;bottom=0;right=0;overflow=hidden;fontFamily=Helvetica;fontSize=11;fontColor=default;" vertex="1" parent="yD8nkF8SFkqJ1iJWaoCs-49">
          <mxGeometry x="253" width="142" height="50" as="geometry">
            <mxRectangle width="142" height="50" as="alternateBounds" />
          </mxGeometry>
        </mxCell>
        <mxCell id="yD8nkF8SFkqJ1iJWaoCs-53" value="3F" style="shape=partialRectangle;html=1;whiteSpace=wrap;connectable=0;fillColor=none;top=0;left=0;bottom=0;right=0;overflow=hidden;pointerEvents=1;fontFamily=Helvetica;fontSize=11;fontColor=default;" vertex="1" parent="yD8nkF8SFkqJ1iJWaoCs-49">
          <mxGeometry x="395" width="78" height="50" as="geometry">
            <mxRectangle width="78" height="50" as="alternateBounds" />
          </mxGeometry>
        </mxCell>
        <mxCell id="yD8nkF8SFkqJ1iJWaoCs-54" value="2KW" style="shape=partialRectangle;html=1;whiteSpace=wrap;connectable=0;fillColor=none;top=0;left=0;bottom=0;right=0;overflow=hidden;pointerEvents=1;fontFamily=Helvetica;fontSize=11;fontColor=default;" vertex="1" parent="yD8nkF8SFkqJ1iJWaoCs-49">
          <mxGeometry x="473" width="77" height="50" as="geometry">
            <mxRectangle width="77" height="50" as="alternateBounds" />
          </mxGeometry>
        </mxCell>
        <mxCell id="yD8nkF8SFkqJ1iJWaoCs-55" value="&lt;span style=&quot;font-family: Helvetica;&quot;&gt;PILOTIS&lt;/span&gt;" style="html=1;rounded=0;shadow=0;comic=0;labelBackgroundColor=none;strokeWidth=2;fontFamily=Verdana;fontSize=12;align=center;shape=mxgraph.ios7ui.horLines;fontColor=#000000;fillColor=#006666;gradientColor=#004C99;gradientDirection=east;" vertex="1" parent="1">
          <mxGeometry x="-3020" y="900" width="135" height="50" as="geometry" />
        </mxCell>
      </root>
    </mxGraphModel>
  </diagram>
</mxfile>
